G04 #@! TF.GenerationSoftware,KiCad,Pcbnew,(5.1.2)-1*
G04 #@! TF.CreationDate,2019-04-29T10:05:08+02:00*
G04 #@! TF.ProjectId,RPI FS HAT,52504920-4653-4204-9841-542e6b696361,1*
G04 #@! TF.SameCoordinates,Original*
G04 #@! TF.FileFunction,Copper,L2,Bot*
G04 #@! TF.FilePolarity,Positive*
%FSLAX46Y46*%
G04 Gerber Fmt 4.6, Leading zero omitted, Abs format (unit mm)*
G04 Created by KiCad (PCBNEW (5.1.2)-1) date 2019-04-29 10:05:08*
%MOMM*%
%LPD*%
G04 APERTURE LIST*
%ADD10R,1.700000X1.700000*%
%ADD11O,1.700000X1.700000*%
%ADD12C,2.000000*%
%ADD13R,1.500000X1.500000*%
%ADD14C,1.500000*%
%ADD15C,1.000000*%
%ADD16C,0.300000*%
%ADD17C,0.250000*%
%ADD18C,0.254000*%
G04 APERTURE END LIST*
D10*
X179197000Y-58801000D03*
D11*
X179197000Y-56261000D03*
X181737000Y-58801000D03*
X181737000Y-56261000D03*
X184277000Y-58801000D03*
X184277000Y-56261000D03*
X186817000Y-58801000D03*
X186817000Y-56261000D03*
X189357000Y-58801000D03*
X189357000Y-56261000D03*
X191897000Y-58801000D03*
X191897000Y-56261000D03*
X194437000Y-58801000D03*
X194437000Y-56261000D03*
X196977000Y-58801000D03*
X196977000Y-56261000D03*
D12*
X183951000Y-73197500D03*
X179451000Y-73197500D03*
X183951000Y-66697500D03*
X179451000Y-66697500D03*
D13*
X189547500Y-69850000D03*
D14*
X192087500Y-69850000D03*
X194627500Y-69850000D03*
X197167500Y-69850000D03*
D15*
X187960000Y-61658500D03*
D16*
X179197000Y-66443500D02*
X179451000Y-66697500D01*
X179197000Y-58801000D02*
X179197000Y-66443500D01*
X179451000Y-73123513D02*
X179503950Y-73176463D01*
X179451000Y-66697500D02*
X179451000Y-73123513D01*
X182780067Y-69850000D02*
X179476178Y-73153889D01*
X189547500Y-69850000D02*
X182780067Y-69850000D01*
D17*
X184950999Y-65697501D02*
X183951000Y-66697500D01*
X185452001Y-65196499D02*
X184950999Y-65697501D01*
X185452001Y-57625999D02*
X185452001Y-65196499D01*
X186817000Y-56261000D02*
X185452001Y-57625999D01*
X192087500Y-58991500D02*
X191897000Y-58801000D01*
X192087500Y-69850000D02*
X192087500Y-58991500D01*
D18*
G36*
X199131689Y-54119376D02*
G01*
X199295350Y-54169022D01*
X199446172Y-54249638D01*
X199578370Y-54358130D01*
X199686862Y-54490328D01*
X199746001Y-54600969D01*
X199746000Y-74177033D01*
X199686862Y-74287672D01*
X199578370Y-74419870D01*
X199446172Y-74528362D01*
X199295350Y-74608978D01*
X199131689Y-74658624D01*
X198955266Y-74676000D01*
X184654046Y-74676000D01*
X184725463Y-74646418D01*
X184993252Y-74467487D01*
X185220987Y-74239752D01*
X185399918Y-73971963D01*
X185523168Y-73674412D01*
X185586000Y-73358533D01*
X185586000Y-73036467D01*
X185523168Y-72720588D01*
X185399918Y-72423037D01*
X185220987Y-72155248D01*
X184993252Y-71927513D01*
X184725463Y-71748582D01*
X184427912Y-71625332D01*
X184112033Y-71562500D01*
X183789967Y-71562500D01*
X183474088Y-71625332D01*
X183176537Y-71748582D01*
X182908748Y-71927513D01*
X182681013Y-72155248D01*
X182502082Y-72423037D01*
X182378832Y-72720588D01*
X182316000Y-73036467D01*
X182316000Y-73358533D01*
X182378832Y-73674412D01*
X182502082Y-73971963D01*
X182681013Y-74239752D01*
X182908748Y-74467487D01*
X183176537Y-74646418D01*
X183247954Y-74676000D01*
X180154046Y-74676000D01*
X180225463Y-74646418D01*
X180493252Y-74467487D01*
X180720987Y-74239752D01*
X180899918Y-73971963D01*
X181023168Y-73674412D01*
X181086000Y-73358533D01*
X181086000Y-73036467D01*
X181023168Y-72720588D01*
X181022133Y-72718091D01*
X183105224Y-70635000D01*
X188162875Y-70635000D01*
X188171688Y-70724482D01*
X188207998Y-70844180D01*
X188266963Y-70954494D01*
X188346315Y-71051185D01*
X188443006Y-71130537D01*
X188553320Y-71189502D01*
X188673018Y-71225812D01*
X188797500Y-71238072D01*
X190297500Y-71238072D01*
X190421982Y-71225812D01*
X190541680Y-71189502D01*
X190651994Y-71130537D01*
X190748685Y-71051185D01*
X190828037Y-70954494D01*
X190887002Y-70844180D01*
X190923312Y-70724482D01*
X190933945Y-70616517D01*
X191011701Y-70732886D01*
X191204614Y-70925799D01*
X191431457Y-71077371D01*
X191683511Y-71181775D01*
X191951089Y-71235000D01*
X192223911Y-71235000D01*
X192491489Y-71181775D01*
X192743543Y-71077371D01*
X192970386Y-70925799D01*
X193163299Y-70732886D01*
X193314871Y-70506043D01*
X193357500Y-70403127D01*
X193400129Y-70506043D01*
X193551701Y-70732886D01*
X193744614Y-70925799D01*
X193971457Y-71077371D01*
X194223511Y-71181775D01*
X194491089Y-71235000D01*
X194763911Y-71235000D01*
X195031489Y-71181775D01*
X195283543Y-71077371D01*
X195510386Y-70925799D01*
X195629192Y-70806993D01*
X196390112Y-70806993D01*
X196455637Y-71045860D01*
X196702616Y-71161760D01*
X196967460Y-71227250D01*
X197239992Y-71239812D01*
X197509738Y-71198965D01*
X197766332Y-71106277D01*
X197879363Y-71045860D01*
X197944888Y-70806993D01*
X197167500Y-70029605D01*
X196390112Y-70806993D01*
X195629192Y-70806993D01*
X195703299Y-70732886D01*
X195854871Y-70506043D01*
X195896011Y-70406721D01*
X195911223Y-70448832D01*
X195971640Y-70561863D01*
X196210507Y-70627388D01*
X196987895Y-69850000D01*
X197347105Y-69850000D01*
X198124493Y-70627388D01*
X198363360Y-70561863D01*
X198479260Y-70314884D01*
X198544750Y-70050040D01*
X198557312Y-69777508D01*
X198516465Y-69507762D01*
X198423777Y-69251168D01*
X198363360Y-69138137D01*
X198124493Y-69072612D01*
X197347105Y-69850000D01*
X196987895Y-69850000D01*
X196210507Y-69072612D01*
X195971640Y-69138137D01*
X195897336Y-69296477D01*
X195854871Y-69193957D01*
X195703299Y-68967114D01*
X195629192Y-68893007D01*
X196390112Y-68893007D01*
X197167500Y-69670395D01*
X197944888Y-68893007D01*
X197879363Y-68654140D01*
X197632384Y-68538240D01*
X197367540Y-68472750D01*
X197095008Y-68460188D01*
X196825262Y-68501035D01*
X196568668Y-68593723D01*
X196455637Y-68654140D01*
X196390112Y-68893007D01*
X195629192Y-68893007D01*
X195510386Y-68774201D01*
X195283543Y-68622629D01*
X195031489Y-68518225D01*
X194763911Y-68465000D01*
X194491089Y-68465000D01*
X194223511Y-68518225D01*
X193971457Y-68622629D01*
X193744614Y-68774201D01*
X193551701Y-68967114D01*
X193400129Y-69193957D01*
X193357500Y-69296873D01*
X193314871Y-69193957D01*
X193163299Y-68967114D01*
X192970386Y-68774201D01*
X192847500Y-68692091D01*
X192847500Y-59942005D01*
X192952134Y-59856134D01*
X193137706Y-59630014D01*
X193167000Y-59575209D01*
X193196294Y-59630014D01*
X193381866Y-59856134D01*
X193607986Y-60041706D01*
X193865966Y-60179599D01*
X194145889Y-60264513D01*
X194364050Y-60286000D01*
X194509950Y-60286000D01*
X194728111Y-60264513D01*
X195008034Y-60179599D01*
X195266014Y-60041706D01*
X195492134Y-59856134D01*
X195677706Y-59630014D01*
X195707000Y-59575209D01*
X195736294Y-59630014D01*
X195921866Y-59856134D01*
X196147986Y-60041706D01*
X196405966Y-60179599D01*
X196685889Y-60264513D01*
X196904050Y-60286000D01*
X197049950Y-60286000D01*
X197268111Y-60264513D01*
X197548034Y-60179599D01*
X197806014Y-60041706D01*
X198032134Y-59856134D01*
X198217706Y-59630014D01*
X198355599Y-59372034D01*
X198440513Y-59092111D01*
X198469185Y-58801000D01*
X198440513Y-58509889D01*
X198355599Y-58229966D01*
X198217706Y-57971986D01*
X198032134Y-57745866D01*
X197806014Y-57560294D01*
X197751209Y-57531000D01*
X197806014Y-57501706D01*
X198032134Y-57316134D01*
X198217706Y-57090014D01*
X198355599Y-56832034D01*
X198440513Y-56552111D01*
X198469185Y-56261000D01*
X198440513Y-55969889D01*
X198355599Y-55689966D01*
X198217706Y-55431986D01*
X198032134Y-55205866D01*
X197806014Y-55020294D01*
X197548034Y-54882401D01*
X197268111Y-54797487D01*
X197049950Y-54776000D01*
X196904050Y-54776000D01*
X196685889Y-54797487D01*
X196405966Y-54882401D01*
X196147986Y-55020294D01*
X195921866Y-55205866D01*
X195736294Y-55431986D01*
X195707000Y-55486791D01*
X195677706Y-55431986D01*
X195492134Y-55205866D01*
X195266014Y-55020294D01*
X195008034Y-54882401D01*
X194728111Y-54797487D01*
X194509950Y-54776000D01*
X194364050Y-54776000D01*
X194145889Y-54797487D01*
X193865966Y-54882401D01*
X193607986Y-55020294D01*
X193381866Y-55205866D01*
X193196294Y-55431986D01*
X193167000Y-55486791D01*
X193137706Y-55431986D01*
X192952134Y-55205866D01*
X192726014Y-55020294D01*
X192468034Y-54882401D01*
X192188111Y-54797487D01*
X191969950Y-54776000D01*
X191824050Y-54776000D01*
X191605889Y-54797487D01*
X191325966Y-54882401D01*
X191067986Y-55020294D01*
X190841866Y-55205866D01*
X190656294Y-55431986D01*
X190627000Y-55486791D01*
X190597706Y-55431986D01*
X190412134Y-55205866D01*
X190186014Y-55020294D01*
X189928034Y-54882401D01*
X189648111Y-54797487D01*
X189429950Y-54776000D01*
X189284050Y-54776000D01*
X189065889Y-54797487D01*
X188785966Y-54882401D01*
X188527986Y-55020294D01*
X188301866Y-55205866D01*
X188116294Y-55431986D01*
X188087000Y-55486791D01*
X188057706Y-55431986D01*
X187872134Y-55205866D01*
X187646014Y-55020294D01*
X187388034Y-54882401D01*
X187108111Y-54797487D01*
X186889950Y-54776000D01*
X186744050Y-54776000D01*
X186525889Y-54797487D01*
X186245966Y-54882401D01*
X185987986Y-55020294D01*
X185761866Y-55205866D01*
X185576294Y-55431986D01*
X185541799Y-55496523D01*
X185472178Y-55379645D01*
X185277269Y-55163412D01*
X185043920Y-54989359D01*
X184781099Y-54864175D01*
X184633890Y-54819524D01*
X184404000Y-54940845D01*
X184404000Y-56134000D01*
X184424000Y-56134000D01*
X184424000Y-56388000D01*
X184404000Y-56388000D01*
X184404000Y-56408000D01*
X184150000Y-56408000D01*
X184150000Y-56388000D01*
X184130000Y-56388000D01*
X184130000Y-56134000D01*
X184150000Y-56134000D01*
X184150000Y-54940845D01*
X183920110Y-54819524D01*
X183772901Y-54864175D01*
X183510080Y-54989359D01*
X183276731Y-55163412D01*
X183081822Y-55379645D01*
X183012201Y-55496523D01*
X182977706Y-55431986D01*
X182792134Y-55205866D01*
X182566014Y-55020294D01*
X182308034Y-54882401D01*
X182028111Y-54797487D01*
X181809950Y-54776000D01*
X181664050Y-54776000D01*
X181445889Y-54797487D01*
X181165966Y-54882401D01*
X180907986Y-55020294D01*
X180681866Y-55205866D01*
X180496294Y-55431986D01*
X180467000Y-55486791D01*
X180437706Y-55431986D01*
X180252134Y-55205866D01*
X180026014Y-55020294D01*
X179768034Y-54882401D01*
X179488111Y-54797487D01*
X179269950Y-54776000D01*
X179124050Y-54776000D01*
X178905889Y-54797487D01*
X178625966Y-54882401D01*
X178367986Y-55020294D01*
X178141866Y-55205866D01*
X177956294Y-55431986D01*
X177818401Y-55689966D01*
X177733487Y-55969889D01*
X177704815Y-56261000D01*
X177733487Y-56552111D01*
X177818401Y-56832034D01*
X177956294Y-57090014D01*
X178141866Y-57316134D01*
X178171687Y-57340607D01*
X178102820Y-57361498D01*
X177992506Y-57420463D01*
X177895815Y-57499815D01*
X177816463Y-57596506D01*
X177757498Y-57706820D01*
X177721188Y-57826518D01*
X177708928Y-57951000D01*
X177708928Y-59651000D01*
X177721188Y-59775482D01*
X177757498Y-59895180D01*
X177816463Y-60005494D01*
X177895815Y-60102185D01*
X177992506Y-60181537D01*
X178102820Y-60240502D01*
X178222518Y-60276812D01*
X178347000Y-60289072D01*
X178412000Y-60289072D01*
X178412001Y-65425340D01*
X178408748Y-65427513D01*
X178181013Y-65655248D01*
X178002082Y-65923037D01*
X177878832Y-66220588D01*
X177816000Y-66536467D01*
X177816000Y-66858533D01*
X177878832Y-67174412D01*
X178002082Y-67471963D01*
X178181013Y-67739752D01*
X178408748Y-67967487D01*
X178666000Y-68139378D01*
X178666001Y-71755622D01*
X178408748Y-71927513D01*
X178181013Y-72155248D01*
X178002082Y-72423037D01*
X177878832Y-72720588D01*
X177816000Y-73036467D01*
X177816000Y-73358533D01*
X177878832Y-73674412D01*
X178002082Y-73971963D01*
X178181013Y-74239752D01*
X178408748Y-74467487D01*
X178676537Y-74646418D01*
X178747954Y-74676000D01*
X178425234Y-74676000D01*
X178248811Y-74658624D01*
X178085150Y-74608978D01*
X177934328Y-74528362D01*
X177804538Y-74421846D01*
X177802159Y-74417446D01*
X177774466Y-74327984D01*
X177761500Y-74204622D01*
X177761500Y-63213581D01*
X177758707Y-63185222D01*
X177758756Y-63178204D01*
X177757857Y-63169033D01*
X177734540Y-62947181D01*
X177722505Y-62888552D01*
X177711302Y-62829822D01*
X177708639Y-62821000D01*
X177642674Y-62607902D01*
X177619491Y-62552754D01*
X177597084Y-62497294D01*
X177592758Y-62489157D01*
X177531237Y-62375378D01*
X177526173Y-62323962D01*
X177521317Y-62299544D01*
X177464412Y-62111951D01*
X177454884Y-62088950D01*
X177362474Y-61916063D01*
X177348642Y-61895362D01*
X177224279Y-61743825D01*
X177206675Y-61726221D01*
X177055138Y-61601858D01*
X177034437Y-61588026D01*
X176861550Y-61495616D01*
X176838549Y-61486088D01*
X176650956Y-61429183D01*
X176626538Y-61424327D01*
X176431448Y-61405112D01*
X176419000Y-61404500D01*
X173091234Y-61404500D01*
X172914811Y-61387124D01*
X172751150Y-61337478D01*
X172600328Y-61256862D01*
X172468130Y-61148370D01*
X172374652Y-61034466D01*
X172364000Y-60933122D01*
X172364000Y-59085485D01*
X172679682Y-59339300D01*
X173053452Y-59534702D01*
X173458057Y-59653784D01*
X173878087Y-59692009D01*
X174297542Y-59647923D01*
X174700445Y-59523203D01*
X175071451Y-59322602D01*
X175396426Y-59053758D01*
X175662994Y-58726913D01*
X175861001Y-58354517D01*
X175982905Y-57950752D01*
X176024062Y-57531000D01*
X176023219Y-57470660D01*
X175970358Y-57052220D01*
X175837228Y-56652017D01*
X175628901Y-56285294D01*
X175353311Y-55966020D01*
X175020955Y-55706355D01*
X174644493Y-55516190D01*
X174238264Y-55402769D01*
X173817742Y-55370412D01*
X173398944Y-55420351D01*
X172997821Y-55550683D01*
X172629653Y-55756446D01*
X172364000Y-55982534D01*
X172364000Y-54515277D01*
X172367370Y-54480907D01*
X172468130Y-54358130D01*
X172600328Y-54249638D01*
X172751150Y-54169022D01*
X172914811Y-54119376D01*
X173091234Y-54102000D01*
X198955266Y-54102000D01*
X199131689Y-54119376D01*
X199131689Y-54119376D01*
G37*
X199131689Y-54119376D02*
X199295350Y-54169022D01*
X199446172Y-54249638D01*
X199578370Y-54358130D01*
X199686862Y-54490328D01*
X199746001Y-54600969D01*
X199746000Y-74177033D01*
X199686862Y-74287672D01*
X199578370Y-74419870D01*
X199446172Y-74528362D01*
X199295350Y-74608978D01*
X199131689Y-74658624D01*
X198955266Y-74676000D01*
X184654046Y-74676000D01*
X184725463Y-74646418D01*
X184993252Y-74467487D01*
X185220987Y-74239752D01*
X185399918Y-73971963D01*
X185523168Y-73674412D01*
X185586000Y-73358533D01*
X185586000Y-73036467D01*
X185523168Y-72720588D01*
X185399918Y-72423037D01*
X185220987Y-72155248D01*
X184993252Y-71927513D01*
X184725463Y-71748582D01*
X184427912Y-71625332D01*
X184112033Y-71562500D01*
X183789967Y-71562500D01*
X183474088Y-71625332D01*
X183176537Y-71748582D01*
X182908748Y-71927513D01*
X182681013Y-72155248D01*
X182502082Y-72423037D01*
X182378832Y-72720588D01*
X182316000Y-73036467D01*
X182316000Y-73358533D01*
X182378832Y-73674412D01*
X182502082Y-73971963D01*
X182681013Y-74239752D01*
X182908748Y-74467487D01*
X183176537Y-74646418D01*
X183247954Y-74676000D01*
X180154046Y-74676000D01*
X180225463Y-74646418D01*
X180493252Y-74467487D01*
X180720987Y-74239752D01*
X180899918Y-73971963D01*
X181023168Y-73674412D01*
X181086000Y-73358533D01*
X181086000Y-73036467D01*
X181023168Y-72720588D01*
X181022133Y-72718091D01*
X183105224Y-70635000D01*
X188162875Y-70635000D01*
X188171688Y-70724482D01*
X188207998Y-70844180D01*
X188266963Y-70954494D01*
X188346315Y-71051185D01*
X188443006Y-71130537D01*
X188553320Y-71189502D01*
X188673018Y-71225812D01*
X188797500Y-71238072D01*
X190297500Y-71238072D01*
X190421982Y-71225812D01*
X190541680Y-71189502D01*
X190651994Y-71130537D01*
X190748685Y-71051185D01*
X190828037Y-70954494D01*
X190887002Y-70844180D01*
X190923312Y-70724482D01*
X190933945Y-70616517D01*
X191011701Y-70732886D01*
X191204614Y-70925799D01*
X191431457Y-71077371D01*
X191683511Y-71181775D01*
X191951089Y-71235000D01*
X192223911Y-71235000D01*
X192491489Y-71181775D01*
X192743543Y-71077371D01*
X192970386Y-70925799D01*
X193163299Y-70732886D01*
X193314871Y-70506043D01*
X193357500Y-70403127D01*
X193400129Y-70506043D01*
X193551701Y-70732886D01*
X193744614Y-70925799D01*
X193971457Y-71077371D01*
X194223511Y-71181775D01*
X194491089Y-71235000D01*
X194763911Y-71235000D01*
X195031489Y-71181775D01*
X195283543Y-71077371D01*
X195510386Y-70925799D01*
X195629192Y-70806993D01*
X196390112Y-70806993D01*
X196455637Y-71045860D01*
X196702616Y-71161760D01*
X196967460Y-71227250D01*
X197239992Y-71239812D01*
X197509738Y-71198965D01*
X197766332Y-71106277D01*
X197879363Y-71045860D01*
X197944888Y-70806993D01*
X197167500Y-70029605D01*
X196390112Y-70806993D01*
X195629192Y-70806993D01*
X195703299Y-70732886D01*
X195854871Y-70506043D01*
X195896011Y-70406721D01*
X195911223Y-70448832D01*
X195971640Y-70561863D01*
X196210507Y-70627388D01*
X196987895Y-69850000D01*
X197347105Y-69850000D01*
X198124493Y-70627388D01*
X198363360Y-70561863D01*
X198479260Y-70314884D01*
X198544750Y-70050040D01*
X198557312Y-69777508D01*
X198516465Y-69507762D01*
X198423777Y-69251168D01*
X198363360Y-69138137D01*
X198124493Y-69072612D01*
X197347105Y-69850000D01*
X196987895Y-69850000D01*
X196210507Y-69072612D01*
X195971640Y-69138137D01*
X195897336Y-69296477D01*
X195854871Y-69193957D01*
X195703299Y-68967114D01*
X195629192Y-68893007D01*
X196390112Y-68893007D01*
X197167500Y-69670395D01*
X197944888Y-68893007D01*
X197879363Y-68654140D01*
X197632384Y-68538240D01*
X197367540Y-68472750D01*
X197095008Y-68460188D01*
X196825262Y-68501035D01*
X196568668Y-68593723D01*
X196455637Y-68654140D01*
X196390112Y-68893007D01*
X195629192Y-68893007D01*
X195510386Y-68774201D01*
X195283543Y-68622629D01*
X195031489Y-68518225D01*
X194763911Y-68465000D01*
X194491089Y-68465000D01*
X194223511Y-68518225D01*
X193971457Y-68622629D01*
X193744614Y-68774201D01*
X193551701Y-68967114D01*
X193400129Y-69193957D01*
X193357500Y-69296873D01*
X193314871Y-69193957D01*
X193163299Y-68967114D01*
X192970386Y-68774201D01*
X192847500Y-68692091D01*
X192847500Y-59942005D01*
X192952134Y-59856134D01*
X193137706Y-59630014D01*
X193167000Y-59575209D01*
X193196294Y-59630014D01*
X193381866Y-59856134D01*
X193607986Y-60041706D01*
X193865966Y-60179599D01*
X194145889Y-60264513D01*
X194364050Y-60286000D01*
X194509950Y-60286000D01*
X194728111Y-60264513D01*
X195008034Y-60179599D01*
X195266014Y-60041706D01*
X195492134Y-59856134D01*
X195677706Y-59630014D01*
X195707000Y-59575209D01*
X195736294Y-59630014D01*
X195921866Y-59856134D01*
X196147986Y-60041706D01*
X196405966Y-60179599D01*
X196685889Y-60264513D01*
X196904050Y-60286000D01*
X197049950Y-60286000D01*
X197268111Y-60264513D01*
X197548034Y-60179599D01*
X197806014Y-60041706D01*
X198032134Y-59856134D01*
X198217706Y-59630014D01*
X198355599Y-59372034D01*
X198440513Y-59092111D01*
X198469185Y-58801000D01*
X198440513Y-58509889D01*
X198355599Y-58229966D01*
X198217706Y-57971986D01*
X198032134Y-57745866D01*
X197806014Y-57560294D01*
X197751209Y-57531000D01*
X197806014Y-57501706D01*
X198032134Y-57316134D01*
X198217706Y-57090014D01*
X198355599Y-56832034D01*
X198440513Y-56552111D01*
X198469185Y-56261000D01*
X198440513Y-55969889D01*
X198355599Y-55689966D01*
X198217706Y-55431986D01*
X198032134Y-55205866D01*
X197806014Y-55020294D01*
X197548034Y-54882401D01*
X197268111Y-54797487D01*
X197049950Y-54776000D01*
X196904050Y-54776000D01*
X196685889Y-54797487D01*
X196405966Y-54882401D01*
X196147986Y-55020294D01*
X195921866Y-55205866D01*
X195736294Y-55431986D01*
X195707000Y-55486791D01*
X195677706Y-55431986D01*
X195492134Y-55205866D01*
X195266014Y-55020294D01*
X195008034Y-54882401D01*
X194728111Y-54797487D01*
X194509950Y-54776000D01*
X194364050Y-54776000D01*
X194145889Y-54797487D01*
X193865966Y-54882401D01*
X193607986Y-55020294D01*
X193381866Y-55205866D01*
X193196294Y-55431986D01*
X193167000Y-55486791D01*
X193137706Y-55431986D01*
X192952134Y-55205866D01*
X192726014Y-55020294D01*
X192468034Y-54882401D01*
X192188111Y-54797487D01*
X191969950Y-54776000D01*
X191824050Y-54776000D01*
X191605889Y-54797487D01*
X191325966Y-54882401D01*
X191067986Y-55020294D01*
X190841866Y-55205866D01*
X190656294Y-55431986D01*
X190627000Y-55486791D01*
X190597706Y-55431986D01*
X190412134Y-55205866D01*
X190186014Y-55020294D01*
X189928034Y-54882401D01*
X189648111Y-54797487D01*
X189429950Y-54776000D01*
X189284050Y-54776000D01*
X189065889Y-54797487D01*
X188785966Y-54882401D01*
X188527986Y-55020294D01*
X188301866Y-55205866D01*
X188116294Y-55431986D01*
X188087000Y-55486791D01*
X188057706Y-55431986D01*
X187872134Y-55205866D01*
X187646014Y-55020294D01*
X187388034Y-54882401D01*
X187108111Y-54797487D01*
X186889950Y-54776000D01*
X186744050Y-54776000D01*
X186525889Y-54797487D01*
X186245966Y-54882401D01*
X185987986Y-55020294D01*
X185761866Y-55205866D01*
X185576294Y-55431986D01*
X185541799Y-55496523D01*
X185472178Y-55379645D01*
X185277269Y-55163412D01*
X185043920Y-54989359D01*
X184781099Y-54864175D01*
X184633890Y-54819524D01*
X184404000Y-54940845D01*
X184404000Y-56134000D01*
X184424000Y-56134000D01*
X184424000Y-56388000D01*
X184404000Y-56388000D01*
X184404000Y-56408000D01*
X184150000Y-56408000D01*
X184150000Y-56388000D01*
X184130000Y-56388000D01*
X184130000Y-56134000D01*
X184150000Y-56134000D01*
X184150000Y-54940845D01*
X183920110Y-54819524D01*
X183772901Y-54864175D01*
X183510080Y-54989359D01*
X183276731Y-55163412D01*
X183081822Y-55379645D01*
X183012201Y-55496523D01*
X182977706Y-55431986D01*
X182792134Y-55205866D01*
X182566014Y-55020294D01*
X182308034Y-54882401D01*
X182028111Y-54797487D01*
X181809950Y-54776000D01*
X181664050Y-54776000D01*
X181445889Y-54797487D01*
X181165966Y-54882401D01*
X180907986Y-55020294D01*
X180681866Y-55205866D01*
X180496294Y-55431986D01*
X180467000Y-55486791D01*
X180437706Y-55431986D01*
X180252134Y-55205866D01*
X180026014Y-55020294D01*
X179768034Y-54882401D01*
X179488111Y-54797487D01*
X179269950Y-54776000D01*
X179124050Y-54776000D01*
X178905889Y-54797487D01*
X178625966Y-54882401D01*
X178367986Y-55020294D01*
X178141866Y-55205866D01*
X177956294Y-55431986D01*
X177818401Y-55689966D01*
X177733487Y-55969889D01*
X177704815Y-56261000D01*
X177733487Y-56552111D01*
X177818401Y-56832034D01*
X177956294Y-57090014D01*
X178141866Y-57316134D01*
X178171687Y-57340607D01*
X178102820Y-57361498D01*
X177992506Y-57420463D01*
X177895815Y-57499815D01*
X177816463Y-57596506D01*
X177757498Y-57706820D01*
X177721188Y-57826518D01*
X177708928Y-57951000D01*
X177708928Y-59651000D01*
X177721188Y-59775482D01*
X177757498Y-59895180D01*
X177816463Y-60005494D01*
X177895815Y-60102185D01*
X177992506Y-60181537D01*
X178102820Y-60240502D01*
X178222518Y-60276812D01*
X178347000Y-60289072D01*
X178412000Y-60289072D01*
X178412001Y-65425340D01*
X178408748Y-65427513D01*
X178181013Y-65655248D01*
X178002082Y-65923037D01*
X177878832Y-66220588D01*
X177816000Y-66536467D01*
X177816000Y-66858533D01*
X177878832Y-67174412D01*
X178002082Y-67471963D01*
X178181013Y-67739752D01*
X178408748Y-67967487D01*
X178666000Y-68139378D01*
X178666001Y-71755622D01*
X178408748Y-71927513D01*
X178181013Y-72155248D01*
X178002082Y-72423037D01*
X177878832Y-72720588D01*
X177816000Y-73036467D01*
X177816000Y-73358533D01*
X177878832Y-73674412D01*
X178002082Y-73971963D01*
X178181013Y-74239752D01*
X178408748Y-74467487D01*
X178676537Y-74646418D01*
X178747954Y-74676000D01*
X178425234Y-74676000D01*
X178248811Y-74658624D01*
X178085150Y-74608978D01*
X177934328Y-74528362D01*
X177804538Y-74421846D01*
X177802159Y-74417446D01*
X177774466Y-74327984D01*
X177761500Y-74204622D01*
X177761500Y-63213581D01*
X177758707Y-63185222D01*
X177758756Y-63178204D01*
X177757857Y-63169033D01*
X177734540Y-62947181D01*
X177722505Y-62888552D01*
X177711302Y-62829822D01*
X177708639Y-62821000D01*
X177642674Y-62607902D01*
X177619491Y-62552754D01*
X177597084Y-62497294D01*
X177592758Y-62489157D01*
X177531237Y-62375378D01*
X177526173Y-62323962D01*
X177521317Y-62299544D01*
X177464412Y-62111951D01*
X177454884Y-62088950D01*
X177362474Y-61916063D01*
X177348642Y-61895362D01*
X177224279Y-61743825D01*
X177206675Y-61726221D01*
X177055138Y-61601858D01*
X177034437Y-61588026D01*
X176861550Y-61495616D01*
X176838549Y-61486088D01*
X176650956Y-61429183D01*
X176626538Y-61424327D01*
X176431448Y-61405112D01*
X176419000Y-61404500D01*
X173091234Y-61404500D01*
X172914811Y-61387124D01*
X172751150Y-61337478D01*
X172600328Y-61256862D01*
X172468130Y-61148370D01*
X172374652Y-61034466D01*
X172364000Y-60933122D01*
X172364000Y-59085485D01*
X172679682Y-59339300D01*
X173053452Y-59534702D01*
X173458057Y-59653784D01*
X173878087Y-59692009D01*
X174297542Y-59647923D01*
X174700445Y-59523203D01*
X175071451Y-59322602D01*
X175396426Y-59053758D01*
X175662994Y-58726913D01*
X175861001Y-58354517D01*
X175982905Y-57950752D01*
X176024062Y-57531000D01*
X176023219Y-57470660D01*
X175970358Y-57052220D01*
X175837228Y-56652017D01*
X175628901Y-56285294D01*
X175353311Y-55966020D01*
X175020955Y-55706355D01*
X174644493Y-55516190D01*
X174238264Y-55402769D01*
X173817742Y-55370412D01*
X173398944Y-55420351D01*
X172997821Y-55550683D01*
X172629653Y-55756446D01*
X172364000Y-55982534D01*
X172364000Y-54515277D01*
X172367370Y-54480907D01*
X172468130Y-54358130D01*
X172600328Y-54249638D01*
X172751150Y-54169022D01*
X172914811Y-54119376D01*
X173091234Y-54102000D01*
X198955266Y-54102000D01*
X199131689Y-54119376D01*
G36*
X189484000Y-58674000D02*
G01*
X189504000Y-58674000D01*
X189504000Y-58928000D01*
X189484000Y-58928000D01*
X189484000Y-60121155D01*
X189713890Y-60242476D01*
X189861099Y-60197825D01*
X190123920Y-60072641D01*
X190357269Y-59898588D01*
X190552178Y-59682355D01*
X190621799Y-59565477D01*
X190656294Y-59630014D01*
X190841866Y-59856134D01*
X191067986Y-60041706D01*
X191325966Y-60179599D01*
X191327501Y-60180065D01*
X191327500Y-68692091D01*
X191204614Y-68774201D01*
X191011701Y-68967114D01*
X190933945Y-69083483D01*
X190923312Y-68975518D01*
X190887002Y-68855820D01*
X190828037Y-68745506D01*
X190748685Y-68648815D01*
X190651994Y-68569463D01*
X190541680Y-68510498D01*
X190421982Y-68474188D01*
X190297500Y-68461928D01*
X188797500Y-68461928D01*
X188673018Y-68474188D01*
X188553320Y-68510498D01*
X188443006Y-68569463D01*
X188346315Y-68648815D01*
X188266963Y-68745506D01*
X188207998Y-68855820D01*
X188171688Y-68975518D01*
X188162875Y-69065000D01*
X182818623Y-69065000D01*
X182780067Y-69061203D01*
X182741511Y-69065000D01*
X182741506Y-69065000D01*
X182701093Y-69068980D01*
X182626180Y-69076358D01*
X182478207Y-69121246D01*
X182341834Y-69194138D01*
X182222303Y-69292236D01*
X182197720Y-69322190D01*
X180236000Y-71283910D01*
X180236000Y-68139377D01*
X180493252Y-67967487D01*
X180720987Y-67739752D01*
X180899918Y-67471963D01*
X181023168Y-67174412D01*
X181086000Y-66858533D01*
X181086000Y-66536467D01*
X181023168Y-66220588D01*
X180899918Y-65923037D01*
X180720987Y-65655248D01*
X180493252Y-65427513D01*
X180225463Y-65248582D01*
X179982000Y-65147736D01*
X179982000Y-60289072D01*
X180047000Y-60289072D01*
X180171482Y-60276812D01*
X180291180Y-60240502D01*
X180401494Y-60181537D01*
X180498185Y-60102185D01*
X180577537Y-60005494D01*
X180636502Y-59895180D01*
X180657393Y-59826313D01*
X180681866Y-59856134D01*
X180907986Y-60041706D01*
X181165966Y-60179599D01*
X181445889Y-60264513D01*
X181664050Y-60286000D01*
X181809950Y-60286000D01*
X182028111Y-60264513D01*
X182308034Y-60179599D01*
X182566014Y-60041706D01*
X182792134Y-59856134D01*
X182977706Y-59630014D01*
X183007000Y-59575209D01*
X183036294Y-59630014D01*
X183221866Y-59856134D01*
X183447986Y-60041706D01*
X183705966Y-60179599D01*
X183985889Y-60264513D01*
X184204050Y-60286000D01*
X184349950Y-60286000D01*
X184568111Y-60264513D01*
X184692001Y-60226931D01*
X184692002Y-64881697D01*
X184442376Y-65131323D01*
X184427912Y-65125332D01*
X184112033Y-65062500D01*
X183789967Y-65062500D01*
X183474088Y-65125332D01*
X183176537Y-65248582D01*
X182908748Y-65427513D01*
X182681013Y-65655248D01*
X182502082Y-65923037D01*
X182378832Y-66220588D01*
X182316000Y-66536467D01*
X182316000Y-66858533D01*
X182378832Y-67174412D01*
X182502082Y-67471963D01*
X182681013Y-67739752D01*
X182908748Y-67967487D01*
X183176537Y-68146418D01*
X183474088Y-68269668D01*
X183789967Y-68332500D01*
X184112033Y-68332500D01*
X184427912Y-68269668D01*
X184725463Y-68146418D01*
X184993252Y-67967487D01*
X185220987Y-67739752D01*
X185399918Y-67471963D01*
X185523168Y-67174412D01*
X185586000Y-66858533D01*
X185586000Y-66536467D01*
X185523168Y-66220588D01*
X185517177Y-66206124D01*
X185962998Y-65760303D01*
X185992002Y-65736500D01*
X186086975Y-65620775D01*
X186157547Y-65488746D01*
X186201004Y-65345485D01*
X186212001Y-65233832D01*
X186212001Y-65233822D01*
X186215677Y-65196499D01*
X186212001Y-65159176D01*
X186212001Y-60161444D01*
X186245966Y-60179599D01*
X186525889Y-60264513D01*
X186744050Y-60286000D01*
X186889950Y-60286000D01*
X187108111Y-60264513D01*
X187388034Y-60179599D01*
X187646014Y-60041706D01*
X187872134Y-59856134D01*
X188057706Y-59630014D01*
X188092201Y-59565477D01*
X188161822Y-59682355D01*
X188356731Y-59898588D01*
X188590080Y-60072641D01*
X188852901Y-60197825D01*
X189000110Y-60242476D01*
X189230000Y-60121155D01*
X189230000Y-58928000D01*
X189210000Y-58928000D01*
X189210000Y-58674000D01*
X189230000Y-58674000D01*
X189230000Y-58654000D01*
X189484000Y-58654000D01*
X189484000Y-58674000D01*
X189484000Y-58674000D01*
G37*
X189484000Y-58674000D02*
X189504000Y-58674000D01*
X189504000Y-58928000D01*
X189484000Y-58928000D01*
X189484000Y-60121155D01*
X189713890Y-60242476D01*
X189861099Y-60197825D01*
X190123920Y-60072641D01*
X190357269Y-59898588D01*
X190552178Y-59682355D01*
X190621799Y-59565477D01*
X190656294Y-59630014D01*
X190841866Y-59856134D01*
X191067986Y-60041706D01*
X191325966Y-60179599D01*
X191327501Y-60180065D01*
X191327500Y-68692091D01*
X191204614Y-68774201D01*
X191011701Y-68967114D01*
X190933945Y-69083483D01*
X190923312Y-68975518D01*
X190887002Y-68855820D01*
X190828037Y-68745506D01*
X190748685Y-68648815D01*
X190651994Y-68569463D01*
X190541680Y-68510498D01*
X190421982Y-68474188D01*
X190297500Y-68461928D01*
X188797500Y-68461928D01*
X188673018Y-68474188D01*
X188553320Y-68510498D01*
X188443006Y-68569463D01*
X188346315Y-68648815D01*
X188266963Y-68745506D01*
X188207998Y-68855820D01*
X188171688Y-68975518D01*
X188162875Y-69065000D01*
X182818623Y-69065000D01*
X182780067Y-69061203D01*
X182741511Y-69065000D01*
X182741506Y-69065000D01*
X182701093Y-69068980D01*
X182626180Y-69076358D01*
X182478207Y-69121246D01*
X182341834Y-69194138D01*
X182222303Y-69292236D01*
X182197720Y-69322190D01*
X180236000Y-71283910D01*
X180236000Y-68139377D01*
X180493252Y-67967487D01*
X180720987Y-67739752D01*
X180899918Y-67471963D01*
X181023168Y-67174412D01*
X181086000Y-66858533D01*
X181086000Y-66536467D01*
X181023168Y-66220588D01*
X180899918Y-65923037D01*
X180720987Y-65655248D01*
X180493252Y-65427513D01*
X180225463Y-65248582D01*
X179982000Y-65147736D01*
X179982000Y-60289072D01*
X180047000Y-60289072D01*
X180171482Y-60276812D01*
X180291180Y-60240502D01*
X180401494Y-60181537D01*
X180498185Y-60102185D01*
X180577537Y-60005494D01*
X180636502Y-59895180D01*
X180657393Y-59826313D01*
X180681866Y-59856134D01*
X180907986Y-60041706D01*
X181165966Y-60179599D01*
X181445889Y-60264513D01*
X181664050Y-60286000D01*
X181809950Y-60286000D01*
X182028111Y-60264513D01*
X182308034Y-60179599D01*
X182566014Y-60041706D01*
X182792134Y-59856134D01*
X182977706Y-59630014D01*
X183007000Y-59575209D01*
X183036294Y-59630014D01*
X183221866Y-59856134D01*
X183447986Y-60041706D01*
X183705966Y-60179599D01*
X183985889Y-60264513D01*
X184204050Y-60286000D01*
X184349950Y-60286000D01*
X184568111Y-60264513D01*
X184692001Y-60226931D01*
X184692002Y-64881697D01*
X184442376Y-65131323D01*
X184427912Y-65125332D01*
X184112033Y-65062500D01*
X183789967Y-65062500D01*
X183474088Y-65125332D01*
X183176537Y-65248582D01*
X182908748Y-65427513D01*
X182681013Y-65655248D01*
X182502082Y-65923037D01*
X182378832Y-66220588D01*
X182316000Y-66536467D01*
X182316000Y-66858533D01*
X182378832Y-67174412D01*
X182502082Y-67471963D01*
X182681013Y-67739752D01*
X182908748Y-67967487D01*
X183176537Y-68146418D01*
X183474088Y-68269668D01*
X183789967Y-68332500D01*
X184112033Y-68332500D01*
X184427912Y-68269668D01*
X184725463Y-68146418D01*
X184993252Y-67967487D01*
X185220987Y-67739752D01*
X185399918Y-67471963D01*
X185523168Y-67174412D01*
X185586000Y-66858533D01*
X185586000Y-66536467D01*
X185523168Y-66220588D01*
X185517177Y-66206124D01*
X185962998Y-65760303D01*
X185992002Y-65736500D01*
X186086975Y-65620775D01*
X186157547Y-65488746D01*
X186201004Y-65345485D01*
X186212001Y-65233832D01*
X186212001Y-65233822D01*
X186215677Y-65196499D01*
X186212001Y-65159176D01*
X186212001Y-60161444D01*
X186245966Y-60179599D01*
X186525889Y-60264513D01*
X186744050Y-60286000D01*
X186889950Y-60286000D01*
X187108111Y-60264513D01*
X187388034Y-60179599D01*
X187646014Y-60041706D01*
X187872134Y-59856134D01*
X188057706Y-59630014D01*
X188092201Y-59565477D01*
X188161822Y-59682355D01*
X188356731Y-59898588D01*
X188590080Y-60072641D01*
X188852901Y-60197825D01*
X189000110Y-60242476D01*
X189230000Y-60121155D01*
X189230000Y-58928000D01*
X189210000Y-58928000D01*
X189210000Y-58674000D01*
X189230000Y-58674000D01*
X189230000Y-58654000D01*
X189484000Y-58654000D01*
X189484000Y-58674000D01*
M02*
