G04 #@! TF.GenerationSoftware,KiCad,Pcbnew,(5.1.2)-1*
G04 #@! TF.CreationDate,2019-04-29T10:05:08+02:00*
G04 #@! TF.ProjectId,RPI FS HAT,52504920-4653-4204-9841-542e6b696361,1*
G04 #@! TF.SameCoordinates,Original*
G04 #@! TF.FileFunction,Soldermask,Bot*
G04 #@! TF.FilePolarity,Negative*
%FSLAX46Y46*%
G04 Gerber Fmt 4.6, Leading zero omitted, Abs format (unit mm)*
G04 Created by KiCad (PCBNEW (5.1.2)-1) date 2019-04-29 10:05:08*
%MOMM*%
%LPD*%
G04 APERTURE LIST*
%ADD10C,0.100000*%
G04 APERTURE END LIST*
D10*
G36*
X184257564Y-72186889D02*
G01*
X184448833Y-72266115D01*
X184448835Y-72266116D01*
X184620973Y-72381135D01*
X184767365Y-72527527D01*
X184882385Y-72699667D01*
X184961611Y-72890936D01*
X185002000Y-73093984D01*
X185002000Y-73301016D01*
X184961611Y-73504064D01*
X184882385Y-73695333D01*
X184882384Y-73695335D01*
X184767365Y-73867473D01*
X184620973Y-74013865D01*
X184448835Y-74128884D01*
X184448834Y-74128885D01*
X184448833Y-74128885D01*
X184257564Y-74208111D01*
X184054516Y-74248500D01*
X183847484Y-74248500D01*
X183644436Y-74208111D01*
X183453167Y-74128885D01*
X183453166Y-74128885D01*
X183453165Y-74128884D01*
X183281027Y-74013865D01*
X183134635Y-73867473D01*
X183019616Y-73695335D01*
X183019615Y-73695333D01*
X182940389Y-73504064D01*
X182900000Y-73301016D01*
X182900000Y-73093984D01*
X182940389Y-72890936D01*
X183019615Y-72699667D01*
X183134635Y-72527527D01*
X183281027Y-72381135D01*
X183453165Y-72266116D01*
X183453167Y-72266115D01*
X183644436Y-72186889D01*
X183847484Y-72146500D01*
X184054516Y-72146500D01*
X184257564Y-72186889D01*
X184257564Y-72186889D01*
G37*
G36*
X179757564Y-72186889D02*
G01*
X179948833Y-72266115D01*
X179948835Y-72266116D01*
X180120973Y-72381135D01*
X180267365Y-72527527D01*
X180382385Y-72699667D01*
X180461611Y-72890936D01*
X180502000Y-73093984D01*
X180502000Y-73301016D01*
X180461611Y-73504064D01*
X180382385Y-73695333D01*
X180382384Y-73695335D01*
X180267365Y-73867473D01*
X180120973Y-74013865D01*
X179948835Y-74128884D01*
X179948834Y-74128885D01*
X179948833Y-74128885D01*
X179757564Y-74208111D01*
X179554516Y-74248500D01*
X179347484Y-74248500D01*
X179144436Y-74208111D01*
X178953167Y-74128885D01*
X178953166Y-74128885D01*
X178953165Y-74128884D01*
X178781027Y-74013865D01*
X178634635Y-73867473D01*
X178519616Y-73695335D01*
X178519615Y-73695333D01*
X178440389Y-73504064D01*
X178400000Y-73301016D01*
X178400000Y-73093984D01*
X178440389Y-72890936D01*
X178519615Y-72699667D01*
X178634635Y-72527527D01*
X178781027Y-72381135D01*
X178953165Y-72266116D01*
X178953167Y-72266115D01*
X179144436Y-72186889D01*
X179347484Y-72146500D01*
X179554516Y-72146500D01*
X179757564Y-72186889D01*
X179757564Y-72186889D01*
G37*
G36*
X197401142Y-69079781D02*
G01*
X197546914Y-69140162D01*
X197546916Y-69140163D01*
X197678108Y-69227822D01*
X197789678Y-69339392D01*
X197877337Y-69470584D01*
X197877338Y-69470586D01*
X197937719Y-69616358D01*
X197968500Y-69771107D01*
X197968500Y-69928893D01*
X197937719Y-70083642D01*
X197877338Y-70229414D01*
X197877337Y-70229416D01*
X197789678Y-70360608D01*
X197678108Y-70472178D01*
X197546916Y-70559837D01*
X197546915Y-70559838D01*
X197546914Y-70559838D01*
X197401142Y-70620219D01*
X197246393Y-70651000D01*
X197088607Y-70651000D01*
X196933858Y-70620219D01*
X196788086Y-70559838D01*
X196788085Y-70559838D01*
X196788084Y-70559837D01*
X196656892Y-70472178D01*
X196545322Y-70360608D01*
X196457663Y-70229416D01*
X196457662Y-70229414D01*
X196397281Y-70083642D01*
X196366500Y-69928893D01*
X196366500Y-69771107D01*
X196397281Y-69616358D01*
X196457662Y-69470586D01*
X196457663Y-69470584D01*
X196545322Y-69339392D01*
X196656892Y-69227822D01*
X196788084Y-69140163D01*
X196788086Y-69140162D01*
X196933858Y-69079781D01*
X197088607Y-69049000D01*
X197246393Y-69049000D01*
X197401142Y-69079781D01*
X197401142Y-69079781D01*
G37*
G36*
X194861142Y-69079781D02*
G01*
X195006914Y-69140162D01*
X195006916Y-69140163D01*
X195138108Y-69227822D01*
X195249678Y-69339392D01*
X195337337Y-69470584D01*
X195337338Y-69470586D01*
X195397719Y-69616358D01*
X195428500Y-69771107D01*
X195428500Y-69928893D01*
X195397719Y-70083642D01*
X195337338Y-70229414D01*
X195337337Y-70229416D01*
X195249678Y-70360608D01*
X195138108Y-70472178D01*
X195006916Y-70559837D01*
X195006915Y-70559838D01*
X195006914Y-70559838D01*
X194861142Y-70620219D01*
X194706393Y-70651000D01*
X194548607Y-70651000D01*
X194393858Y-70620219D01*
X194248086Y-70559838D01*
X194248085Y-70559838D01*
X194248084Y-70559837D01*
X194116892Y-70472178D01*
X194005322Y-70360608D01*
X193917663Y-70229416D01*
X193917662Y-70229414D01*
X193857281Y-70083642D01*
X193826500Y-69928893D01*
X193826500Y-69771107D01*
X193857281Y-69616358D01*
X193917662Y-69470586D01*
X193917663Y-69470584D01*
X194005322Y-69339392D01*
X194116892Y-69227822D01*
X194248084Y-69140163D01*
X194248086Y-69140162D01*
X194393858Y-69079781D01*
X194548607Y-69049000D01*
X194706393Y-69049000D01*
X194861142Y-69079781D01*
X194861142Y-69079781D01*
G37*
G36*
X192321142Y-69079781D02*
G01*
X192466914Y-69140162D01*
X192466916Y-69140163D01*
X192598108Y-69227822D01*
X192709678Y-69339392D01*
X192797337Y-69470584D01*
X192797338Y-69470586D01*
X192857719Y-69616358D01*
X192888500Y-69771107D01*
X192888500Y-69928893D01*
X192857719Y-70083642D01*
X192797338Y-70229414D01*
X192797337Y-70229416D01*
X192709678Y-70360608D01*
X192598108Y-70472178D01*
X192466916Y-70559837D01*
X192466915Y-70559838D01*
X192466914Y-70559838D01*
X192321142Y-70620219D01*
X192166393Y-70651000D01*
X192008607Y-70651000D01*
X191853858Y-70620219D01*
X191708086Y-70559838D01*
X191708085Y-70559838D01*
X191708084Y-70559837D01*
X191576892Y-70472178D01*
X191465322Y-70360608D01*
X191377663Y-70229416D01*
X191377662Y-70229414D01*
X191317281Y-70083642D01*
X191286500Y-69928893D01*
X191286500Y-69771107D01*
X191317281Y-69616358D01*
X191377662Y-69470586D01*
X191377663Y-69470584D01*
X191465322Y-69339392D01*
X191576892Y-69227822D01*
X191708084Y-69140163D01*
X191708086Y-69140162D01*
X191853858Y-69079781D01*
X192008607Y-69049000D01*
X192166393Y-69049000D01*
X192321142Y-69079781D01*
X192321142Y-69079781D01*
G37*
G36*
X190348500Y-70651000D02*
G01*
X188746500Y-70651000D01*
X188746500Y-69049000D01*
X190348500Y-69049000D01*
X190348500Y-70651000D01*
X190348500Y-70651000D01*
G37*
G36*
X179757564Y-65686889D02*
G01*
X179948833Y-65766115D01*
X179948835Y-65766116D01*
X180120973Y-65881135D01*
X180267365Y-66027527D01*
X180382385Y-66199667D01*
X180461611Y-66390936D01*
X180502000Y-66593984D01*
X180502000Y-66801016D01*
X180461611Y-67004064D01*
X180382385Y-67195333D01*
X180382384Y-67195335D01*
X180267365Y-67367473D01*
X180120973Y-67513865D01*
X179948835Y-67628884D01*
X179948834Y-67628885D01*
X179948833Y-67628885D01*
X179757564Y-67708111D01*
X179554516Y-67748500D01*
X179347484Y-67748500D01*
X179144436Y-67708111D01*
X178953167Y-67628885D01*
X178953166Y-67628885D01*
X178953165Y-67628884D01*
X178781027Y-67513865D01*
X178634635Y-67367473D01*
X178519616Y-67195335D01*
X178519615Y-67195333D01*
X178440389Y-67004064D01*
X178400000Y-66801016D01*
X178400000Y-66593984D01*
X178440389Y-66390936D01*
X178519615Y-66199667D01*
X178634635Y-66027527D01*
X178781027Y-65881135D01*
X178953165Y-65766116D01*
X178953167Y-65766115D01*
X179144436Y-65686889D01*
X179347484Y-65646500D01*
X179554516Y-65646500D01*
X179757564Y-65686889D01*
X179757564Y-65686889D01*
G37*
G36*
X184257564Y-65686889D02*
G01*
X184448833Y-65766115D01*
X184448835Y-65766116D01*
X184620973Y-65881135D01*
X184767365Y-66027527D01*
X184882385Y-66199667D01*
X184961611Y-66390936D01*
X185002000Y-66593984D01*
X185002000Y-66801016D01*
X184961611Y-67004064D01*
X184882385Y-67195333D01*
X184882384Y-67195335D01*
X184767365Y-67367473D01*
X184620973Y-67513865D01*
X184448835Y-67628884D01*
X184448834Y-67628885D01*
X184448833Y-67628885D01*
X184257564Y-67708111D01*
X184054516Y-67748500D01*
X183847484Y-67748500D01*
X183644436Y-67708111D01*
X183453167Y-67628885D01*
X183453166Y-67628885D01*
X183453165Y-67628884D01*
X183281027Y-67513865D01*
X183134635Y-67367473D01*
X183019616Y-67195335D01*
X183019615Y-67195333D01*
X182940389Y-67004064D01*
X182900000Y-66801016D01*
X182900000Y-66593984D01*
X182940389Y-66390936D01*
X183019615Y-66199667D01*
X183134635Y-66027527D01*
X183281027Y-65881135D01*
X183453165Y-65766116D01*
X183453167Y-65766115D01*
X183644436Y-65686889D01*
X183847484Y-65646500D01*
X184054516Y-65646500D01*
X184257564Y-65686889D01*
X184257564Y-65686889D01*
G37*
G36*
X189467443Y-57906519D02*
G01*
X189533627Y-57913037D01*
X189703466Y-57964557D01*
X189859991Y-58048222D01*
X189895729Y-58077552D01*
X189997186Y-58160814D01*
X190080448Y-58262271D01*
X190109778Y-58298009D01*
X190193443Y-58454534D01*
X190244963Y-58624373D01*
X190262359Y-58801000D01*
X190244963Y-58977627D01*
X190193443Y-59147466D01*
X190109778Y-59303991D01*
X190080448Y-59339729D01*
X189997186Y-59441186D01*
X189895729Y-59524448D01*
X189859991Y-59553778D01*
X189703466Y-59637443D01*
X189533627Y-59688963D01*
X189467443Y-59695481D01*
X189401260Y-59702000D01*
X189312740Y-59702000D01*
X189246557Y-59695481D01*
X189180373Y-59688963D01*
X189010534Y-59637443D01*
X188854009Y-59553778D01*
X188818271Y-59524448D01*
X188716814Y-59441186D01*
X188633552Y-59339729D01*
X188604222Y-59303991D01*
X188520557Y-59147466D01*
X188469037Y-58977627D01*
X188451641Y-58801000D01*
X188469037Y-58624373D01*
X188520557Y-58454534D01*
X188604222Y-58298009D01*
X188633552Y-58262271D01*
X188716814Y-58160814D01*
X188818271Y-58077552D01*
X188854009Y-58048222D01*
X189010534Y-57964557D01*
X189180373Y-57913037D01*
X189246557Y-57906519D01*
X189312740Y-57900000D01*
X189401260Y-57900000D01*
X189467443Y-57906519D01*
X189467443Y-57906519D01*
G37*
G36*
X180098000Y-59702000D02*
G01*
X178296000Y-59702000D01*
X178296000Y-57900000D01*
X180098000Y-57900000D01*
X180098000Y-59702000D01*
X180098000Y-59702000D01*
G37*
G36*
X181847443Y-57906519D02*
G01*
X181913627Y-57913037D01*
X182083466Y-57964557D01*
X182239991Y-58048222D01*
X182275729Y-58077552D01*
X182377186Y-58160814D01*
X182460448Y-58262271D01*
X182489778Y-58298009D01*
X182573443Y-58454534D01*
X182624963Y-58624373D01*
X182642359Y-58801000D01*
X182624963Y-58977627D01*
X182573443Y-59147466D01*
X182489778Y-59303991D01*
X182460448Y-59339729D01*
X182377186Y-59441186D01*
X182275729Y-59524448D01*
X182239991Y-59553778D01*
X182083466Y-59637443D01*
X181913627Y-59688963D01*
X181847443Y-59695481D01*
X181781260Y-59702000D01*
X181692740Y-59702000D01*
X181626557Y-59695481D01*
X181560373Y-59688963D01*
X181390534Y-59637443D01*
X181234009Y-59553778D01*
X181198271Y-59524448D01*
X181096814Y-59441186D01*
X181013552Y-59339729D01*
X180984222Y-59303991D01*
X180900557Y-59147466D01*
X180849037Y-58977627D01*
X180831641Y-58801000D01*
X180849037Y-58624373D01*
X180900557Y-58454534D01*
X180984222Y-58298009D01*
X181013552Y-58262271D01*
X181096814Y-58160814D01*
X181198271Y-58077552D01*
X181234009Y-58048222D01*
X181390534Y-57964557D01*
X181560373Y-57913037D01*
X181626557Y-57906519D01*
X181692740Y-57900000D01*
X181781260Y-57900000D01*
X181847443Y-57906519D01*
X181847443Y-57906519D01*
G37*
G36*
X186927443Y-57906519D02*
G01*
X186993627Y-57913037D01*
X187163466Y-57964557D01*
X187319991Y-58048222D01*
X187355729Y-58077552D01*
X187457186Y-58160814D01*
X187540448Y-58262271D01*
X187569778Y-58298009D01*
X187653443Y-58454534D01*
X187704963Y-58624373D01*
X187722359Y-58801000D01*
X187704963Y-58977627D01*
X187653443Y-59147466D01*
X187569778Y-59303991D01*
X187540448Y-59339729D01*
X187457186Y-59441186D01*
X187355729Y-59524448D01*
X187319991Y-59553778D01*
X187163466Y-59637443D01*
X186993627Y-59688963D01*
X186927443Y-59695481D01*
X186861260Y-59702000D01*
X186772740Y-59702000D01*
X186706557Y-59695481D01*
X186640373Y-59688963D01*
X186470534Y-59637443D01*
X186314009Y-59553778D01*
X186278271Y-59524448D01*
X186176814Y-59441186D01*
X186093552Y-59339729D01*
X186064222Y-59303991D01*
X185980557Y-59147466D01*
X185929037Y-58977627D01*
X185911641Y-58801000D01*
X185929037Y-58624373D01*
X185980557Y-58454534D01*
X186064222Y-58298009D01*
X186093552Y-58262271D01*
X186176814Y-58160814D01*
X186278271Y-58077552D01*
X186314009Y-58048222D01*
X186470534Y-57964557D01*
X186640373Y-57913037D01*
X186706557Y-57906519D01*
X186772740Y-57900000D01*
X186861260Y-57900000D01*
X186927443Y-57906519D01*
X186927443Y-57906519D01*
G37*
G36*
X192007443Y-57906519D02*
G01*
X192073627Y-57913037D01*
X192243466Y-57964557D01*
X192399991Y-58048222D01*
X192435729Y-58077552D01*
X192537186Y-58160814D01*
X192620448Y-58262271D01*
X192649778Y-58298009D01*
X192733443Y-58454534D01*
X192784963Y-58624373D01*
X192802359Y-58801000D01*
X192784963Y-58977627D01*
X192733443Y-59147466D01*
X192649778Y-59303991D01*
X192620448Y-59339729D01*
X192537186Y-59441186D01*
X192435729Y-59524448D01*
X192399991Y-59553778D01*
X192243466Y-59637443D01*
X192073627Y-59688963D01*
X192007443Y-59695481D01*
X191941260Y-59702000D01*
X191852740Y-59702000D01*
X191786557Y-59695481D01*
X191720373Y-59688963D01*
X191550534Y-59637443D01*
X191394009Y-59553778D01*
X191358271Y-59524448D01*
X191256814Y-59441186D01*
X191173552Y-59339729D01*
X191144222Y-59303991D01*
X191060557Y-59147466D01*
X191009037Y-58977627D01*
X190991641Y-58801000D01*
X191009037Y-58624373D01*
X191060557Y-58454534D01*
X191144222Y-58298009D01*
X191173552Y-58262271D01*
X191256814Y-58160814D01*
X191358271Y-58077552D01*
X191394009Y-58048222D01*
X191550534Y-57964557D01*
X191720373Y-57913037D01*
X191786557Y-57906519D01*
X191852740Y-57900000D01*
X191941260Y-57900000D01*
X192007443Y-57906519D01*
X192007443Y-57906519D01*
G37*
G36*
X194547443Y-57906519D02*
G01*
X194613627Y-57913037D01*
X194783466Y-57964557D01*
X194939991Y-58048222D01*
X194975729Y-58077552D01*
X195077186Y-58160814D01*
X195160448Y-58262271D01*
X195189778Y-58298009D01*
X195273443Y-58454534D01*
X195324963Y-58624373D01*
X195342359Y-58801000D01*
X195324963Y-58977627D01*
X195273443Y-59147466D01*
X195189778Y-59303991D01*
X195160448Y-59339729D01*
X195077186Y-59441186D01*
X194975729Y-59524448D01*
X194939991Y-59553778D01*
X194783466Y-59637443D01*
X194613627Y-59688963D01*
X194547443Y-59695481D01*
X194481260Y-59702000D01*
X194392740Y-59702000D01*
X194326557Y-59695481D01*
X194260373Y-59688963D01*
X194090534Y-59637443D01*
X193934009Y-59553778D01*
X193898271Y-59524448D01*
X193796814Y-59441186D01*
X193713552Y-59339729D01*
X193684222Y-59303991D01*
X193600557Y-59147466D01*
X193549037Y-58977627D01*
X193531641Y-58801000D01*
X193549037Y-58624373D01*
X193600557Y-58454534D01*
X193684222Y-58298009D01*
X193713552Y-58262271D01*
X193796814Y-58160814D01*
X193898271Y-58077552D01*
X193934009Y-58048222D01*
X194090534Y-57964557D01*
X194260373Y-57913037D01*
X194326557Y-57906519D01*
X194392740Y-57900000D01*
X194481260Y-57900000D01*
X194547443Y-57906519D01*
X194547443Y-57906519D01*
G37*
G36*
X197087443Y-57906519D02*
G01*
X197153627Y-57913037D01*
X197323466Y-57964557D01*
X197479991Y-58048222D01*
X197515729Y-58077552D01*
X197617186Y-58160814D01*
X197700448Y-58262271D01*
X197729778Y-58298009D01*
X197813443Y-58454534D01*
X197864963Y-58624373D01*
X197882359Y-58801000D01*
X197864963Y-58977627D01*
X197813443Y-59147466D01*
X197729778Y-59303991D01*
X197700448Y-59339729D01*
X197617186Y-59441186D01*
X197515729Y-59524448D01*
X197479991Y-59553778D01*
X197323466Y-59637443D01*
X197153627Y-59688963D01*
X197087443Y-59695481D01*
X197021260Y-59702000D01*
X196932740Y-59702000D01*
X196866557Y-59695481D01*
X196800373Y-59688963D01*
X196630534Y-59637443D01*
X196474009Y-59553778D01*
X196438271Y-59524448D01*
X196336814Y-59441186D01*
X196253552Y-59339729D01*
X196224222Y-59303991D01*
X196140557Y-59147466D01*
X196089037Y-58977627D01*
X196071641Y-58801000D01*
X196089037Y-58624373D01*
X196140557Y-58454534D01*
X196224222Y-58298009D01*
X196253552Y-58262271D01*
X196336814Y-58160814D01*
X196438271Y-58077552D01*
X196474009Y-58048222D01*
X196630534Y-57964557D01*
X196800373Y-57913037D01*
X196866557Y-57906519D01*
X196932740Y-57900000D01*
X197021260Y-57900000D01*
X197087443Y-57906519D01*
X197087443Y-57906519D01*
G37*
G36*
X184387443Y-57906519D02*
G01*
X184453627Y-57913037D01*
X184623466Y-57964557D01*
X184779991Y-58048222D01*
X184815729Y-58077552D01*
X184917186Y-58160814D01*
X185000448Y-58262271D01*
X185029778Y-58298009D01*
X185113443Y-58454534D01*
X185164963Y-58624373D01*
X185182359Y-58801000D01*
X185164963Y-58977627D01*
X185113443Y-59147466D01*
X185029778Y-59303991D01*
X185000448Y-59339729D01*
X184917186Y-59441186D01*
X184815729Y-59524448D01*
X184779991Y-59553778D01*
X184623466Y-59637443D01*
X184453627Y-59688963D01*
X184387443Y-59695481D01*
X184321260Y-59702000D01*
X184232740Y-59702000D01*
X184166557Y-59695481D01*
X184100373Y-59688963D01*
X183930534Y-59637443D01*
X183774009Y-59553778D01*
X183738271Y-59524448D01*
X183636814Y-59441186D01*
X183553552Y-59339729D01*
X183524222Y-59303991D01*
X183440557Y-59147466D01*
X183389037Y-58977627D01*
X183371641Y-58801000D01*
X183389037Y-58624373D01*
X183440557Y-58454534D01*
X183524222Y-58298009D01*
X183553552Y-58262271D01*
X183636814Y-58160814D01*
X183738271Y-58077552D01*
X183774009Y-58048222D01*
X183930534Y-57964557D01*
X184100373Y-57913037D01*
X184166557Y-57906519D01*
X184232740Y-57900000D01*
X184321260Y-57900000D01*
X184387443Y-57906519D01*
X184387443Y-57906519D01*
G37*
G36*
X192007442Y-55366518D02*
G01*
X192073627Y-55373037D01*
X192243466Y-55424557D01*
X192399991Y-55508222D01*
X192435729Y-55537552D01*
X192537186Y-55620814D01*
X192620448Y-55722271D01*
X192649778Y-55758009D01*
X192733443Y-55914534D01*
X192784963Y-56084373D01*
X192802359Y-56261000D01*
X192784963Y-56437627D01*
X192733443Y-56607466D01*
X192649778Y-56763991D01*
X192620448Y-56799729D01*
X192537186Y-56901186D01*
X192435729Y-56984448D01*
X192399991Y-57013778D01*
X192243466Y-57097443D01*
X192073627Y-57148963D01*
X192007443Y-57155481D01*
X191941260Y-57162000D01*
X191852740Y-57162000D01*
X191786557Y-57155481D01*
X191720373Y-57148963D01*
X191550534Y-57097443D01*
X191394009Y-57013778D01*
X191358271Y-56984448D01*
X191256814Y-56901186D01*
X191173552Y-56799729D01*
X191144222Y-56763991D01*
X191060557Y-56607466D01*
X191009037Y-56437627D01*
X190991641Y-56261000D01*
X191009037Y-56084373D01*
X191060557Y-55914534D01*
X191144222Y-55758009D01*
X191173552Y-55722271D01*
X191256814Y-55620814D01*
X191358271Y-55537552D01*
X191394009Y-55508222D01*
X191550534Y-55424557D01*
X191720373Y-55373037D01*
X191786558Y-55366518D01*
X191852740Y-55360000D01*
X191941260Y-55360000D01*
X192007442Y-55366518D01*
X192007442Y-55366518D01*
G37*
G36*
X197087442Y-55366518D02*
G01*
X197153627Y-55373037D01*
X197323466Y-55424557D01*
X197479991Y-55508222D01*
X197515729Y-55537552D01*
X197617186Y-55620814D01*
X197700448Y-55722271D01*
X197729778Y-55758009D01*
X197813443Y-55914534D01*
X197864963Y-56084373D01*
X197882359Y-56261000D01*
X197864963Y-56437627D01*
X197813443Y-56607466D01*
X197729778Y-56763991D01*
X197700448Y-56799729D01*
X197617186Y-56901186D01*
X197515729Y-56984448D01*
X197479991Y-57013778D01*
X197323466Y-57097443D01*
X197153627Y-57148963D01*
X197087443Y-57155481D01*
X197021260Y-57162000D01*
X196932740Y-57162000D01*
X196866557Y-57155481D01*
X196800373Y-57148963D01*
X196630534Y-57097443D01*
X196474009Y-57013778D01*
X196438271Y-56984448D01*
X196336814Y-56901186D01*
X196253552Y-56799729D01*
X196224222Y-56763991D01*
X196140557Y-56607466D01*
X196089037Y-56437627D01*
X196071641Y-56261000D01*
X196089037Y-56084373D01*
X196140557Y-55914534D01*
X196224222Y-55758009D01*
X196253552Y-55722271D01*
X196336814Y-55620814D01*
X196438271Y-55537552D01*
X196474009Y-55508222D01*
X196630534Y-55424557D01*
X196800373Y-55373037D01*
X196866558Y-55366518D01*
X196932740Y-55360000D01*
X197021260Y-55360000D01*
X197087442Y-55366518D01*
X197087442Y-55366518D01*
G37*
G36*
X194547442Y-55366518D02*
G01*
X194613627Y-55373037D01*
X194783466Y-55424557D01*
X194939991Y-55508222D01*
X194975729Y-55537552D01*
X195077186Y-55620814D01*
X195160448Y-55722271D01*
X195189778Y-55758009D01*
X195273443Y-55914534D01*
X195324963Y-56084373D01*
X195342359Y-56261000D01*
X195324963Y-56437627D01*
X195273443Y-56607466D01*
X195189778Y-56763991D01*
X195160448Y-56799729D01*
X195077186Y-56901186D01*
X194975729Y-56984448D01*
X194939991Y-57013778D01*
X194783466Y-57097443D01*
X194613627Y-57148963D01*
X194547443Y-57155481D01*
X194481260Y-57162000D01*
X194392740Y-57162000D01*
X194326557Y-57155481D01*
X194260373Y-57148963D01*
X194090534Y-57097443D01*
X193934009Y-57013778D01*
X193898271Y-56984448D01*
X193796814Y-56901186D01*
X193713552Y-56799729D01*
X193684222Y-56763991D01*
X193600557Y-56607466D01*
X193549037Y-56437627D01*
X193531641Y-56261000D01*
X193549037Y-56084373D01*
X193600557Y-55914534D01*
X193684222Y-55758009D01*
X193713552Y-55722271D01*
X193796814Y-55620814D01*
X193898271Y-55537552D01*
X193934009Y-55508222D01*
X194090534Y-55424557D01*
X194260373Y-55373037D01*
X194326558Y-55366518D01*
X194392740Y-55360000D01*
X194481260Y-55360000D01*
X194547442Y-55366518D01*
X194547442Y-55366518D01*
G37*
G36*
X189467442Y-55366518D02*
G01*
X189533627Y-55373037D01*
X189703466Y-55424557D01*
X189859991Y-55508222D01*
X189895729Y-55537552D01*
X189997186Y-55620814D01*
X190080448Y-55722271D01*
X190109778Y-55758009D01*
X190193443Y-55914534D01*
X190244963Y-56084373D01*
X190262359Y-56261000D01*
X190244963Y-56437627D01*
X190193443Y-56607466D01*
X190109778Y-56763991D01*
X190080448Y-56799729D01*
X189997186Y-56901186D01*
X189895729Y-56984448D01*
X189859991Y-57013778D01*
X189703466Y-57097443D01*
X189533627Y-57148963D01*
X189467443Y-57155481D01*
X189401260Y-57162000D01*
X189312740Y-57162000D01*
X189246557Y-57155481D01*
X189180373Y-57148963D01*
X189010534Y-57097443D01*
X188854009Y-57013778D01*
X188818271Y-56984448D01*
X188716814Y-56901186D01*
X188633552Y-56799729D01*
X188604222Y-56763991D01*
X188520557Y-56607466D01*
X188469037Y-56437627D01*
X188451641Y-56261000D01*
X188469037Y-56084373D01*
X188520557Y-55914534D01*
X188604222Y-55758009D01*
X188633552Y-55722271D01*
X188716814Y-55620814D01*
X188818271Y-55537552D01*
X188854009Y-55508222D01*
X189010534Y-55424557D01*
X189180373Y-55373037D01*
X189246558Y-55366518D01*
X189312740Y-55360000D01*
X189401260Y-55360000D01*
X189467442Y-55366518D01*
X189467442Y-55366518D01*
G37*
G36*
X186927442Y-55366518D02*
G01*
X186993627Y-55373037D01*
X187163466Y-55424557D01*
X187319991Y-55508222D01*
X187355729Y-55537552D01*
X187457186Y-55620814D01*
X187540448Y-55722271D01*
X187569778Y-55758009D01*
X187653443Y-55914534D01*
X187704963Y-56084373D01*
X187722359Y-56261000D01*
X187704963Y-56437627D01*
X187653443Y-56607466D01*
X187569778Y-56763991D01*
X187540448Y-56799729D01*
X187457186Y-56901186D01*
X187355729Y-56984448D01*
X187319991Y-57013778D01*
X187163466Y-57097443D01*
X186993627Y-57148963D01*
X186927443Y-57155481D01*
X186861260Y-57162000D01*
X186772740Y-57162000D01*
X186706557Y-57155481D01*
X186640373Y-57148963D01*
X186470534Y-57097443D01*
X186314009Y-57013778D01*
X186278271Y-56984448D01*
X186176814Y-56901186D01*
X186093552Y-56799729D01*
X186064222Y-56763991D01*
X185980557Y-56607466D01*
X185929037Y-56437627D01*
X185911641Y-56261000D01*
X185929037Y-56084373D01*
X185980557Y-55914534D01*
X186064222Y-55758009D01*
X186093552Y-55722271D01*
X186176814Y-55620814D01*
X186278271Y-55537552D01*
X186314009Y-55508222D01*
X186470534Y-55424557D01*
X186640373Y-55373037D01*
X186706558Y-55366518D01*
X186772740Y-55360000D01*
X186861260Y-55360000D01*
X186927442Y-55366518D01*
X186927442Y-55366518D01*
G37*
G36*
X184387442Y-55366518D02*
G01*
X184453627Y-55373037D01*
X184623466Y-55424557D01*
X184779991Y-55508222D01*
X184815729Y-55537552D01*
X184917186Y-55620814D01*
X185000448Y-55722271D01*
X185029778Y-55758009D01*
X185113443Y-55914534D01*
X185164963Y-56084373D01*
X185182359Y-56261000D01*
X185164963Y-56437627D01*
X185113443Y-56607466D01*
X185029778Y-56763991D01*
X185000448Y-56799729D01*
X184917186Y-56901186D01*
X184815729Y-56984448D01*
X184779991Y-57013778D01*
X184623466Y-57097443D01*
X184453627Y-57148963D01*
X184387443Y-57155481D01*
X184321260Y-57162000D01*
X184232740Y-57162000D01*
X184166557Y-57155481D01*
X184100373Y-57148963D01*
X183930534Y-57097443D01*
X183774009Y-57013778D01*
X183738271Y-56984448D01*
X183636814Y-56901186D01*
X183553552Y-56799729D01*
X183524222Y-56763991D01*
X183440557Y-56607466D01*
X183389037Y-56437627D01*
X183371641Y-56261000D01*
X183389037Y-56084373D01*
X183440557Y-55914534D01*
X183524222Y-55758009D01*
X183553552Y-55722271D01*
X183636814Y-55620814D01*
X183738271Y-55537552D01*
X183774009Y-55508222D01*
X183930534Y-55424557D01*
X184100373Y-55373037D01*
X184166558Y-55366518D01*
X184232740Y-55360000D01*
X184321260Y-55360000D01*
X184387442Y-55366518D01*
X184387442Y-55366518D01*
G37*
G36*
X181847442Y-55366518D02*
G01*
X181913627Y-55373037D01*
X182083466Y-55424557D01*
X182239991Y-55508222D01*
X182275729Y-55537552D01*
X182377186Y-55620814D01*
X182460448Y-55722271D01*
X182489778Y-55758009D01*
X182573443Y-55914534D01*
X182624963Y-56084373D01*
X182642359Y-56261000D01*
X182624963Y-56437627D01*
X182573443Y-56607466D01*
X182489778Y-56763991D01*
X182460448Y-56799729D01*
X182377186Y-56901186D01*
X182275729Y-56984448D01*
X182239991Y-57013778D01*
X182083466Y-57097443D01*
X181913627Y-57148963D01*
X181847443Y-57155481D01*
X181781260Y-57162000D01*
X181692740Y-57162000D01*
X181626557Y-57155481D01*
X181560373Y-57148963D01*
X181390534Y-57097443D01*
X181234009Y-57013778D01*
X181198271Y-56984448D01*
X181096814Y-56901186D01*
X181013552Y-56799729D01*
X180984222Y-56763991D01*
X180900557Y-56607466D01*
X180849037Y-56437627D01*
X180831641Y-56261000D01*
X180849037Y-56084373D01*
X180900557Y-55914534D01*
X180984222Y-55758009D01*
X181013552Y-55722271D01*
X181096814Y-55620814D01*
X181198271Y-55537552D01*
X181234009Y-55508222D01*
X181390534Y-55424557D01*
X181560373Y-55373037D01*
X181626558Y-55366518D01*
X181692740Y-55360000D01*
X181781260Y-55360000D01*
X181847442Y-55366518D01*
X181847442Y-55366518D01*
G37*
G36*
X179307442Y-55366518D02*
G01*
X179373627Y-55373037D01*
X179543466Y-55424557D01*
X179699991Y-55508222D01*
X179735729Y-55537552D01*
X179837186Y-55620814D01*
X179920448Y-55722271D01*
X179949778Y-55758009D01*
X180033443Y-55914534D01*
X180084963Y-56084373D01*
X180102359Y-56261000D01*
X180084963Y-56437627D01*
X180033443Y-56607466D01*
X179949778Y-56763991D01*
X179920448Y-56799729D01*
X179837186Y-56901186D01*
X179735729Y-56984448D01*
X179699991Y-57013778D01*
X179543466Y-57097443D01*
X179373627Y-57148963D01*
X179307443Y-57155481D01*
X179241260Y-57162000D01*
X179152740Y-57162000D01*
X179086557Y-57155481D01*
X179020373Y-57148963D01*
X178850534Y-57097443D01*
X178694009Y-57013778D01*
X178658271Y-56984448D01*
X178556814Y-56901186D01*
X178473552Y-56799729D01*
X178444222Y-56763991D01*
X178360557Y-56607466D01*
X178309037Y-56437627D01*
X178291641Y-56261000D01*
X178309037Y-56084373D01*
X178360557Y-55914534D01*
X178444222Y-55758009D01*
X178473552Y-55722271D01*
X178556814Y-55620814D01*
X178658271Y-55537552D01*
X178694009Y-55508222D01*
X178850534Y-55424557D01*
X179020373Y-55373037D01*
X179086558Y-55366518D01*
X179152740Y-55360000D01*
X179241260Y-55360000D01*
X179307442Y-55366518D01*
X179307442Y-55366518D01*
G37*
M02*
