M48
; DRILL file {KiCad (5.1.2)-1} date 29.04.2019 10:05:20
; FORMAT={-:-/ absolute / inch / decimal}
; #@! TF.CreationDate,2019-04-29T10:05:20+02:00
; #@! TF.GenerationSoftware,Kicad,Pcbnew,(5.1.2)-1
; #@! TF.FileFunction,Plated,1,2,PTH
FMAT,2
INCH
T1C0.0236
T2C0.0315
T3C0.0394
T4C0.0433
%
G90
G05
T1
X7.4Y-2.4275
T2
X7.4625Y-2.75
X7.5625Y-2.75
X7.6625Y-2.75
X7.7625Y-2.75
T3
X7.055Y-2.215
X7.055Y-2.315
X7.155Y-2.215
X7.155Y-2.315
X7.255Y-2.215
X7.255Y-2.315
X7.355Y-2.215
X7.355Y-2.315
X7.455Y-2.215
X7.455Y-2.315
X7.555Y-2.215
X7.555Y-2.315
X7.655Y-2.215
X7.655Y-2.315
X7.755Y-2.215
X7.755Y-2.315
T4
X7.065Y-2.6259
X7.065Y-2.8818
X7.2422Y-2.6259
X7.2422Y-2.8818
T0
M30
