G04 #@! TF.GenerationSoftware,KiCad,Pcbnew,(5.1.2)-1*
G04 #@! TF.CreationDate,2019-04-29T10:05:08+02:00*
G04 #@! TF.ProjectId,RPI FS HAT,52504920-4653-4204-9841-542e6b696361,1*
G04 #@! TF.SameCoordinates,Original*
G04 #@! TF.FileFunction,Legend,Bot*
G04 #@! TF.FilePolarity,Positive*
%FSLAX46Y46*%
G04 Gerber Fmt 4.6, Leading zero omitted, Abs format (unit mm)*
G04 Created by KiCad (PCBNEW (5.1.2)-1) date 2019-04-29 10:05:08*
%MOMM*%
%LPD*%
G04 APERTURE LIST*
%ADD10C,0.100000*%
%ADD11C,0.120000*%
%ADD12C,0.010000*%
%ADD13C,0.150000*%
G04 APERTURE END LIST*
D10*
X195612857Y-73685428D02*
X195812857Y-73399714D01*
X195955714Y-73685428D02*
X195955714Y-73085428D01*
X195727142Y-73085428D01*
X195670000Y-73114000D01*
X195641428Y-73142571D01*
X195612857Y-73199714D01*
X195612857Y-73285428D01*
X195641428Y-73342571D01*
X195670000Y-73371142D01*
X195727142Y-73399714D01*
X195955714Y-73399714D01*
X195355714Y-73685428D02*
X195355714Y-73085428D01*
X195127142Y-73085428D01*
X195070000Y-73114000D01*
X195041428Y-73142571D01*
X195012857Y-73199714D01*
X195012857Y-73285428D01*
X195041428Y-73342571D01*
X195070000Y-73371142D01*
X195127142Y-73399714D01*
X195355714Y-73399714D01*
X194755714Y-73685428D02*
X194755714Y-73085428D01*
X193812857Y-73371142D02*
X194012857Y-73371142D01*
X194012857Y-73685428D02*
X194012857Y-73085428D01*
X193727142Y-73085428D01*
X193527142Y-73656857D02*
X193441428Y-73685428D01*
X193298571Y-73685428D01*
X193241428Y-73656857D01*
X193212857Y-73628285D01*
X193184285Y-73571142D01*
X193184285Y-73514000D01*
X193212857Y-73456857D01*
X193241428Y-73428285D01*
X193298571Y-73399714D01*
X193412857Y-73371142D01*
X193470000Y-73342571D01*
X193498571Y-73314000D01*
X193527142Y-73256857D01*
X193527142Y-73199714D01*
X193498571Y-73142571D01*
X193470000Y-73114000D01*
X193412857Y-73085428D01*
X193270000Y-73085428D01*
X193184285Y-73114000D01*
X192927142Y-73456857D02*
X192470000Y-73456857D01*
X192184285Y-73685428D02*
X192184285Y-73085428D01*
X192041428Y-73085428D01*
X191955714Y-73114000D01*
X191898571Y-73171142D01*
X191870000Y-73228285D01*
X191841428Y-73342571D01*
X191841428Y-73428285D01*
X191870000Y-73542571D01*
X191898571Y-73599714D01*
X191955714Y-73656857D01*
X192041428Y-73685428D01*
X192184285Y-73685428D01*
X191584285Y-73685428D02*
X191584285Y-73085428D01*
X191584285Y-73371142D02*
X191241428Y-73371142D01*
X191241428Y-73685428D02*
X191241428Y-73085428D01*
X191041428Y-73085428D02*
X190698571Y-73085428D01*
X190870000Y-73685428D02*
X190870000Y-73085428D01*
X190527142Y-73142571D02*
X190498571Y-73114000D01*
X190441428Y-73085428D01*
X190298571Y-73085428D01*
X190241428Y-73114000D01*
X190212857Y-73142571D01*
X190184285Y-73199714D01*
X190184285Y-73256857D01*
X190212857Y-73342571D01*
X190555714Y-73685428D01*
X190184285Y-73685428D01*
X189955714Y-73142571D02*
X189927142Y-73114000D01*
X189870000Y-73085428D01*
X189727142Y-73085428D01*
X189670000Y-73114000D01*
X189641428Y-73142571D01*
X189612857Y-73199714D01*
X189612857Y-73256857D01*
X189641428Y-73342571D01*
X189984285Y-73685428D01*
X189612857Y-73685428D01*
X188898571Y-73685428D02*
X188898571Y-73085428D01*
X188898571Y-73371142D02*
X188555714Y-73371142D01*
X188555714Y-73685428D02*
X188555714Y-73085428D01*
X188298571Y-73514000D02*
X188012857Y-73514000D01*
X188355714Y-73685428D02*
X188155714Y-73085428D01*
X187955714Y-73685428D01*
X187841428Y-73085428D02*
X187498571Y-73085428D01*
X187670000Y-73685428D02*
X187670000Y-73085428D01*
X194284285Y-74085428D02*
X194084285Y-74685428D01*
X193884285Y-74085428D01*
X193455714Y-74656857D02*
X193512857Y-74685428D01*
X193627142Y-74685428D01*
X193684285Y-74656857D01*
X193712857Y-74599714D01*
X193712857Y-74371142D01*
X193684285Y-74314000D01*
X193627142Y-74285428D01*
X193512857Y-74285428D01*
X193455714Y-74314000D01*
X193427142Y-74371142D01*
X193427142Y-74428285D01*
X193712857Y-74485428D01*
X193170000Y-74685428D02*
X193170000Y-74285428D01*
X193170000Y-74399714D02*
X193141428Y-74342571D01*
X193112857Y-74314000D01*
X193055714Y-74285428D01*
X192998571Y-74285428D01*
X192827142Y-74656857D02*
X192770000Y-74685428D01*
X192655714Y-74685428D01*
X192598571Y-74656857D01*
X192570000Y-74599714D01*
X192570000Y-74571142D01*
X192598571Y-74514000D01*
X192655714Y-74485428D01*
X192741428Y-74485428D01*
X192798571Y-74456857D01*
X192827142Y-74399714D01*
X192827142Y-74371142D01*
X192798571Y-74314000D01*
X192741428Y-74285428D01*
X192655714Y-74285428D01*
X192598571Y-74314000D01*
X192312857Y-74685428D02*
X192312857Y-74285428D01*
X192312857Y-74085428D02*
X192341428Y-74114000D01*
X192312857Y-74142571D01*
X192284285Y-74114000D01*
X192312857Y-74085428D01*
X192312857Y-74142571D01*
X191941428Y-74685428D02*
X191998571Y-74656857D01*
X192027142Y-74628285D01*
X192055714Y-74571142D01*
X192055714Y-74399714D01*
X192027142Y-74342571D01*
X191998571Y-74314000D01*
X191941428Y-74285428D01*
X191855714Y-74285428D01*
X191798571Y-74314000D01*
X191770000Y-74342571D01*
X191741428Y-74399714D01*
X191741428Y-74571142D01*
X191770000Y-74628285D01*
X191798571Y-74656857D01*
X191855714Y-74685428D01*
X191941428Y-74685428D01*
X191484285Y-74285428D02*
X191484285Y-74685428D01*
X191484285Y-74342571D02*
X191455714Y-74314000D01*
X191398571Y-74285428D01*
X191312857Y-74285428D01*
X191255714Y-74314000D01*
X191227142Y-74371142D01*
X191227142Y-74685428D01*
X190170000Y-74685428D02*
X190512857Y-74685428D01*
X190341428Y-74685428D02*
X190341428Y-74085428D01*
X190398571Y-74171142D01*
X190455714Y-74228285D01*
X190512857Y-74256857D01*
X189912857Y-74628285D02*
X189884285Y-74656857D01*
X189912857Y-74685428D01*
X189941428Y-74656857D01*
X189912857Y-74628285D01*
X189912857Y-74685428D01*
X189512857Y-74085428D02*
X189455714Y-74085428D01*
X189398571Y-74114000D01*
X189370000Y-74142571D01*
X189341428Y-74199714D01*
X189312857Y-74314000D01*
X189312857Y-74456857D01*
X189341428Y-74571142D01*
X189370000Y-74628285D01*
X189398571Y-74656857D01*
X189455714Y-74685428D01*
X189512857Y-74685428D01*
X189570000Y-74656857D01*
X189598571Y-74628285D01*
X189627142Y-74571142D01*
X189655714Y-74456857D01*
X189655714Y-74314000D01*
X189627142Y-74199714D01*
X189598571Y-74142571D01*
X189570000Y-74114000D01*
X189512857Y-74085428D01*
D11*
X181662571Y-53994071D02*
X181662571Y-54527404D01*
X181853047Y-53689309D02*
X182043523Y-54260738D01*
X181548285Y-54260738D01*
X199235857Y-62503857D02*
X199121571Y-62541952D01*
X199083476Y-62580047D01*
X199045380Y-62656238D01*
X199045380Y-62770523D01*
X199083476Y-62846714D01*
X199121571Y-62884809D01*
X199197761Y-62922904D01*
X199502523Y-62922904D01*
X199502523Y-62122904D01*
X199235857Y-62122904D01*
X199159666Y-62161000D01*
X199121571Y-62199095D01*
X199083476Y-62275285D01*
X199083476Y-62351476D01*
X199121571Y-62427666D01*
X199159666Y-62465761D01*
X199235857Y-62503857D01*
X199502523Y-62503857D01*
X198359666Y-62389571D02*
X198359666Y-62922904D01*
X198702523Y-62389571D02*
X198702523Y-62808619D01*
X198664428Y-62884809D01*
X198588238Y-62922904D01*
X198473952Y-62922904D01*
X198397761Y-62884809D01*
X198359666Y-62846714D01*
X198093000Y-62389571D02*
X197788238Y-62389571D01*
X197978714Y-62122904D02*
X197978714Y-62808619D01*
X197940619Y-62884809D01*
X197864428Y-62922904D01*
X197788238Y-62922904D01*
X197635857Y-62389571D02*
X197331095Y-62389571D01*
X197521571Y-62122904D02*
X197521571Y-62808619D01*
X197483476Y-62884809D01*
X197407285Y-62922904D01*
X197331095Y-62922904D01*
X196950142Y-62922904D02*
X197026333Y-62884809D01*
X197064428Y-62846714D01*
X197102523Y-62770523D01*
X197102523Y-62541952D01*
X197064428Y-62465761D01*
X197026333Y-62427666D01*
X196950142Y-62389571D01*
X196835857Y-62389571D01*
X196759666Y-62427666D01*
X196721571Y-62465761D01*
X196683476Y-62541952D01*
X196683476Y-62770523D01*
X196721571Y-62846714D01*
X196759666Y-62884809D01*
X196835857Y-62922904D01*
X196950142Y-62922904D01*
X196340619Y-62389571D02*
X196340619Y-62922904D01*
X196340619Y-62465761D02*
X196302523Y-62427666D01*
X196226333Y-62389571D01*
X196112047Y-62389571D01*
X196035857Y-62427666D01*
X195997761Y-62503857D01*
X195997761Y-62922904D01*
X195616809Y-62846714D02*
X195578714Y-62884809D01*
X195616809Y-62922904D01*
X195654904Y-62884809D01*
X195616809Y-62846714D01*
X195616809Y-62922904D01*
X195616809Y-62427666D02*
X195578714Y-62465761D01*
X195616809Y-62503857D01*
X195654904Y-62465761D01*
X195616809Y-62427666D01*
X195616809Y-62503857D01*
X194207285Y-62161000D02*
X194283476Y-62122904D01*
X194397761Y-62122904D01*
X194512047Y-62161000D01*
X194588238Y-62237190D01*
X194626333Y-62313380D01*
X194664428Y-62465761D01*
X194664428Y-62580047D01*
X194626333Y-62732428D01*
X194588238Y-62808619D01*
X194512047Y-62884809D01*
X194397761Y-62922904D01*
X194321571Y-62922904D01*
X194207285Y-62884809D01*
X194169190Y-62846714D01*
X194169190Y-62580047D01*
X194321571Y-62580047D01*
X193826333Y-62922904D02*
X193826333Y-62122904D01*
X193521571Y-62122904D01*
X193445380Y-62161000D01*
X193407285Y-62199095D01*
X193369190Y-62275285D01*
X193369190Y-62389571D01*
X193407285Y-62465761D01*
X193445380Y-62503857D01*
X193521571Y-62541952D01*
X193826333Y-62541952D01*
X193026333Y-62922904D02*
X193026333Y-62122904D01*
X192493000Y-62122904D02*
X192340619Y-62122904D01*
X192264428Y-62161000D01*
X192188238Y-62237190D01*
X192150142Y-62389571D01*
X192150142Y-62656238D01*
X192188238Y-62808619D01*
X192264428Y-62884809D01*
X192340619Y-62922904D01*
X192493000Y-62922904D01*
X192569190Y-62884809D01*
X192645380Y-62808619D01*
X192683476Y-62656238D01*
X192683476Y-62389571D01*
X192645380Y-62237190D01*
X192569190Y-62161000D01*
X192493000Y-62122904D01*
X191045380Y-62122904D02*
X190969190Y-62122904D01*
X190893000Y-62161000D01*
X190854904Y-62199095D01*
X190816809Y-62275285D01*
X190778714Y-62427666D01*
X190778714Y-62618142D01*
X190816809Y-62770523D01*
X190854904Y-62846714D01*
X190893000Y-62884809D01*
X190969190Y-62922904D01*
X191045380Y-62922904D01*
X191121571Y-62884809D01*
X191159666Y-62846714D01*
X191197761Y-62770523D01*
X191235857Y-62618142D01*
X191235857Y-62427666D01*
X191197761Y-62275285D01*
X191159666Y-62199095D01*
X191121571Y-62161000D01*
X191045380Y-62122904D01*
X190321571Y-62465761D02*
X190397761Y-62427666D01*
X190435857Y-62389571D01*
X190473952Y-62313380D01*
X190473952Y-62275285D01*
X190435857Y-62199095D01*
X190397761Y-62161000D01*
X190321571Y-62122904D01*
X190169190Y-62122904D01*
X190093000Y-62161000D01*
X190054904Y-62199095D01*
X190016809Y-62275285D01*
X190016809Y-62313380D01*
X190054904Y-62389571D01*
X190093000Y-62427666D01*
X190169190Y-62465761D01*
X190321571Y-62465761D01*
X190397761Y-62503857D01*
X190435857Y-62541952D01*
X190473952Y-62618142D01*
X190473952Y-62770523D01*
X190435857Y-62846714D01*
X190397761Y-62884809D01*
X190321571Y-62922904D01*
X190169190Y-62922904D01*
X190093000Y-62884809D01*
X190054904Y-62846714D01*
X190016809Y-62770523D01*
X190016809Y-62618142D01*
X190054904Y-62541952D01*
X190093000Y-62503857D01*
X190169190Y-62465761D01*
X199502523Y-64242904D02*
X199502523Y-63442904D01*
X199312047Y-63442904D01*
X199197761Y-63481000D01*
X199121571Y-63557190D01*
X199083476Y-63633380D01*
X199045380Y-63785761D01*
X199045380Y-63900047D01*
X199083476Y-64052428D01*
X199121571Y-64128619D01*
X199197761Y-64204809D01*
X199312047Y-64242904D01*
X199502523Y-64242904D01*
X198740619Y-64014333D02*
X198359666Y-64014333D01*
X198816809Y-64242904D02*
X198550142Y-63442904D01*
X198283476Y-64242904D01*
X198131095Y-63442904D02*
X197673952Y-63442904D01*
X197902523Y-64242904D02*
X197902523Y-63442904D01*
X197445380Y-64014333D02*
X197064428Y-64014333D01*
X197521571Y-64242904D02*
X197254904Y-63442904D01*
X196988238Y-64242904D01*
X196721571Y-64166714D02*
X196683476Y-64204809D01*
X196721571Y-64242904D01*
X196759666Y-64204809D01*
X196721571Y-64166714D01*
X196721571Y-64242904D01*
X196721571Y-63747666D02*
X196683476Y-63785761D01*
X196721571Y-63823857D01*
X196759666Y-63785761D01*
X196721571Y-63747666D01*
X196721571Y-63823857D01*
X194093000Y-63481000D02*
X194169190Y-63442904D01*
X194283476Y-63442904D01*
X194397761Y-63481000D01*
X194473952Y-63557190D01*
X194512047Y-63633380D01*
X194550142Y-63785761D01*
X194550142Y-63900047D01*
X194512047Y-64052428D01*
X194473952Y-64128619D01*
X194397761Y-64204809D01*
X194283476Y-64242904D01*
X194207285Y-64242904D01*
X194093000Y-64204809D01*
X194054904Y-64166714D01*
X194054904Y-63900047D01*
X194207285Y-63900047D01*
X193712047Y-64242904D02*
X193712047Y-63442904D01*
X193407285Y-63442904D01*
X193331095Y-63481000D01*
X193293000Y-63519095D01*
X193254904Y-63595285D01*
X193254904Y-63709571D01*
X193293000Y-63785761D01*
X193331095Y-63823857D01*
X193407285Y-63861952D01*
X193712047Y-63861952D01*
X192912047Y-64242904D02*
X192912047Y-63442904D01*
X192378714Y-63442904D02*
X192226333Y-63442904D01*
X192150142Y-63481000D01*
X192073952Y-63557190D01*
X192035857Y-63709571D01*
X192035857Y-63976238D01*
X192073952Y-64128619D01*
X192150142Y-64204809D01*
X192226333Y-64242904D01*
X192378714Y-64242904D01*
X192454904Y-64204809D01*
X192531095Y-64128619D01*
X192569190Y-63976238D01*
X192569190Y-63709571D01*
X192531095Y-63557190D01*
X192454904Y-63481000D01*
X192378714Y-63442904D01*
X190664428Y-64242904D02*
X191121571Y-64242904D01*
X190893000Y-64242904D02*
X190893000Y-63442904D01*
X190969190Y-63557190D01*
X191045380Y-63633380D01*
X191121571Y-63671476D01*
X189902523Y-64242904D02*
X190359666Y-64242904D01*
X190131095Y-64242904D02*
X190131095Y-63442904D01*
X190207285Y-63557190D01*
X190283476Y-63633380D01*
X190359666Y-63671476D01*
X199121571Y-65562904D02*
X199502523Y-65562904D01*
X199502523Y-64762904D01*
X198854904Y-65143857D02*
X198588238Y-65143857D01*
X198473952Y-65562904D02*
X198854904Y-65562904D01*
X198854904Y-64762904D01*
X198473952Y-64762904D01*
X198131095Y-65562904D02*
X198131095Y-64762904D01*
X197940619Y-64762904D01*
X197826333Y-64801000D01*
X197750142Y-64877190D01*
X197712047Y-64953380D01*
X197673952Y-65105761D01*
X197673952Y-65220047D01*
X197712047Y-65372428D01*
X197750142Y-65448619D01*
X197826333Y-65524809D01*
X197940619Y-65562904D01*
X198131095Y-65562904D01*
X197331095Y-65486714D02*
X197293000Y-65524809D01*
X197331095Y-65562904D01*
X197369190Y-65524809D01*
X197331095Y-65486714D01*
X197331095Y-65562904D01*
X197331095Y-65067666D02*
X197293000Y-65105761D01*
X197331095Y-65143857D01*
X197369190Y-65105761D01*
X197331095Y-65067666D01*
X197331095Y-65143857D01*
X194093000Y-64801000D02*
X194169190Y-64762904D01*
X194283476Y-64762904D01*
X194397761Y-64801000D01*
X194473952Y-64877190D01*
X194512047Y-64953380D01*
X194550142Y-65105761D01*
X194550142Y-65220047D01*
X194512047Y-65372428D01*
X194473952Y-65448619D01*
X194397761Y-65524809D01*
X194283476Y-65562904D01*
X194207285Y-65562904D01*
X194093000Y-65524809D01*
X194054904Y-65486714D01*
X194054904Y-65220047D01*
X194207285Y-65220047D01*
X193712047Y-65562904D02*
X193712047Y-64762904D01*
X193407285Y-64762904D01*
X193331095Y-64801000D01*
X193293000Y-64839095D01*
X193254904Y-64915285D01*
X193254904Y-65029571D01*
X193293000Y-65105761D01*
X193331095Y-65143857D01*
X193407285Y-65181952D01*
X193712047Y-65181952D01*
X192912047Y-65562904D02*
X192912047Y-64762904D01*
X192378714Y-64762904D02*
X192226333Y-64762904D01*
X192150142Y-64801000D01*
X192073952Y-64877190D01*
X192035857Y-65029571D01*
X192035857Y-65296238D01*
X192073952Y-65448619D01*
X192150142Y-65524809D01*
X192226333Y-65562904D01*
X192378714Y-65562904D01*
X192454904Y-65524809D01*
X192531095Y-65448619D01*
X192569190Y-65296238D01*
X192569190Y-65029571D01*
X192531095Y-64877190D01*
X192454904Y-64801000D01*
X192378714Y-64762904D01*
X190931095Y-64762904D02*
X190854904Y-64762904D01*
X190778714Y-64801000D01*
X190740619Y-64839095D01*
X190702523Y-64915285D01*
X190664428Y-65067666D01*
X190664428Y-65258142D01*
X190702523Y-65410523D01*
X190740619Y-65486714D01*
X190778714Y-65524809D01*
X190854904Y-65562904D01*
X190931095Y-65562904D01*
X191007285Y-65524809D01*
X191045380Y-65486714D01*
X191083476Y-65410523D01*
X191121571Y-65258142D01*
X191121571Y-65067666D01*
X191083476Y-64915285D01*
X191045380Y-64839095D01*
X191007285Y-64801000D01*
X190931095Y-64762904D01*
X189978714Y-65029571D02*
X189978714Y-65562904D01*
X190169190Y-64724809D02*
X190359666Y-65296238D01*
X189864428Y-65296238D01*
X193351000Y-72180404D02*
X193351000Y-71380404D01*
X193160523Y-71380404D01*
X193046238Y-71418500D01*
X192970047Y-71494690D01*
X192931952Y-71570880D01*
X192893857Y-71723261D01*
X192893857Y-71837547D01*
X192931952Y-71989928D01*
X192970047Y-72066119D01*
X193046238Y-72142309D01*
X193160523Y-72180404D01*
X193351000Y-72180404D01*
X192589095Y-71951833D02*
X192208142Y-71951833D01*
X192665285Y-72180404D02*
X192398619Y-71380404D01*
X192131952Y-72180404D01*
X191979571Y-71380404D02*
X191522428Y-71380404D01*
X191751000Y-72180404D02*
X191751000Y-71380404D01*
X191293857Y-71951833D02*
X190912904Y-71951833D01*
X191370047Y-72180404D02*
X191103380Y-71380404D01*
X190836714Y-72180404D01*
X197650023Y-71418500D02*
X197726214Y-71380404D01*
X197840500Y-71380404D01*
X197954785Y-71418500D01*
X198030976Y-71494690D01*
X198069071Y-71570880D01*
X198107166Y-71723261D01*
X198107166Y-71837547D01*
X198069071Y-71989928D01*
X198030976Y-72066119D01*
X197954785Y-72142309D01*
X197840500Y-72180404D01*
X197764309Y-72180404D01*
X197650023Y-72142309D01*
X197611928Y-72104214D01*
X197611928Y-71837547D01*
X197764309Y-71837547D01*
X197269071Y-72180404D02*
X197269071Y-71380404D01*
X196811928Y-72180404D01*
X196811928Y-71380404D01*
X196430976Y-72180404D02*
X196430976Y-71380404D01*
X196240500Y-71380404D01*
X196126214Y-71418500D01*
X196050023Y-71494690D01*
X196011928Y-71570880D01*
X195973833Y-71723261D01*
X195973833Y-71837547D01*
X196011928Y-71989928D01*
X196050023Y-72066119D01*
X196126214Y-72142309D01*
X196240500Y-72180404D01*
X196430976Y-72180404D01*
X190347452Y-71380404D02*
X189852214Y-71380404D01*
X190118880Y-71685166D01*
X190004595Y-71685166D01*
X189928404Y-71723261D01*
X189890309Y-71761357D01*
X189852214Y-71837547D01*
X189852214Y-72028023D01*
X189890309Y-72104214D01*
X189928404Y-72142309D01*
X190004595Y-72180404D01*
X190233166Y-72180404D01*
X190309357Y-72142309D01*
X190347452Y-72104214D01*
X189509357Y-72104214D02*
X189471261Y-72142309D01*
X189509357Y-72180404D01*
X189547452Y-72142309D01*
X189509357Y-72104214D01*
X189509357Y-72180404D01*
X189204595Y-71380404D02*
X188709357Y-71380404D01*
X188976023Y-71685166D01*
X188861738Y-71685166D01*
X188785547Y-71723261D01*
X188747452Y-71761357D01*
X188709357Y-71837547D01*
X188709357Y-72028023D01*
X188747452Y-72104214D01*
X188785547Y-72142309D01*
X188861738Y-72180404D01*
X189090309Y-72180404D01*
X189166500Y-72142309D01*
X189204595Y-72104214D01*
X188480785Y-71380404D02*
X188214119Y-72180404D01*
X187947452Y-71380404D01*
X178968428Y-61702904D02*
X179425571Y-61702904D01*
X179197000Y-61702904D02*
X179197000Y-60902904D01*
X179273190Y-61017190D01*
X179349380Y-61093380D01*
X179425571Y-61131476D01*
X197129380Y-54527404D02*
X197586523Y-54527404D01*
X197357952Y-54527404D02*
X197357952Y-53727404D01*
X197434142Y-53841690D01*
X197510333Y-53917880D01*
X197586523Y-53955976D01*
X196443666Y-53727404D02*
X196596047Y-53727404D01*
X196672238Y-53765500D01*
X196710333Y-53803595D01*
X196786523Y-53917880D01*
X196824619Y-54070261D01*
X196824619Y-54375023D01*
X196786523Y-54451214D01*
X196748428Y-54489309D01*
X196672238Y-54527404D01*
X196519857Y-54527404D01*
X196443666Y-54489309D01*
X196405571Y-54451214D01*
X196367476Y-54375023D01*
X196367476Y-54184547D01*
X196405571Y-54108357D01*
X196443666Y-54070261D01*
X196519857Y-54032166D01*
X196672238Y-54032166D01*
X196748428Y-54070261D01*
X196786523Y-54108357D01*
X196824619Y-54184547D01*
X179425571Y-53803595D02*
X179387476Y-53765500D01*
X179311285Y-53727404D01*
X179120809Y-53727404D01*
X179044619Y-53765500D01*
X179006523Y-53803595D01*
X178968428Y-53879785D01*
X178968428Y-53955976D01*
X179006523Y-54070261D01*
X179463666Y-54527404D01*
X178968428Y-54527404D01*
X197129380Y-61702904D02*
X197586523Y-61702904D01*
X197357952Y-61702904D02*
X197357952Y-60902904D01*
X197434142Y-61017190D01*
X197510333Y-61093380D01*
X197586523Y-61131476D01*
X196405571Y-60902904D02*
X196786523Y-60902904D01*
X196824619Y-61283857D01*
X196786523Y-61245761D01*
X196710333Y-61207666D01*
X196519857Y-61207666D01*
X196443666Y-61245761D01*
X196405571Y-61283857D01*
X196367476Y-61360047D01*
X196367476Y-61550523D01*
X196405571Y-61626714D01*
X196443666Y-61664809D01*
X196519857Y-61702904D01*
X196710333Y-61702904D01*
X196786523Y-61664809D01*
X196824619Y-61626714D01*
X186971142Y-54070261D02*
X187047333Y-54032166D01*
X187085428Y-53994071D01*
X187123523Y-53917880D01*
X187123523Y-53879785D01*
X187085428Y-53803595D01*
X187047333Y-53765500D01*
X186971142Y-53727404D01*
X186818761Y-53727404D01*
X186742571Y-53765500D01*
X186704476Y-53803595D01*
X186666380Y-53879785D01*
X186666380Y-53917880D01*
X186704476Y-53994071D01*
X186742571Y-54032166D01*
X186818761Y-54070261D01*
X186971142Y-54070261D01*
X187047333Y-54108357D01*
X187085428Y-54146452D01*
X187123523Y-54222642D01*
X187123523Y-54375023D01*
X187085428Y-54451214D01*
X187047333Y-54489309D01*
X186971142Y-54527404D01*
X186818761Y-54527404D01*
X186742571Y-54489309D01*
X186704476Y-54451214D01*
X186666380Y-54375023D01*
X186666380Y-54222642D01*
X186704476Y-54146452D01*
X186742571Y-54108357D01*
X186818761Y-54070261D01*
X192049380Y-61702904D02*
X192506523Y-61702904D01*
X192277952Y-61702904D02*
X192277952Y-60902904D01*
X192354142Y-61017190D01*
X192430333Y-61093380D01*
X192506523Y-61131476D01*
X191287476Y-61702904D02*
X191744619Y-61702904D01*
X191516047Y-61702904D02*
X191516047Y-60902904D01*
X191592238Y-61017190D01*
X191668428Y-61093380D01*
X191744619Y-61131476D01*
D12*
G36*
X181460856Y-70930957D02*
G01*
X181454896Y-70937842D01*
X181451625Y-70953925D01*
X181450252Y-70982974D01*
X181449980Y-71026020D01*
X181450287Y-71070880D01*
X181451737Y-71099193D01*
X181455123Y-71114727D01*
X181461238Y-71121252D01*
X181470300Y-71122540D01*
X181486808Y-71118137D01*
X181490620Y-71112022D01*
X181496840Y-71106694D01*
X181510273Y-71112022D01*
X181542219Y-71121379D01*
X181576501Y-71120229D01*
X181603745Y-71109139D01*
X181607142Y-71106167D01*
X181615882Y-71092343D01*
X181620343Y-71069941D01*
X181621197Y-71034253D01*
X181620567Y-71012187D01*
X181618555Y-70972716D01*
X181615405Y-70949413D01*
X181609872Y-70938123D01*
X181600711Y-70934696D01*
X181597300Y-70934580D01*
X181586133Y-70936907D01*
X181579515Y-70946862D01*
X181575857Y-70968909D01*
X181573900Y-71000230D01*
X181568903Y-71049687D01*
X181559219Y-71079724D01*
X181544461Y-71090783D01*
X181524240Y-71083304D01*
X181510940Y-71071740D01*
X181498530Y-71053912D01*
X181492279Y-71028279D01*
X181490620Y-70990460D01*
X181489879Y-70956412D01*
X181486622Y-70938015D01*
X181479301Y-70930620D01*
X181470300Y-70929500D01*
X181460856Y-70930957D01*
X181460856Y-70930957D01*
G37*
X181460856Y-70930957D02*
X181454896Y-70937842D01*
X181451625Y-70953925D01*
X181450252Y-70982974D01*
X181449980Y-71026020D01*
X181450287Y-71070880D01*
X181451737Y-71099193D01*
X181455123Y-71114727D01*
X181461238Y-71121252D01*
X181470300Y-71122540D01*
X181486808Y-71118137D01*
X181490620Y-71112022D01*
X181496840Y-71106694D01*
X181510273Y-71112022D01*
X181542219Y-71121379D01*
X181576501Y-71120229D01*
X181603745Y-71109139D01*
X181607142Y-71106167D01*
X181615882Y-71092343D01*
X181620343Y-71069941D01*
X181621197Y-71034253D01*
X181620567Y-71012187D01*
X181618555Y-70972716D01*
X181615405Y-70949413D01*
X181609872Y-70938123D01*
X181600711Y-70934696D01*
X181597300Y-70934580D01*
X181586133Y-70936907D01*
X181579515Y-70946862D01*
X181575857Y-70968909D01*
X181573900Y-71000230D01*
X181568903Y-71049687D01*
X181559219Y-71079724D01*
X181544461Y-71090783D01*
X181524240Y-71083304D01*
X181510940Y-71071740D01*
X181498530Y-71053912D01*
X181492279Y-71028279D01*
X181490620Y-70990460D01*
X181489879Y-70956412D01*
X181486622Y-70938015D01*
X181479301Y-70930620D01*
X181470300Y-70929500D01*
X181460856Y-70930957D01*
G36*
X181289703Y-70933751D02*
G01*
X181262747Y-70949052D01*
X181261803Y-70950060D01*
X181249642Y-70970286D01*
X181253714Y-70982227D01*
X181270820Y-70983531D01*
X181294278Y-70973917D01*
X181320737Y-70964013D01*
X181343853Y-70963853D01*
X181357290Y-70972964D01*
X181358540Y-70978708D01*
X181349788Y-70986902D01*
X181327215Y-70998360D01*
X181305432Y-71007005D01*
X181265039Y-71027029D01*
X181242238Y-71050875D01*
X181237949Y-71076919D01*
X181251582Y-71101912D01*
X181275964Y-71116350D01*
X181310767Y-71123146D01*
X181347946Y-71122182D01*
X181379458Y-71113341D01*
X181392526Y-71103959D01*
X181407446Y-71081032D01*
X181406437Y-71066453D01*
X181392804Y-71062015D01*
X181369850Y-71069509D01*
X181351437Y-71081676D01*
X181329195Y-71094854D01*
X181310579Y-71093337D01*
X181306037Y-71091148D01*
X181290915Y-71077192D01*
X181295640Y-71062787D01*
X181319778Y-71048678D01*
X181333918Y-71043559D01*
X181365979Y-71028541D01*
X181392447Y-71008112D01*
X181407665Y-70987104D01*
X181409340Y-70979174D01*
X181402819Y-70966036D01*
X181389020Y-70949820D01*
X181361259Y-70934119D01*
X181325347Y-70928768D01*
X181289703Y-70933751D01*
X181289703Y-70933751D01*
G37*
X181289703Y-70933751D02*
X181262747Y-70949052D01*
X181261803Y-70950060D01*
X181249642Y-70970286D01*
X181253714Y-70982227D01*
X181270820Y-70983531D01*
X181294278Y-70973917D01*
X181320737Y-70964013D01*
X181343853Y-70963853D01*
X181357290Y-70972964D01*
X181358540Y-70978708D01*
X181349788Y-70986902D01*
X181327215Y-70998360D01*
X181305432Y-71007005D01*
X181265039Y-71027029D01*
X181242238Y-71050875D01*
X181237949Y-71076919D01*
X181251582Y-71101912D01*
X181275964Y-71116350D01*
X181310767Y-71123146D01*
X181347946Y-71122182D01*
X181379458Y-71113341D01*
X181392526Y-71103959D01*
X181407446Y-71081032D01*
X181406437Y-71066453D01*
X181392804Y-71062015D01*
X181369850Y-71069509D01*
X181351437Y-71081676D01*
X181329195Y-71094854D01*
X181310579Y-71093337D01*
X181306037Y-71091148D01*
X181290915Y-71077192D01*
X181295640Y-71062787D01*
X181319778Y-71048678D01*
X181333918Y-71043559D01*
X181365979Y-71028541D01*
X181392447Y-71008112D01*
X181407665Y-70987104D01*
X181409340Y-70979174D01*
X181402819Y-70966036D01*
X181389020Y-70949820D01*
X181361259Y-70934119D01*
X181325347Y-70928768D01*
X181289703Y-70933751D01*
G36*
X181068931Y-70935192D02*
G01*
X181041218Y-70948570D01*
X181025216Y-70969273D01*
X181023260Y-70980876D01*
X181027703Y-70997200D01*
X181042007Y-70998041D01*
X181067638Y-70983354D01*
X181073253Y-70979290D01*
X181096088Y-70965601D01*
X181113847Y-70965187D01*
X181123522Y-70969423D01*
X181144953Y-70991266D01*
X181153132Y-71022488D01*
X181146440Y-71055805D01*
X181143863Y-71060875D01*
X181122433Y-71084053D01*
X181096943Y-71088819D01*
X181071608Y-71074533D01*
X181069385Y-71072187D01*
X181051017Y-71056719D01*
X181037525Y-71051420D01*
X181020692Y-71057723D01*
X181018935Y-71073972D01*
X181032547Y-71096172D01*
X181034127Y-71097892D01*
X181055635Y-71114672D01*
X181083259Y-71121544D01*
X181103772Y-71122216D01*
X181135996Y-71119218D01*
X181161652Y-71112073D01*
X181167641Y-71108688D01*
X181191426Y-71078999D01*
X181201943Y-71040632D01*
X181199140Y-71000341D01*
X181182967Y-70964882D01*
X181168833Y-70950260D01*
X181138089Y-70934912D01*
X181103005Y-70930265D01*
X181068931Y-70935192D01*
X181068931Y-70935192D01*
G37*
X181068931Y-70935192D02*
X181041218Y-70948570D01*
X181025216Y-70969273D01*
X181023260Y-70980876D01*
X181027703Y-70997200D01*
X181042007Y-70998041D01*
X181067638Y-70983354D01*
X181073253Y-70979290D01*
X181096088Y-70965601D01*
X181113847Y-70965187D01*
X181123522Y-70969423D01*
X181144953Y-70991266D01*
X181153132Y-71022488D01*
X181146440Y-71055805D01*
X181143863Y-71060875D01*
X181122433Y-71084053D01*
X181096943Y-71088819D01*
X181071608Y-71074533D01*
X181069385Y-71072187D01*
X181051017Y-71056719D01*
X181037525Y-71051420D01*
X181020692Y-71057723D01*
X181018935Y-71073972D01*
X181032547Y-71096172D01*
X181034127Y-71097892D01*
X181055635Y-71114672D01*
X181083259Y-71121544D01*
X181103772Y-71122216D01*
X181135996Y-71119218D01*
X181161652Y-71112073D01*
X181167641Y-71108688D01*
X181191426Y-71078999D01*
X181201943Y-71040632D01*
X181199140Y-71000341D01*
X181182967Y-70964882D01*
X181168833Y-70950260D01*
X181138089Y-70934912D01*
X181103005Y-70930265D01*
X181068931Y-70935192D01*
G36*
X180850197Y-70934467D02*
G01*
X180818591Y-70950610D01*
X180796713Y-70975617D01*
X180789580Y-71004151D01*
X180793038Y-71022426D01*
X180805760Y-71033714D01*
X180831275Y-71039495D01*
X180873107Y-71041249D01*
X180878011Y-71041260D01*
X180909857Y-71041612D01*
X180925025Y-71044017D01*
X180927155Y-71050496D01*
X180919889Y-71063070D01*
X180919195Y-71064120D01*
X180894913Y-71085746D01*
X180864458Y-71088586D01*
X180835380Y-71075937D01*
X180811060Y-71065470D01*
X180796689Y-71068787D01*
X180795691Y-71082624D01*
X180808884Y-71101204D01*
X180839030Y-71118510D01*
X180877643Y-71124046D01*
X180916787Y-71118031D01*
X180948526Y-71100687D01*
X180952063Y-71097222D01*
X180969304Y-71070909D01*
X180975628Y-71036521D01*
X180975847Y-71026020D01*
X180973195Y-71001816D01*
X180927333Y-71001816D01*
X180925074Y-71008499D01*
X180908695Y-71010609D01*
X180887340Y-71010780D01*
X180855704Y-71008536D01*
X180841620Y-71001347D01*
X180840380Y-70996784D01*
X180849056Y-70976778D01*
X180869149Y-70963324D01*
X180886939Y-70961681D01*
X180905188Y-70972255D01*
X180919146Y-70987920D01*
X180927333Y-71001816D01*
X180973195Y-71001816D01*
X180971720Y-70988365D01*
X180957385Y-70960905D01*
X180952063Y-70954817D01*
X180922065Y-70935013D01*
X180886399Y-70928749D01*
X180850197Y-70934467D01*
X180850197Y-70934467D01*
G37*
X180850197Y-70934467D02*
X180818591Y-70950610D01*
X180796713Y-70975617D01*
X180789580Y-71004151D01*
X180793038Y-71022426D01*
X180805760Y-71033714D01*
X180831275Y-71039495D01*
X180873107Y-71041249D01*
X180878011Y-71041260D01*
X180909857Y-71041612D01*
X180925025Y-71044017D01*
X180927155Y-71050496D01*
X180919889Y-71063070D01*
X180919195Y-71064120D01*
X180894913Y-71085746D01*
X180864458Y-71088586D01*
X180835380Y-71075937D01*
X180811060Y-71065470D01*
X180796689Y-71068787D01*
X180795691Y-71082624D01*
X180808884Y-71101204D01*
X180839030Y-71118510D01*
X180877643Y-71124046D01*
X180916787Y-71118031D01*
X180948526Y-71100687D01*
X180952063Y-71097222D01*
X180969304Y-71070909D01*
X180975628Y-71036521D01*
X180975847Y-71026020D01*
X180973195Y-71001816D01*
X180927333Y-71001816D01*
X180925074Y-71008499D01*
X180908695Y-71010609D01*
X180887340Y-71010780D01*
X180855704Y-71008536D01*
X180841620Y-71001347D01*
X180840380Y-70996784D01*
X180849056Y-70976778D01*
X180869149Y-70963324D01*
X180886939Y-70961681D01*
X180905188Y-70972255D01*
X180919146Y-70987920D01*
X180927333Y-71001816D01*
X180973195Y-71001816D01*
X180971720Y-70988365D01*
X180957385Y-70960905D01*
X180952063Y-70954817D01*
X180922065Y-70935013D01*
X180886399Y-70928749D01*
X180850197Y-70934467D01*
G36*
X180710732Y-70855901D02*
G01*
X180703990Y-70874212D01*
X180700517Y-70908470D01*
X180699843Y-70960403D01*
X180700354Y-70991137D01*
X180701980Y-71045095D01*
X180704269Y-71081863D01*
X180707671Y-71104573D01*
X180712637Y-71116354D01*
X180718956Y-71120227D01*
X180737019Y-71118960D01*
X180741816Y-71116117D01*
X180745998Y-71101851D01*
X180748550Y-71072476D01*
X180749589Y-71033018D01*
X180749229Y-70988504D01*
X180747588Y-70943961D01*
X180744781Y-70904415D01*
X180740925Y-70874893D01*
X180736136Y-70860422D01*
X180735900Y-70860205D01*
X180721212Y-70851808D01*
X180710732Y-70855901D01*
X180710732Y-70855901D01*
G37*
X180710732Y-70855901D02*
X180703990Y-70874212D01*
X180700517Y-70908470D01*
X180699843Y-70960403D01*
X180700354Y-70991137D01*
X180701980Y-71045095D01*
X180704269Y-71081863D01*
X180707671Y-71104573D01*
X180712637Y-71116354D01*
X180718956Y-71120227D01*
X180737019Y-71118960D01*
X180741816Y-71116117D01*
X180745998Y-71101851D01*
X180748550Y-71072476D01*
X180749589Y-71033018D01*
X180749229Y-70988504D01*
X180747588Y-70943961D01*
X180744781Y-70904415D01*
X180740925Y-70874893D01*
X180736136Y-70860422D01*
X180735900Y-70860205D01*
X180721212Y-70851808D01*
X180710732Y-70855901D01*
G36*
X180525077Y-70934467D02*
G01*
X180493471Y-70950610D01*
X180471593Y-70975617D01*
X180464460Y-71004151D01*
X180467918Y-71022426D01*
X180480640Y-71033714D01*
X180506155Y-71039495D01*
X180547987Y-71041249D01*
X180552891Y-71041260D01*
X180584737Y-71041612D01*
X180599905Y-71044017D01*
X180602035Y-71050496D01*
X180594769Y-71063070D01*
X180594075Y-71064120D01*
X180569793Y-71085746D01*
X180539338Y-71088586D01*
X180510260Y-71075937D01*
X180485940Y-71065470D01*
X180471569Y-71068787D01*
X180470571Y-71082624D01*
X180483764Y-71101204D01*
X180513910Y-71118510D01*
X180552523Y-71124046D01*
X180591667Y-71118031D01*
X180623406Y-71100687D01*
X180626943Y-71097222D01*
X180644184Y-71070909D01*
X180650508Y-71036521D01*
X180650727Y-71026020D01*
X180648075Y-71001816D01*
X180602213Y-71001816D01*
X180599954Y-71008499D01*
X180583575Y-71010609D01*
X180562220Y-71010780D01*
X180530584Y-71008536D01*
X180516500Y-71001347D01*
X180515260Y-70996784D01*
X180523936Y-70976778D01*
X180544029Y-70963324D01*
X180561819Y-70961681D01*
X180580068Y-70972255D01*
X180594026Y-70987920D01*
X180602213Y-71001816D01*
X180648075Y-71001816D01*
X180646600Y-70988365D01*
X180632265Y-70960905D01*
X180626943Y-70954817D01*
X180596945Y-70935013D01*
X180561279Y-70928749D01*
X180525077Y-70934467D01*
X180525077Y-70934467D01*
G37*
X180525077Y-70934467D02*
X180493471Y-70950610D01*
X180471593Y-70975617D01*
X180464460Y-71004151D01*
X180467918Y-71022426D01*
X180480640Y-71033714D01*
X180506155Y-71039495D01*
X180547987Y-71041249D01*
X180552891Y-71041260D01*
X180584737Y-71041612D01*
X180599905Y-71044017D01*
X180602035Y-71050496D01*
X180594769Y-71063070D01*
X180594075Y-71064120D01*
X180569793Y-71085746D01*
X180539338Y-71088586D01*
X180510260Y-71075937D01*
X180485940Y-71065470D01*
X180471569Y-71068787D01*
X180470571Y-71082624D01*
X180483764Y-71101204D01*
X180513910Y-71118510D01*
X180552523Y-71124046D01*
X180591667Y-71118031D01*
X180623406Y-71100687D01*
X180626943Y-71097222D01*
X180644184Y-71070909D01*
X180650508Y-71036521D01*
X180650727Y-71026020D01*
X180648075Y-71001816D01*
X180602213Y-71001816D01*
X180599954Y-71008499D01*
X180583575Y-71010609D01*
X180562220Y-71010780D01*
X180530584Y-71008536D01*
X180516500Y-71001347D01*
X180515260Y-70996784D01*
X180523936Y-70976778D01*
X180544029Y-70963324D01*
X180561819Y-70961681D01*
X180580068Y-70972255D01*
X180594026Y-70987920D01*
X180602213Y-71001816D01*
X180648075Y-71001816D01*
X180646600Y-70988365D01*
X180632265Y-70960905D01*
X180626943Y-70954817D01*
X180596945Y-70935013D01*
X180561279Y-70928749D01*
X180525077Y-70934467D01*
G36*
X180296771Y-70935192D02*
G01*
X180269058Y-70948570D01*
X180253056Y-70969273D01*
X180251100Y-70980876D01*
X180255543Y-70997200D01*
X180269847Y-70998041D01*
X180295478Y-70983354D01*
X180301093Y-70979290D01*
X180323928Y-70965601D01*
X180341687Y-70965187D01*
X180351362Y-70969423D01*
X180372793Y-70991266D01*
X180380972Y-71022488D01*
X180374280Y-71055805D01*
X180371703Y-71060875D01*
X180350273Y-71084053D01*
X180324783Y-71088819D01*
X180299448Y-71074533D01*
X180297225Y-71072187D01*
X180278857Y-71056719D01*
X180265365Y-71051420D01*
X180248532Y-71057723D01*
X180246775Y-71073972D01*
X180260387Y-71096172D01*
X180261967Y-71097892D01*
X180283475Y-71114672D01*
X180311099Y-71121544D01*
X180331612Y-71122216D01*
X180363836Y-71119218D01*
X180389492Y-71112073D01*
X180395481Y-71108688D01*
X180419266Y-71078999D01*
X180429783Y-71040632D01*
X180426980Y-71000341D01*
X180410807Y-70964882D01*
X180396673Y-70950260D01*
X180365929Y-70934912D01*
X180330845Y-70930265D01*
X180296771Y-70935192D01*
X180296771Y-70935192D01*
G37*
X180296771Y-70935192D02*
X180269058Y-70948570D01*
X180253056Y-70969273D01*
X180251100Y-70980876D01*
X180255543Y-70997200D01*
X180269847Y-70998041D01*
X180295478Y-70983354D01*
X180301093Y-70979290D01*
X180323928Y-70965601D01*
X180341687Y-70965187D01*
X180351362Y-70969423D01*
X180372793Y-70991266D01*
X180380972Y-71022488D01*
X180374280Y-71055805D01*
X180371703Y-71060875D01*
X180350273Y-71084053D01*
X180324783Y-71088819D01*
X180299448Y-71074533D01*
X180297225Y-71072187D01*
X180278857Y-71056719D01*
X180265365Y-71051420D01*
X180248532Y-71057723D01*
X180246775Y-71073972D01*
X180260387Y-71096172D01*
X180261967Y-71097892D01*
X180283475Y-71114672D01*
X180311099Y-71121544D01*
X180331612Y-71122216D01*
X180363836Y-71119218D01*
X180389492Y-71112073D01*
X180395481Y-71108688D01*
X180419266Y-71078999D01*
X180429783Y-71040632D01*
X180426980Y-71000341D01*
X180410807Y-70964882D01*
X180396673Y-70950260D01*
X180365929Y-70934912D01*
X180330845Y-70930265D01*
X180296771Y-70935192D01*
G36*
X180149286Y-70868988D02*
G01*
X180142122Y-70888698D01*
X180141314Y-70895443D01*
X180133114Y-70922297D01*
X180117432Y-70932859D01*
X180104098Y-70942140D01*
X180106615Y-70953605D01*
X180122886Y-70959915D01*
X180125185Y-70959980D01*
X180133530Y-70964000D01*
X180137515Y-70978722D01*
X180137900Y-71008138D01*
X180137285Y-71023480D01*
X180134871Y-71058556D01*
X180130601Y-71078181D01*
X180122588Y-71087222D01*
X180111400Y-71090226D01*
X180093527Y-71098263D01*
X180088540Y-71108006D01*
X180097203Y-71117473D01*
X180118224Y-71122210D01*
X180144156Y-71122024D01*
X180167548Y-71116718D01*
X180177948Y-71110348D01*
X180184595Y-71093857D01*
X180188973Y-71063579D01*
X180190140Y-71034652D01*
X180191506Y-70996705D01*
X180196387Y-70974044D01*
X180205957Y-70961770D01*
X180207920Y-70960492D01*
X180220101Y-70950927D01*
X180214979Y-70941669D01*
X180208794Y-70936646D01*
X180195257Y-70917228D01*
X180188474Y-70893458D01*
X180181705Y-70870740D01*
X180166444Y-70863496D01*
X180164740Y-70863460D01*
X180149286Y-70868988D01*
X180149286Y-70868988D01*
G37*
X180149286Y-70868988D02*
X180142122Y-70888698D01*
X180141314Y-70895443D01*
X180133114Y-70922297D01*
X180117432Y-70932859D01*
X180104098Y-70942140D01*
X180106615Y-70953605D01*
X180122886Y-70959915D01*
X180125185Y-70959980D01*
X180133530Y-70964000D01*
X180137515Y-70978722D01*
X180137900Y-71008138D01*
X180137285Y-71023480D01*
X180134871Y-71058556D01*
X180130601Y-71078181D01*
X180122588Y-71087222D01*
X180111400Y-71090226D01*
X180093527Y-71098263D01*
X180088540Y-71108006D01*
X180097203Y-71117473D01*
X180118224Y-71122210D01*
X180144156Y-71122024D01*
X180167548Y-71116718D01*
X180177948Y-71110348D01*
X180184595Y-71093857D01*
X180188973Y-71063579D01*
X180190140Y-71034652D01*
X180191506Y-70996705D01*
X180196387Y-70974044D01*
X180205957Y-70961770D01*
X180207920Y-70960492D01*
X180220101Y-70950927D01*
X180214979Y-70941669D01*
X180208794Y-70936646D01*
X180195257Y-70917228D01*
X180188474Y-70893458D01*
X180181705Y-70870740D01*
X180166444Y-70863496D01*
X180164740Y-70863460D01*
X180149286Y-70868988D01*
G36*
X179941909Y-70938997D02*
G01*
X179937473Y-70943134D01*
X179931159Y-70958913D01*
X179943927Y-70967900D01*
X179967956Y-70970140D01*
X179992269Y-70975631D01*
X180007739Y-70993771D01*
X180015657Y-71027058D01*
X180017420Y-71065992D01*
X180018392Y-71098759D01*
X180022327Y-71115908D01*
X180030760Y-71122093D01*
X180036047Y-71122540D01*
X180055366Y-71119222D01*
X180061447Y-71115766D01*
X180064555Y-71103122D01*
X180066912Y-71075375D01*
X180068133Y-71037741D01*
X180068220Y-71024007D01*
X180067391Y-70979886D01*
X180064487Y-70952352D01*
X180058887Y-70937724D01*
X180052851Y-70933124D01*
X180032561Y-70933877D01*
X180023276Y-70939016D01*
X180008254Y-70945067D01*
X180002485Y-70940153D01*
X179986686Y-70931025D01*
X179963085Y-70930796D01*
X179941909Y-70938997D01*
X179941909Y-70938997D01*
G37*
X179941909Y-70938997D02*
X179937473Y-70943134D01*
X179931159Y-70958913D01*
X179943927Y-70967900D01*
X179967956Y-70970140D01*
X179992269Y-70975631D01*
X180007739Y-70993771D01*
X180015657Y-71027058D01*
X180017420Y-71065992D01*
X180018392Y-71098759D01*
X180022327Y-71115908D01*
X180030760Y-71122093D01*
X180036047Y-71122540D01*
X180055366Y-71119222D01*
X180061447Y-71115766D01*
X180064555Y-71103122D01*
X180066912Y-71075375D01*
X180068133Y-71037741D01*
X180068220Y-71024007D01*
X180067391Y-70979886D01*
X180064487Y-70952352D01*
X180058887Y-70937724D01*
X180052851Y-70933124D01*
X180032561Y-70933877D01*
X180023276Y-70939016D01*
X180008254Y-70945067D01*
X180002485Y-70940153D01*
X179986686Y-70931025D01*
X179963085Y-70930796D01*
X179941909Y-70938997D01*
G36*
X179783150Y-70936782D02*
G01*
X179752415Y-70958586D01*
X179735955Y-70994846D01*
X179732940Y-71026020D01*
X179740199Y-71071644D01*
X179761753Y-71102911D01*
X179797271Y-71119478D01*
X179826459Y-71122216D01*
X179857569Y-71119231D01*
X179881739Y-71112182D01*
X179886221Y-71109516D01*
X179913756Y-71076782D01*
X179924932Y-71036797D01*
X179923047Y-71022914D01*
X179875180Y-71022914D01*
X179868705Y-71056456D01*
X179852262Y-71079086D01*
X179830326Y-71088964D01*
X179807374Y-71084251D01*
X179787879Y-71063108D01*
X179786058Y-71059534D01*
X179778141Y-71025698D01*
X179784256Y-70993765D01*
X179802811Y-70970984D01*
X179805910Y-70969149D01*
X179831522Y-70965177D01*
X179855058Y-70977111D01*
X179871173Y-71000806D01*
X179875180Y-71022914D01*
X179923047Y-71022914D01*
X179919255Y-70995006D01*
X179899677Y-70960759D01*
X179878619Y-70940166D01*
X179855711Y-70931202D01*
X179828096Y-70929500D01*
X179783150Y-70936782D01*
X179783150Y-70936782D01*
G37*
X179783150Y-70936782D02*
X179752415Y-70958586D01*
X179735955Y-70994846D01*
X179732940Y-71026020D01*
X179740199Y-71071644D01*
X179761753Y-71102911D01*
X179797271Y-71119478D01*
X179826459Y-71122216D01*
X179857569Y-71119231D01*
X179881739Y-71112182D01*
X179886221Y-71109516D01*
X179913756Y-71076782D01*
X179924932Y-71036797D01*
X179923047Y-71022914D01*
X179875180Y-71022914D01*
X179868705Y-71056456D01*
X179852262Y-71079086D01*
X179830326Y-71088964D01*
X179807374Y-71084251D01*
X179787879Y-71063108D01*
X179786058Y-71059534D01*
X179778141Y-71025698D01*
X179784256Y-70993765D01*
X179802811Y-70970984D01*
X179805910Y-70969149D01*
X179831522Y-70965177D01*
X179855058Y-70977111D01*
X179871173Y-71000806D01*
X179875180Y-71022914D01*
X179923047Y-71022914D01*
X179919255Y-70995006D01*
X179899677Y-70960759D01*
X179878619Y-70940166D01*
X179855711Y-70931202D01*
X179828096Y-70929500D01*
X179783150Y-70936782D01*
G36*
X179547667Y-70939479D02*
G01*
X179536395Y-70948080D01*
X179526871Y-70965044D01*
X179521534Y-70992625D01*
X179519620Y-71035208D01*
X179519580Y-71044600D01*
X179520089Y-71084212D01*
X179522291Y-71107639D01*
X179527201Y-71119007D01*
X179535833Y-71122438D01*
X179538754Y-71122540D01*
X179549024Y-71119971D01*
X179555437Y-71109455D01*
X179559358Y-71086776D01*
X179561980Y-71050823D01*
X179567023Y-71003959D01*
X179576327Y-70975899D01*
X179590761Y-70965409D01*
X179611196Y-70971260D01*
X179616041Y-70974256D01*
X179628470Y-70987522D01*
X179636292Y-71010501D01*
X179641149Y-71048250D01*
X179641500Y-71052589D01*
X179645058Y-71088194D01*
X179649999Y-71108276D01*
X179658286Y-71117623D01*
X179669440Y-71120706D01*
X179680214Y-71121313D01*
X179686928Y-71116913D01*
X179690541Y-71103761D01*
X179692012Y-71078117D01*
X179692300Y-71036236D01*
X179692300Y-71031487D01*
X179691664Y-70985991D01*
X179689336Y-70956985D01*
X179684691Y-70940665D01*
X179677102Y-70933229D01*
X179676035Y-70932780D01*
X179657766Y-70934338D01*
X179651058Y-70940634D01*
X179640874Y-70949359D01*
X179629732Y-70942115D01*
X179606753Y-70931398D01*
X179576168Y-70930726D01*
X179547667Y-70939479D01*
X179547667Y-70939479D01*
G37*
X179547667Y-70939479D02*
X179536395Y-70948080D01*
X179526871Y-70965044D01*
X179521534Y-70992625D01*
X179519620Y-71035208D01*
X179519580Y-71044600D01*
X179520089Y-71084212D01*
X179522291Y-71107639D01*
X179527201Y-71119007D01*
X179535833Y-71122438D01*
X179538754Y-71122540D01*
X179549024Y-71119971D01*
X179555437Y-71109455D01*
X179559358Y-71086776D01*
X179561980Y-71050823D01*
X179567023Y-71003959D01*
X179576327Y-70975899D01*
X179590761Y-70965409D01*
X179611196Y-70971260D01*
X179616041Y-70974256D01*
X179628470Y-70987522D01*
X179636292Y-71010501D01*
X179641149Y-71048250D01*
X179641500Y-71052589D01*
X179645058Y-71088194D01*
X179649999Y-71108276D01*
X179658286Y-71117623D01*
X179669440Y-71120706D01*
X179680214Y-71121313D01*
X179686928Y-71116913D01*
X179690541Y-71103761D01*
X179692012Y-71078117D01*
X179692300Y-71036236D01*
X179692300Y-71031487D01*
X179691664Y-70985991D01*
X179689336Y-70956985D01*
X179684691Y-70940665D01*
X179677102Y-70933229D01*
X179676035Y-70932780D01*
X179657766Y-70934338D01*
X179651058Y-70940634D01*
X179640874Y-70949359D01*
X179629732Y-70942115D01*
X179606753Y-70931398D01*
X179576168Y-70930726D01*
X179547667Y-70939479D01*
G36*
X179433720Y-70936109D02*
G01*
X179427720Y-70943279D01*
X179424519Y-70959960D01*
X179423255Y-70990021D01*
X179423060Y-71025880D01*
X179423553Y-71069960D01*
X179425522Y-71097643D01*
X179429702Y-71112837D01*
X179436828Y-71119452D01*
X179440871Y-71120611D01*
X179458597Y-71116734D01*
X179464188Y-71109692D01*
X179466441Y-71093168D01*
X179467425Y-71062395D01*
X179466980Y-71023418D01*
X179466697Y-71014961D01*
X179464715Y-70974657D01*
X179461688Y-70950584D01*
X179456432Y-70938657D01*
X179447761Y-70934787D01*
X179443380Y-70934580D01*
X179433720Y-70936109D01*
X179433720Y-70936109D01*
G37*
X179433720Y-70936109D02*
X179427720Y-70943279D01*
X179424519Y-70959960D01*
X179423255Y-70990021D01*
X179423060Y-71025880D01*
X179423553Y-71069960D01*
X179425522Y-71097643D01*
X179429702Y-71112837D01*
X179436828Y-71119452D01*
X179440871Y-71120611D01*
X179458597Y-71116734D01*
X179464188Y-71109692D01*
X179466441Y-71093168D01*
X179467425Y-71062395D01*
X179466980Y-71023418D01*
X179466697Y-71014961D01*
X179464715Y-70974657D01*
X179461688Y-70950584D01*
X179456432Y-70938657D01*
X179447761Y-70934787D01*
X179443380Y-70934580D01*
X179433720Y-70936109D01*
G36*
X179240131Y-70935192D02*
G01*
X179212418Y-70948570D01*
X179196416Y-70969273D01*
X179194460Y-70980876D01*
X179198903Y-70997200D01*
X179213207Y-70998041D01*
X179238838Y-70983354D01*
X179244453Y-70979290D01*
X179267288Y-70965601D01*
X179285047Y-70965187D01*
X179294722Y-70969423D01*
X179316153Y-70991266D01*
X179324332Y-71022488D01*
X179317640Y-71055805D01*
X179315063Y-71060875D01*
X179293633Y-71084053D01*
X179268143Y-71088819D01*
X179242808Y-71074533D01*
X179240585Y-71072187D01*
X179222217Y-71056719D01*
X179208725Y-71051420D01*
X179191892Y-71057723D01*
X179190135Y-71073972D01*
X179203747Y-71096172D01*
X179205327Y-71097892D01*
X179226835Y-71114672D01*
X179254459Y-71121544D01*
X179274972Y-71122216D01*
X179307196Y-71119218D01*
X179332852Y-71112073D01*
X179338841Y-71108688D01*
X179362626Y-71078999D01*
X179373143Y-71040632D01*
X179370340Y-71000341D01*
X179354167Y-70964882D01*
X179340033Y-70950260D01*
X179309289Y-70934912D01*
X179274205Y-70930265D01*
X179240131Y-70935192D01*
X179240131Y-70935192D01*
G37*
X179240131Y-70935192D02*
X179212418Y-70948570D01*
X179196416Y-70969273D01*
X179194460Y-70980876D01*
X179198903Y-70997200D01*
X179213207Y-70998041D01*
X179238838Y-70983354D01*
X179244453Y-70979290D01*
X179267288Y-70965601D01*
X179285047Y-70965187D01*
X179294722Y-70969423D01*
X179316153Y-70991266D01*
X179324332Y-71022488D01*
X179317640Y-71055805D01*
X179315063Y-71060875D01*
X179293633Y-71084053D01*
X179268143Y-71088819D01*
X179242808Y-71074533D01*
X179240585Y-71072187D01*
X179222217Y-71056719D01*
X179208725Y-71051420D01*
X179191892Y-71057723D01*
X179190135Y-71073972D01*
X179203747Y-71096172D01*
X179205327Y-71097892D01*
X179226835Y-71114672D01*
X179254459Y-71121544D01*
X179274972Y-71122216D01*
X179307196Y-71119218D01*
X179332852Y-71112073D01*
X179338841Y-71108688D01*
X179362626Y-71078999D01*
X179373143Y-71040632D01*
X179370340Y-71000341D01*
X179354167Y-70964882D01*
X179340033Y-70950260D01*
X179309289Y-70934912D01*
X179274205Y-70930265D01*
X179240131Y-70935192D01*
G36*
X179034183Y-70933751D02*
G01*
X179007227Y-70949052D01*
X179006283Y-70950060D01*
X178994122Y-70970286D01*
X178998194Y-70982227D01*
X179015300Y-70983531D01*
X179038758Y-70973917D01*
X179065217Y-70964013D01*
X179088333Y-70963853D01*
X179101770Y-70972964D01*
X179103020Y-70978708D01*
X179094268Y-70986902D01*
X179071695Y-70998360D01*
X179049912Y-71007005D01*
X179009519Y-71027029D01*
X178986718Y-71050875D01*
X178982429Y-71076919D01*
X178996062Y-71101912D01*
X179020444Y-71116350D01*
X179055247Y-71123146D01*
X179092426Y-71122182D01*
X179123938Y-71113341D01*
X179137006Y-71103959D01*
X179151926Y-71081032D01*
X179150917Y-71066453D01*
X179137284Y-71062015D01*
X179114330Y-71069509D01*
X179095917Y-71081676D01*
X179073675Y-71094854D01*
X179055059Y-71093337D01*
X179050517Y-71091148D01*
X179035395Y-71077192D01*
X179040120Y-71062787D01*
X179064258Y-71048678D01*
X179078398Y-71043559D01*
X179110459Y-71028541D01*
X179136927Y-71008112D01*
X179152145Y-70987104D01*
X179153820Y-70979174D01*
X179147299Y-70966036D01*
X179133500Y-70949820D01*
X179105739Y-70934119D01*
X179069827Y-70928768D01*
X179034183Y-70933751D01*
X179034183Y-70933751D01*
G37*
X179034183Y-70933751D02*
X179007227Y-70949052D01*
X179006283Y-70950060D01*
X178994122Y-70970286D01*
X178998194Y-70982227D01*
X179015300Y-70983531D01*
X179038758Y-70973917D01*
X179065217Y-70964013D01*
X179088333Y-70963853D01*
X179101770Y-70972964D01*
X179103020Y-70978708D01*
X179094268Y-70986902D01*
X179071695Y-70998360D01*
X179049912Y-71007005D01*
X179009519Y-71027029D01*
X178986718Y-71050875D01*
X178982429Y-71076919D01*
X178996062Y-71101912D01*
X179020444Y-71116350D01*
X179055247Y-71123146D01*
X179092426Y-71122182D01*
X179123938Y-71113341D01*
X179137006Y-71103959D01*
X179151926Y-71081032D01*
X179150917Y-71066453D01*
X179137284Y-71062015D01*
X179114330Y-71069509D01*
X179095917Y-71081676D01*
X179073675Y-71094854D01*
X179055059Y-71093337D01*
X179050517Y-71091148D01*
X179035395Y-71077192D01*
X179040120Y-71062787D01*
X179064258Y-71048678D01*
X179078398Y-71043559D01*
X179110459Y-71028541D01*
X179136927Y-71008112D01*
X179152145Y-70987104D01*
X179153820Y-70979174D01*
X179147299Y-70966036D01*
X179133500Y-70949820D01*
X179105739Y-70934119D01*
X179069827Y-70928768D01*
X179034183Y-70933751D01*
G36*
X178912883Y-71084802D02*
G01*
X178903210Y-71103632D01*
X178911411Y-71117867D01*
X178930900Y-71122540D01*
X178947535Y-71114988D01*
X178950620Y-71102819D01*
X178944423Y-71081197D01*
X178929237Y-71075352D01*
X178912883Y-71084802D01*
X178912883Y-71084802D01*
G37*
X178912883Y-71084802D02*
X178903210Y-71103632D01*
X178911411Y-71117867D01*
X178930900Y-71122540D01*
X178947535Y-71114988D01*
X178950620Y-71102819D01*
X178944423Y-71081197D01*
X178929237Y-71075352D01*
X178912883Y-71084802D01*
G36*
X178711811Y-70935192D02*
G01*
X178684098Y-70948570D01*
X178668096Y-70969273D01*
X178666140Y-70980876D01*
X178670583Y-70997200D01*
X178684887Y-70998041D01*
X178710518Y-70983354D01*
X178716133Y-70979290D01*
X178738968Y-70965601D01*
X178756727Y-70965187D01*
X178766402Y-70969423D01*
X178787833Y-70991266D01*
X178796012Y-71022488D01*
X178789320Y-71055805D01*
X178786743Y-71060875D01*
X178765313Y-71084053D01*
X178739823Y-71088819D01*
X178714488Y-71074533D01*
X178712265Y-71072187D01*
X178693897Y-71056719D01*
X178680405Y-71051420D01*
X178663572Y-71057723D01*
X178661815Y-71073972D01*
X178675427Y-71096172D01*
X178677007Y-71097892D01*
X178698515Y-71114672D01*
X178726139Y-71121544D01*
X178746652Y-71122216D01*
X178778876Y-71119218D01*
X178804532Y-71112073D01*
X178810521Y-71108688D01*
X178834306Y-71078999D01*
X178844823Y-71040632D01*
X178842020Y-71000341D01*
X178825847Y-70964882D01*
X178811713Y-70950260D01*
X178780969Y-70934912D01*
X178745885Y-70930265D01*
X178711811Y-70935192D01*
X178711811Y-70935192D01*
G37*
X178711811Y-70935192D02*
X178684098Y-70948570D01*
X178668096Y-70969273D01*
X178666140Y-70980876D01*
X178670583Y-70997200D01*
X178684887Y-70998041D01*
X178710518Y-70983354D01*
X178716133Y-70979290D01*
X178738968Y-70965601D01*
X178756727Y-70965187D01*
X178766402Y-70969423D01*
X178787833Y-70991266D01*
X178796012Y-71022488D01*
X178789320Y-71055805D01*
X178786743Y-71060875D01*
X178765313Y-71084053D01*
X178739823Y-71088819D01*
X178714488Y-71074533D01*
X178712265Y-71072187D01*
X178693897Y-71056719D01*
X178680405Y-71051420D01*
X178663572Y-71057723D01*
X178661815Y-71073972D01*
X178675427Y-71096172D01*
X178677007Y-71097892D01*
X178698515Y-71114672D01*
X178726139Y-71121544D01*
X178746652Y-71122216D01*
X178778876Y-71119218D01*
X178804532Y-71112073D01*
X178810521Y-71108688D01*
X178834306Y-71078999D01*
X178844823Y-71040632D01*
X178842020Y-71000341D01*
X178825847Y-70964882D01*
X178811713Y-70950260D01*
X178780969Y-70934912D01*
X178745885Y-70930265D01*
X178711811Y-70935192D01*
G36*
X178482670Y-70936782D02*
G01*
X178451935Y-70958586D01*
X178435475Y-70994846D01*
X178432460Y-71026020D01*
X178439719Y-71071644D01*
X178461273Y-71102911D01*
X178496791Y-71119478D01*
X178525979Y-71122216D01*
X178557089Y-71119231D01*
X178581259Y-71112182D01*
X178585741Y-71109516D01*
X178613276Y-71076782D01*
X178624452Y-71036797D01*
X178622567Y-71022914D01*
X178574700Y-71022914D01*
X178568225Y-71056456D01*
X178551782Y-71079086D01*
X178529846Y-71088964D01*
X178506894Y-71084251D01*
X178487399Y-71063108D01*
X178485578Y-71059534D01*
X178477661Y-71025698D01*
X178483776Y-70993765D01*
X178502331Y-70970984D01*
X178505430Y-70969149D01*
X178531042Y-70965177D01*
X178554578Y-70977111D01*
X178570693Y-71000806D01*
X178574700Y-71022914D01*
X178622567Y-71022914D01*
X178618775Y-70995006D01*
X178599197Y-70960759D01*
X178578139Y-70940166D01*
X178555231Y-70931202D01*
X178527616Y-70929500D01*
X178482670Y-70936782D01*
X178482670Y-70936782D01*
G37*
X178482670Y-70936782D02*
X178451935Y-70958586D01*
X178435475Y-70994846D01*
X178432460Y-71026020D01*
X178439719Y-71071644D01*
X178461273Y-71102911D01*
X178496791Y-71119478D01*
X178525979Y-71122216D01*
X178557089Y-71119231D01*
X178581259Y-71112182D01*
X178585741Y-71109516D01*
X178613276Y-71076782D01*
X178624452Y-71036797D01*
X178622567Y-71022914D01*
X178574700Y-71022914D01*
X178568225Y-71056456D01*
X178551782Y-71079086D01*
X178529846Y-71088964D01*
X178506894Y-71084251D01*
X178487399Y-71063108D01*
X178485578Y-71059534D01*
X178477661Y-71025698D01*
X178483776Y-70993765D01*
X178502331Y-70970984D01*
X178505430Y-70969149D01*
X178531042Y-70965177D01*
X178554578Y-70977111D01*
X178570693Y-71000806D01*
X178574700Y-71022914D01*
X178622567Y-71022914D01*
X178618775Y-70995006D01*
X178599197Y-70960759D01*
X178578139Y-70940166D01*
X178555231Y-70931202D01*
X178527616Y-70929500D01*
X178482670Y-70936782D01*
G36*
X178253230Y-70934362D02*
G01*
X178242543Y-70940601D01*
X178226790Y-70946475D01*
X178210699Y-70940601D01*
X178176493Y-70930406D01*
X178143294Y-70933692D01*
X178123306Y-70945465D01*
X178114434Y-70960869D01*
X178109348Y-70987724D01*
X178107409Y-71029929D01*
X178107340Y-71042692D01*
X178107640Y-71082955D01*
X178109313Y-71106864D01*
X178113520Y-71118385D01*
X178121426Y-71121484D01*
X178130200Y-71120706D01*
X178142384Y-71117033D01*
X178149898Y-71107250D01*
X178154464Y-71086781D01*
X178157800Y-71051048D01*
X178158140Y-71046340D01*
X178161265Y-71009151D01*
X178165219Y-70987853D01*
X178171861Y-70978042D01*
X178183052Y-70975315D01*
X178188162Y-70975220D01*
X178206683Y-70980320D01*
X178218809Y-70997456D01*
X178225654Y-71029379D01*
X178228248Y-71074280D01*
X178230208Y-71104054D01*
X178235825Y-71118493D01*
X178247163Y-71122520D01*
X178248493Y-71122540D01*
X178264041Y-71118378D01*
X178273734Y-71103725D01*
X178278698Y-71075328D01*
X178280060Y-71031356D01*
X178282353Y-70991433D01*
X178289353Y-70970444D01*
X178293682Y-70967087D01*
X178313713Y-70965869D01*
X178327923Y-70980938D01*
X178337106Y-71013656D01*
X178341020Y-71048498D01*
X178344407Y-71085388D01*
X178348950Y-71106614D01*
X178356446Y-71116825D01*
X178368695Y-71120668D01*
X178368960Y-71120706D01*
X178379734Y-71121313D01*
X178386448Y-71116913D01*
X178390061Y-71103761D01*
X178391532Y-71078117D01*
X178391820Y-71036236D01*
X178391820Y-71031487D01*
X178391184Y-70985991D01*
X178388856Y-70956985D01*
X178384211Y-70940665D01*
X178376622Y-70933229D01*
X178375555Y-70932780D01*
X178357286Y-70934338D01*
X178350578Y-70940634D01*
X178340394Y-70949359D01*
X178329252Y-70942115D01*
X178308688Y-70932552D01*
X178279872Y-70929907D01*
X178253230Y-70934362D01*
X178253230Y-70934362D01*
G37*
X178253230Y-70934362D02*
X178242543Y-70940601D01*
X178226790Y-70946475D01*
X178210699Y-70940601D01*
X178176493Y-70930406D01*
X178143294Y-70933692D01*
X178123306Y-70945465D01*
X178114434Y-70960869D01*
X178109348Y-70987724D01*
X178107409Y-71029929D01*
X178107340Y-71042692D01*
X178107640Y-71082955D01*
X178109313Y-71106864D01*
X178113520Y-71118385D01*
X178121426Y-71121484D01*
X178130200Y-71120706D01*
X178142384Y-71117033D01*
X178149898Y-71107250D01*
X178154464Y-71086781D01*
X178157800Y-71051048D01*
X178158140Y-71046340D01*
X178161265Y-71009151D01*
X178165219Y-70987853D01*
X178171861Y-70978042D01*
X178183052Y-70975315D01*
X178188162Y-70975220D01*
X178206683Y-70980320D01*
X178218809Y-70997456D01*
X178225654Y-71029379D01*
X178228248Y-71074280D01*
X178230208Y-71104054D01*
X178235825Y-71118493D01*
X178247163Y-71122520D01*
X178248493Y-71122540D01*
X178264041Y-71118378D01*
X178273734Y-71103725D01*
X178278698Y-71075328D01*
X178280060Y-71031356D01*
X178282353Y-70991433D01*
X178289353Y-70970444D01*
X178293682Y-70967087D01*
X178313713Y-70965869D01*
X178327923Y-70980938D01*
X178337106Y-71013656D01*
X178341020Y-71048498D01*
X178344407Y-71085388D01*
X178348950Y-71106614D01*
X178356446Y-71116825D01*
X178368695Y-71120668D01*
X178368960Y-71120706D01*
X178379734Y-71121313D01*
X178386448Y-71116913D01*
X178390061Y-71103761D01*
X178391532Y-71078117D01*
X178391820Y-71036236D01*
X178391820Y-71031487D01*
X178391184Y-70985991D01*
X178388856Y-70956985D01*
X178384211Y-70940665D01*
X178376622Y-70933229D01*
X178375555Y-70932780D01*
X178357286Y-70934338D01*
X178350578Y-70940634D01*
X178340394Y-70949359D01*
X178329252Y-70942115D01*
X178308688Y-70932552D01*
X178279872Y-70929907D01*
X178253230Y-70934362D01*
G36*
X179428265Y-70864832D02*
G01*
X179419920Y-70876369D01*
X179420518Y-70881245D01*
X179433097Y-70894300D01*
X179451623Y-70896581D01*
X179463900Y-70888537D01*
X179464350Y-70872083D01*
X179460450Y-70866305D01*
X179444768Y-70860358D01*
X179428265Y-70864832D01*
X179428265Y-70864832D01*
G37*
X179428265Y-70864832D02*
X179419920Y-70876369D01*
X179420518Y-70881245D01*
X179433097Y-70894300D01*
X179451623Y-70896581D01*
X179463900Y-70888537D01*
X179464350Y-70872083D01*
X179460450Y-70866305D01*
X179444768Y-70860358D01*
X179428265Y-70864832D01*
G36*
X183709047Y-70090129D02*
G01*
X183682338Y-70098265D01*
X183668965Y-70104546D01*
X183616711Y-70141375D01*
X183578689Y-70189425D01*
X183557167Y-70245195D01*
X183553100Y-70283437D01*
X183555179Y-70307334D01*
X183563176Y-70324852D01*
X183579737Y-70336947D01*
X183607505Y-70344575D01*
X183649123Y-70348693D01*
X183707237Y-70350255D01*
X183738241Y-70350380D01*
X183878220Y-70350380D01*
X183878220Y-70375301D01*
X183869768Y-70419966D01*
X183846783Y-70453924D01*
X183812825Y-70475720D01*
X183771451Y-70483901D01*
X183726222Y-70477011D01*
X183682866Y-70455141D01*
X183644368Y-70428403D01*
X183618787Y-70411859D01*
X183602473Y-70403936D01*
X183591780Y-70403059D01*
X183583058Y-70407655D01*
X183579470Y-70410535D01*
X183565989Y-70432891D01*
X183568305Y-70460767D01*
X183584055Y-70490561D01*
X183610879Y-70518670D01*
X183646415Y-70541494D01*
X183671847Y-70551428D01*
X183716153Y-70559738D01*
X183768646Y-70562489D01*
X183819378Y-70559575D01*
X183851312Y-70553309D01*
X183907150Y-70526272D01*
X183952461Y-70482713D01*
X183976100Y-70444577D01*
X183989903Y-70413559D01*
X183997308Y-70385902D01*
X183999689Y-70353556D01*
X183998609Y-70312497D01*
X183993439Y-70268432D01*
X183878220Y-70268432D01*
X183876964Y-70277975D01*
X183870737Y-70284084D01*
X183855851Y-70287519D01*
X183828618Y-70289042D01*
X183785349Y-70289416D01*
X183776620Y-70289420D01*
X183675020Y-70289420D01*
X183675020Y-70258158D01*
X183684313Y-70222381D01*
X183708766Y-70192330D01*
X183743247Y-70172727D01*
X183773299Y-70167725D01*
X183815587Y-70176848D01*
X183850006Y-70200906D01*
X183872198Y-70235719D01*
X183878220Y-70268432D01*
X183993439Y-70268432D01*
X183990708Y-70245162D01*
X183972901Y-70192519D01*
X183943336Y-70150608D01*
X183909515Y-70121818D01*
X183883711Y-70105520D01*
X183858715Y-70095732D01*
X183827238Y-70090420D01*
X183787524Y-70087793D01*
X183741760Y-70086970D01*
X183709047Y-70090129D01*
X183709047Y-70090129D01*
G37*
X183709047Y-70090129D02*
X183682338Y-70098265D01*
X183668965Y-70104546D01*
X183616711Y-70141375D01*
X183578689Y-70189425D01*
X183557167Y-70245195D01*
X183553100Y-70283437D01*
X183555179Y-70307334D01*
X183563176Y-70324852D01*
X183579737Y-70336947D01*
X183607505Y-70344575D01*
X183649123Y-70348693D01*
X183707237Y-70350255D01*
X183738241Y-70350380D01*
X183878220Y-70350380D01*
X183878220Y-70375301D01*
X183869768Y-70419966D01*
X183846783Y-70453924D01*
X183812825Y-70475720D01*
X183771451Y-70483901D01*
X183726222Y-70477011D01*
X183682866Y-70455141D01*
X183644368Y-70428403D01*
X183618787Y-70411859D01*
X183602473Y-70403936D01*
X183591780Y-70403059D01*
X183583058Y-70407655D01*
X183579470Y-70410535D01*
X183565989Y-70432891D01*
X183568305Y-70460767D01*
X183584055Y-70490561D01*
X183610879Y-70518670D01*
X183646415Y-70541494D01*
X183671847Y-70551428D01*
X183716153Y-70559738D01*
X183768646Y-70562489D01*
X183819378Y-70559575D01*
X183851312Y-70553309D01*
X183907150Y-70526272D01*
X183952461Y-70482713D01*
X183976100Y-70444577D01*
X183989903Y-70413559D01*
X183997308Y-70385902D01*
X183999689Y-70353556D01*
X183998609Y-70312497D01*
X183993439Y-70268432D01*
X183878220Y-70268432D01*
X183876964Y-70277975D01*
X183870737Y-70284084D01*
X183855851Y-70287519D01*
X183828618Y-70289042D01*
X183785349Y-70289416D01*
X183776620Y-70289420D01*
X183675020Y-70289420D01*
X183675020Y-70258158D01*
X183684313Y-70222381D01*
X183708766Y-70192330D01*
X183743247Y-70172727D01*
X183773299Y-70167725D01*
X183815587Y-70176848D01*
X183850006Y-70200906D01*
X183872198Y-70235719D01*
X183878220Y-70268432D01*
X183993439Y-70268432D01*
X183990708Y-70245162D01*
X183972901Y-70192519D01*
X183943336Y-70150608D01*
X183909515Y-70121818D01*
X183883711Y-70105520D01*
X183858715Y-70095732D01*
X183827238Y-70090420D01*
X183787524Y-70087793D01*
X183741760Y-70086970D01*
X183709047Y-70090129D01*
G36*
X183386581Y-69907028D02*
G01*
X183371590Y-69914489D01*
X183344820Y-69929510D01*
X183342131Y-70230509D01*
X183341460Y-70317903D01*
X183341248Y-70387195D01*
X183341587Y-70440601D01*
X183342572Y-70480337D01*
X183344297Y-70508617D01*
X183346855Y-70527658D01*
X183350341Y-70539674D01*
X183354847Y-70546881D01*
X183355556Y-70547624D01*
X183382374Y-70561722D01*
X183413189Y-70560664D01*
X183435535Y-70547774D01*
X183440195Y-70540843D01*
X183443871Y-70528960D01*
X183446673Y-70509921D01*
X183448714Y-70481522D01*
X183450105Y-70441558D01*
X183450959Y-70387824D01*
X183451387Y-70318116D01*
X183451500Y-70233048D01*
X183451500Y-69934288D01*
X183424930Y-69916878D01*
X183403856Y-69905691D01*
X183386581Y-69907028D01*
X183386581Y-69907028D01*
G37*
X183386581Y-69907028D02*
X183371590Y-69914489D01*
X183344820Y-69929510D01*
X183342131Y-70230509D01*
X183341460Y-70317903D01*
X183341248Y-70387195D01*
X183341587Y-70440601D01*
X183342572Y-70480337D01*
X183344297Y-70508617D01*
X183346855Y-70527658D01*
X183350341Y-70539674D01*
X183354847Y-70546881D01*
X183355556Y-70547624D01*
X183382374Y-70561722D01*
X183413189Y-70560664D01*
X183435535Y-70547774D01*
X183440195Y-70540843D01*
X183443871Y-70528960D01*
X183446673Y-70509921D01*
X183448714Y-70481522D01*
X183450105Y-70441558D01*
X183450959Y-70387824D01*
X183451387Y-70318116D01*
X183451500Y-70233048D01*
X183451500Y-69934288D01*
X183424930Y-69916878D01*
X183403856Y-69905691D01*
X183386581Y-69907028D01*
G36*
X182936887Y-70090129D02*
G01*
X182910178Y-70098265D01*
X182896805Y-70104546D01*
X182844551Y-70141375D01*
X182806529Y-70189425D01*
X182785007Y-70245195D01*
X182780940Y-70283437D01*
X182783019Y-70307334D01*
X182791016Y-70324852D01*
X182807577Y-70336947D01*
X182835345Y-70344575D01*
X182876963Y-70348693D01*
X182935077Y-70350255D01*
X182966081Y-70350380D01*
X183106060Y-70350380D01*
X183106060Y-70375301D01*
X183097608Y-70419966D01*
X183074623Y-70453924D01*
X183040665Y-70475720D01*
X182999291Y-70483901D01*
X182954062Y-70477011D01*
X182910706Y-70455141D01*
X182872208Y-70428403D01*
X182846627Y-70411859D01*
X182830313Y-70403936D01*
X182819620Y-70403059D01*
X182810898Y-70407655D01*
X182807310Y-70410535D01*
X182793829Y-70432891D01*
X182796145Y-70460767D01*
X182811895Y-70490561D01*
X182838719Y-70518670D01*
X182874255Y-70541494D01*
X182899687Y-70551428D01*
X182943993Y-70559738D01*
X182996486Y-70562489D01*
X183047218Y-70559575D01*
X183079152Y-70553309D01*
X183134990Y-70526272D01*
X183180301Y-70482713D01*
X183203940Y-70444577D01*
X183217743Y-70413559D01*
X183225148Y-70385902D01*
X183227529Y-70353556D01*
X183226449Y-70312497D01*
X183221279Y-70268432D01*
X183106060Y-70268432D01*
X183104804Y-70277975D01*
X183098577Y-70284084D01*
X183083691Y-70287519D01*
X183056458Y-70289042D01*
X183013189Y-70289416D01*
X183004460Y-70289420D01*
X182902860Y-70289420D01*
X182902860Y-70258158D01*
X182912153Y-70222381D01*
X182936606Y-70192330D01*
X182971087Y-70172727D01*
X183001139Y-70167725D01*
X183043427Y-70176848D01*
X183077846Y-70200906D01*
X183100038Y-70235719D01*
X183106060Y-70268432D01*
X183221279Y-70268432D01*
X183218548Y-70245162D01*
X183200741Y-70192519D01*
X183171176Y-70150608D01*
X183137355Y-70121818D01*
X183111551Y-70105520D01*
X183086555Y-70095732D01*
X183055078Y-70090420D01*
X183015364Y-70087793D01*
X182969600Y-70086970D01*
X182936887Y-70090129D01*
X182936887Y-70090129D01*
G37*
X182936887Y-70090129D02*
X182910178Y-70098265D01*
X182896805Y-70104546D01*
X182844551Y-70141375D01*
X182806529Y-70189425D01*
X182785007Y-70245195D01*
X182780940Y-70283437D01*
X182783019Y-70307334D01*
X182791016Y-70324852D01*
X182807577Y-70336947D01*
X182835345Y-70344575D01*
X182876963Y-70348693D01*
X182935077Y-70350255D01*
X182966081Y-70350380D01*
X183106060Y-70350380D01*
X183106060Y-70375301D01*
X183097608Y-70419966D01*
X183074623Y-70453924D01*
X183040665Y-70475720D01*
X182999291Y-70483901D01*
X182954062Y-70477011D01*
X182910706Y-70455141D01*
X182872208Y-70428403D01*
X182846627Y-70411859D01*
X182830313Y-70403936D01*
X182819620Y-70403059D01*
X182810898Y-70407655D01*
X182807310Y-70410535D01*
X182793829Y-70432891D01*
X182796145Y-70460767D01*
X182811895Y-70490561D01*
X182838719Y-70518670D01*
X182874255Y-70541494D01*
X182899687Y-70551428D01*
X182943993Y-70559738D01*
X182996486Y-70562489D01*
X183047218Y-70559575D01*
X183079152Y-70553309D01*
X183134990Y-70526272D01*
X183180301Y-70482713D01*
X183203940Y-70444577D01*
X183217743Y-70413559D01*
X183225148Y-70385902D01*
X183227529Y-70353556D01*
X183226449Y-70312497D01*
X183221279Y-70268432D01*
X183106060Y-70268432D01*
X183104804Y-70277975D01*
X183098577Y-70284084D01*
X183083691Y-70287519D01*
X183056458Y-70289042D01*
X183013189Y-70289416D01*
X183004460Y-70289420D01*
X182902860Y-70289420D01*
X182902860Y-70258158D01*
X182912153Y-70222381D01*
X182936606Y-70192330D01*
X182971087Y-70172727D01*
X183001139Y-70167725D01*
X183043427Y-70176848D01*
X183077846Y-70200906D01*
X183100038Y-70235719D01*
X183106060Y-70268432D01*
X183221279Y-70268432D01*
X183218548Y-70245162D01*
X183200741Y-70192519D01*
X183171176Y-70150608D01*
X183137355Y-70121818D01*
X183111551Y-70105520D01*
X183086555Y-70095732D01*
X183055078Y-70090420D01*
X183015364Y-70087793D01*
X182969600Y-70086970D01*
X182936887Y-70090129D01*
G36*
X182398497Y-70093708D02*
G01*
X182341385Y-70115545D01*
X182297686Y-70150786D01*
X182285723Y-70166462D01*
X182266957Y-70202348D01*
X182264892Y-70230319D01*
X182278746Y-70253134D01*
X182305451Y-70268230D01*
X182334259Y-70263883D01*
X182363109Y-70240540D01*
X182368668Y-70233676D01*
X182400852Y-70198901D01*
X182433927Y-70180635D01*
X182471098Y-70175628D01*
X182512903Y-70184670D01*
X182546747Y-70209462D01*
X182571164Y-70246499D01*
X182584691Y-70292275D01*
X182585862Y-70343288D01*
X182573212Y-70396033D01*
X182568221Y-70407980D01*
X182546986Y-70443815D01*
X182520252Y-70463906D01*
X182482344Y-70471778D01*
X182464626Y-70472300D01*
X182439660Y-70470706D01*
X182419930Y-70463617D01*
X182399229Y-70447569D01*
X182373602Y-70421500D01*
X182338355Y-70388510D01*
X182310271Y-70373269D01*
X182287499Y-70375316D01*
X182268185Y-70394190D01*
X182267556Y-70395138D01*
X182257787Y-70414077D01*
X182258091Y-70432180D01*
X182266244Y-70454758D01*
X182294521Y-70497513D01*
X182337206Y-70530518D01*
X182390346Y-70552727D01*
X182449986Y-70563094D01*
X182512174Y-70560573D01*
X182572955Y-70544118D01*
X182584707Y-70539011D01*
X182635905Y-70504589D01*
X182673363Y-70456563D01*
X182696107Y-70397140D01*
X182703164Y-70328523D01*
X182698910Y-70280238D01*
X182679988Y-70210988D01*
X182647551Y-70156909D01*
X182601664Y-70118053D01*
X182542391Y-70094476D01*
X182469796Y-70086230D01*
X182466893Y-70086220D01*
X182398497Y-70093708D01*
X182398497Y-70093708D01*
G37*
X182398497Y-70093708D02*
X182341385Y-70115545D01*
X182297686Y-70150786D01*
X182285723Y-70166462D01*
X182266957Y-70202348D01*
X182264892Y-70230319D01*
X182278746Y-70253134D01*
X182305451Y-70268230D01*
X182334259Y-70263883D01*
X182363109Y-70240540D01*
X182368668Y-70233676D01*
X182400852Y-70198901D01*
X182433927Y-70180635D01*
X182471098Y-70175628D01*
X182512903Y-70184670D01*
X182546747Y-70209462D01*
X182571164Y-70246499D01*
X182584691Y-70292275D01*
X182585862Y-70343288D01*
X182573212Y-70396033D01*
X182568221Y-70407980D01*
X182546986Y-70443815D01*
X182520252Y-70463906D01*
X182482344Y-70471778D01*
X182464626Y-70472300D01*
X182439660Y-70470706D01*
X182419930Y-70463617D01*
X182399229Y-70447569D01*
X182373602Y-70421500D01*
X182338355Y-70388510D01*
X182310271Y-70373269D01*
X182287499Y-70375316D01*
X182268185Y-70394190D01*
X182267556Y-70395138D01*
X182257787Y-70414077D01*
X182258091Y-70432180D01*
X182266244Y-70454758D01*
X182294521Y-70497513D01*
X182337206Y-70530518D01*
X182390346Y-70552727D01*
X182449986Y-70563094D01*
X182512174Y-70560573D01*
X182572955Y-70544118D01*
X182584707Y-70539011D01*
X182635905Y-70504589D01*
X182673363Y-70456563D01*
X182696107Y-70397140D01*
X182703164Y-70328523D01*
X182698910Y-70280238D01*
X182679988Y-70210988D01*
X182647551Y-70156909D01*
X182601664Y-70118053D01*
X182542391Y-70094476D01*
X182469796Y-70086230D01*
X182466893Y-70086220D01*
X182398497Y-70093708D01*
G36*
X182054656Y-69926646D02*
G01*
X182037040Y-69937210D01*
X182026523Y-69959178D01*
X182020634Y-69996218D01*
X182018940Y-70017251D01*
X182013860Y-70091300D01*
X181975791Y-70094451D01*
X181943243Y-70103473D01*
X181925830Y-70120712D01*
X181923028Y-70141428D01*
X181934317Y-70160885D01*
X181959174Y-70174343D01*
X181984955Y-70177660D01*
X182018940Y-70177660D01*
X182018940Y-70307798D01*
X182017933Y-70373573D01*
X182014864Y-70419907D01*
X182009666Y-70447582D01*
X182006240Y-70454676D01*
X181985407Y-70467266D01*
X181948087Y-70474031D01*
X181942740Y-70474398D01*
X181912655Y-70476927D01*
X181897648Y-70482168D01*
X181892491Y-70493535D01*
X181891940Y-70507559D01*
X181898258Y-70534722D01*
X181917340Y-70550590D01*
X181947784Y-70559255D01*
X181989016Y-70562893D01*
X182032166Y-70561498D01*
X182068364Y-70555065D01*
X182079700Y-70550689D01*
X182097762Y-70539191D01*
X182111039Y-70523615D01*
X182120239Y-70500935D01*
X182126069Y-70468122D01*
X182129239Y-70422151D01*
X182130455Y-70359993D01*
X182130551Y-70333274D01*
X182130700Y-70179009D01*
X182157616Y-70175794D01*
X182185679Y-70165362D01*
X182199154Y-70146304D01*
X182197856Y-70124328D01*
X182181596Y-70105146D01*
X182160219Y-70096197D01*
X182147183Y-70091327D01*
X182139219Y-70081108D01*
X182134480Y-70060753D01*
X182131117Y-70025478D01*
X182130700Y-70019766D01*
X182126390Y-69974547D01*
X182120096Y-69946012D01*
X182109967Y-69930526D01*
X182094152Y-69924456D01*
X182081841Y-69923815D01*
X182054656Y-69926646D01*
X182054656Y-69926646D01*
G37*
X182054656Y-69926646D02*
X182037040Y-69937210D01*
X182026523Y-69959178D01*
X182020634Y-69996218D01*
X182018940Y-70017251D01*
X182013860Y-70091300D01*
X181975791Y-70094451D01*
X181943243Y-70103473D01*
X181925830Y-70120712D01*
X181923028Y-70141428D01*
X181934317Y-70160885D01*
X181959174Y-70174343D01*
X181984955Y-70177660D01*
X182018940Y-70177660D01*
X182018940Y-70307798D01*
X182017933Y-70373573D01*
X182014864Y-70419907D01*
X182009666Y-70447582D01*
X182006240Y-70454676D01*
X181985407Y-70467266D01*
X181948087Y-70474031D01*
X181942740Y-70474398D01*
X181912655Y-70476927D01*
X181897648Y-70482168D01*
X181892491Y-70493535D01*
X181891940Y-70507559D01*
X181898258Y-70534722D01*
X181917340Y-70550590D01*
X181947784Y-70559255D01*
X181989016Y-70562893D01*
X182032166Y-70561498D01*
X182068364Y-70555065D01*
X182079700Y-70550689D01*
X182097762Y-70539191D01*
X182111039Y-70523615D01*
X182120239Y-70500935D01*
X182126069Y-70468122D01*
X182129239Y-70422151D01*
X182130455Y-70359993D01*
X182130551Y-70333274D01*
X182130700Y-70179009D01*
X182157616Y-70175794D01*
X182185679Y-70165362D01*
X182199154Y-70146304D01*
X182197856Y-70124328D01*
X182181596Y-70105146D01*
X182160219Y-70096197D01*
X182147183Y-70091327D01*
X182139219Y-70081108D01*
X182134480Y-70060753D01*
X182131117Y-70025478D01*
X182130700Y-70019766D01*
X182126390Y-69974547D01*
X182120096Y-69946012D01*
X182109967Y-69930526D01*
X182094152Y-69924456D01*
X182081841Y-69923815D01*
X182054656Y-69926646D01*
G36*
X181754585Y-70096178D02*
G01*
X181736998Y-70115558D01*
X181720160Y-70144896D01*
X181692754Y-70115558D01*
X181667712Y-70094758D01*
X181639013Y-70086830D01*
X181623200Y-70086220D01*
X181577971Y-70091855D01*
X181542641Y-70107169D01*
X181520203Y-70129771D01*
X181513646Y-70157273D01*
X181516877Y-70171148D01*
X181521568Y-70180897D01*
X181529390Y-70186911D01*
X181544717Y-70190162D01*
X181571918Y-70191620D01*
X181611799Y-70192218D01*
X181647581Y-70193204D01*
X181669173Y-70196873D01*
X181682706Y-70205699D01*
X181694310Y-70222154D01*
X181696931Y-70226564D01*
X181705552Y-70244785D01*
X181711833Y-70268186D01*
X181716354Y-70300710D01*
X181719692Y-70346302D01*
X181722001Y-70397487D01*
X181725006Y-70459622D01*
X181729193Y-70504244D01*
X181735545Y-70534158D01*
X181745043Y-70552170D01*
X181758669Y-70561087D01*
X181777406Y-70563714D01*
X181780180Y-70563740D01*
X181806164Y-70557130D01*
X181820095Y-70547774D01*
X181825667Y-70539403D01*
X181829811Y-70525191D01*
X181832722Y-70502434D01*
X181834599Y-70468426D01*
X181835638Y-70420462D01*
X181836036Y-70355838D01*
X181836060Y-70328666D01*
X181835531Y-70258007D01*
X181834023Y-70197699D01*
X181831660Y-70150346D01*
X181828565Y-70118552D01*
X181825543Y-70105872D01*
X181806626Y-70088610D01*
X181780733Y-70085623D01*
X181754585Y-70096178D01*
X181754585Y-70096178D01*
G37*
X181754585Y-70096178D02*
X181736998Y-70115558D01*
X181720160Y-70144896D01*
X181692754Y-70115558D01*
X181667712Y-70094758D01*
X181639013Y-70086830D01*
X181623200Y-70086220D01*
X181577971Y-70091855D01*
X181542641Y-70107169D01*
X181520203Y-70129771D01*
X181513646Y-70157273D01*
X181516877Y-70171148D01*
X181521568Y-70180897D01*
X181529390Y-70186911D01*
X181544717Y-70190162D01*
X181571918Y-70191620D01*
X181611799Y-70192218D01*
X181647581Y-70193204D01*
X181669173Y-70196873D01*
X181682706Y-70205699D01*
X181694310Y-70222154D01*
X181696931Y-70226564D01*
X181705552Y-70244785D01*
X181711833Y-70268186D01*
X181716354Y-70300710D01*
X181719692Y-70346302D01*
X181722001Y-70397487D01*
X181725006Y-70459622D01*
X181729193Y-70504244D01*
X181735545Y-70534158D01*
X181745043Y-70552170D01*
X181758669Y-70561087D01*
X181777406Y-70563714D01*
X181780180Y-70563740D01*
X181806164Y-70557130D01*
X181820095Y-70547774D01*
X181825667Y-70539403D01*
X181829811Y-70525191D01*
X181832722Y-70502434D01*
X181834599Y-70468426D01*
X181835638Y-70420462D01*
X181836036Y-70355838D01*
X181836060Y-70328666D01*
X181835531Y-70258007D01*
X181834023Y-70197699D01*
X181831660Y-70150346D01*
X181828565Y-70118552D01*
X181825543Y-70105872D01*
X181806626Y-70088610D01*
X181780733Y-70085623D01*
X181754585Y-70096178D01*
G36*
X181196773Y-70094373D02*
G01*
X181136084Y-70118527D01*
X181087714Y-70158631D01*
X181052682Y-70213220D01*
X181039188Y-70258930D01*
X181033714Y-70314769D01*
X181036270Y-70372189D01*
X181046869Y-70422641D01*
X181052369Y-70436827D01*
X181086644Y-70489337D01*
X181133815Y-70528757D01*
X181190411Y-70554035D01*
X181252958Y-70564123D01*
X181317985Y-70557968D01*
X181379529Y-70535800D01*
X181432475Y-70499502D01*
X181469562Y-70451711D01*
X181491644Y-70391061D01*
X181498216Y-70345866D01*
X181497610Y-70326852D01*
X181378823Y-70326852D01*
X181371627Y-70385901D01*
X181350430Y-70431273D01*
X181315692Y-70462092D01*
X181305000Y-70467396D01*
X181278462Y-70478165D01*
X181260269Y-70480847D01*
X181240158Y-70475519D01*
X181221729Y-70468020D01*
X181185384Y-70442510D01*
X181162079Y-70401695D01*
X181151714Y-70345370D01*
X181151112Y-70324980D01*
X181157696Y-70267110D01*
X181176281Y-70220913D01*
X181205123Y-70188433D01*
X181242475Y-70171713D01*
X181281950Y-70171836D01*
X181323342Y-70189194D01*
X181354019Y-70222684D01*
X181372872Y-70270529D01*
X181378823Y-70326852D01*
X181497610Y-70326852D01*
X181495854Y-70271792D01*
X181477001Y-70208073D01*
X181442967Y-70156194D01*
X181395067Y-70117645D01*
X181334612Y-70093912D01*
X181269314Y-70086443D01*
X181196773Y-70094373D01*
X181196773Y-70094373D01*
G37*
X181196773Y-70094373D02*
X181136084Y-70118527D01*
X181087714Y-70158631D01*
X181052682Y-70213220D01*
X181039188Y-70258930D01*
X181033714Y-70314769D01*
X181036270Y-70372189D01*
X181046869Y-70422641D01*
X181052369Y-70436827D01*
X181086644Y-70489337D01*
X181133815Y-70528757D01*
X181190411Y-70554035D01*
X181252958Y-70564123D01*
X181317985Y-70557968D01*
X181379529Y-70535800D01*
X181432475Y-70499502D01*
X181469562Y-70451711D01*
X181491644Y-70391061D01*
X181498216Y-70345866D01*
X181497610Y-70326852D01*
X181378823Y-70326852D01*
X181371627Y-70385901D01*
X181350430Y-70431273D01*
X181315692Y-70462092D01*
X181305000Y-70467396D01*
X181278462Y-70478165D01*
X181260269Y-70480847D01*
X181240158Y-70475519D01*
X181221729Y-70468020D01*
X181185384Y-70442510D01*
X181162079Y-70401695D01*
X181151714Y-70345370D01*
X181151112Y-70324980D01*
X181157696Y-70267110D01*
X181176281Y-70220913D01*
X181205123Y-70188433D01*
X181242475Y-70171713D01*
X181281950Y-70171836D01*
X181323342Y-70189194D01*
X181354019Y-70222684D01*
X181372872Y-70270529D01*
X181378823Y-70326852D01*
X181497610Y-70326852D01*
X181495854Y-70271792D01*
X181477001Y-70208073D01*
X181442967Y-70156194D01*
X181395067Y-70117645D01*
X181334612Y-70093912D01*
X181269314Y-70086443D01*
X181196773Y-70094373D01*
G36*
X180619321Y-70091450D02*
G01*
X180595932Y-70102258D01*
X180586380Y-70108392D01*
X180561989Y-70126921D01*
X180543823Y-70147206D01*
X180530995Y-70172470D01*
X180522616Y-70205936D01*
X180517801Y-70250827D01*
X180515660Y-70310366D01*
X180515276Y-70366585D01*
X180515491Y-70428623D01*
X180516367Y-70473549D01*
X180518237Y-70504568D01*
X180521428Y-70524886D01*
X180526272Y-70537709D01*
X180533099Y-70546241D01*
X180533841Y-70546925D01*
X180563350Y-70562208D01*
X180594374Y-70558256D01*
X180623819Y-70535622D01*
X180628415Y-70529994D01*
X180629261Y-70519770D01*
X180630693Y-70492707D01*
X180632548Y-70452271D01*
X180634665Y-70401929D01*
X180636035Y-70367328D01*
X180638638Y-70305972D01*
X180641267Y-70261747D01*
X180644394Y-70231467D01*
X180648490Y-70211946D01*
X180654026Y-70200000D01*
X180661475Y-70192443D01*
X180661982Y-70192068D01*
X180696911Y-70178259D01*
X180736244Y-70181565D01*
X180774585Y-70201302D01*
X180781800Y-70207287D01*
X180814980Y-70236915D01*
X180820060Y-70383577D01*
X180823149Y-70450741D01*
X180827204Y-70499246D01*
X180832418Y-70530739D01*
X180838982Y-70546864D01*
X180839085Y-70546989D01*
X180861980Y-70560652D01*
X180891378Y-70562445D01*
X180917296Y-70552372D01*
X180922956Y-70546967D01*
X180928267Y-70535200D01*
X180932375Y-70512760D01*
X180935459Y-70477398D01*
X180937696Y-70426861D01*
X180939265Y-70358899D01*
X180939612Y-70336147D01*
X180940329Y-70259191D01*
X180939676Y-70200185D01*
X180937088Y-70156777D01*
X180932000Y-70126614D01*
X180923846Y-70107343D01*
X180912058Y-70096611D01*
X180896072Y-70092065D01*
X180880720Y-70091300D01*
X180855708Y-70093886D01*
X180842687Y-70105498D01*
X180836017Y-70123333D01*
X180826574Y-70155366D01*
X180787273Y-70123784D01*
X180759498Y-70104571D01*
X180731289Y-70093993D01*
X180693570Y-70088903D01*
X180684957Y-70088320D01*
X180646245Y-70087364D01*
X180619321Y-70091450D01*
X180619321Y-70091450D01*
G37*
X180619321Y-70091450D02*
X180595932Y-70102258D01*
X180586380Y-70108392D01*
X180561989Y-70126921D01*
X180543823Y-70147206D01*
X180530995Y-70172470D01*
X180522616Y-70205936D01*
X180517801Y-70250827D01*
X180515660Y-70310366D01*
X180515276Y-70366585D01*
X180515491Y-70428623D01*
X180516367Y-70473549D01*
X180518237Y-70504568D01*
X180521428Y-70524886D01*
X180526272Y-70537709D01*
X180533099Y-70546241D01*
X180533841Y-70546925D01*
X180563350Y-70562208D01*
X180594374Y-70558256D01*
X180623819Y-70535622D01*
X180628415Y-70529994D01*
X180629261Y-70519770D01*
X180630693Y-70492707D01*
X180632548Y-70452271D01*
X180634665Y-70401929D01*
X180636035Y-70367328D01*
X180638638Y-70305972D01*
X180641267Y-70261747D01*
X180644394Y-70231467D01*
X180648490Y-70211946D01*
X180654026Y-70200000D01*
X180661475Y-70192443D01*
X180661982Y-70192068D01*
X180696911Y-70178259D01*
X180736244Y-70181565D01*
X180774585Y-70201302D01*
X180781800Y-70207287D01*
X180814980Y-70236915D01*
X180820060Y-70383577D01*
X180823149Y-70450741D01*
X180827204Y-70499246D01*
X180832418Y-70530739D01*
X180838982Y-70546864D01*
X180839085Y-70546989D01*
X180861980Y-70560652D01*
X180891378Y-70562445D01*
X180917296Y-70552372D01*
X180922956Y-70546967D01*
X180928267Y-70535200D01*
X180932375Y-70512760D01*
X180935459Y-70477398D01*
X180937696Y-70426861D01*
X180939265Y-70358899D01*
X180939612Y-70336147D01*
X180940329Y-70259191D01*
X180939676Y-70200185D01*
X180937088Y-70156777D01*
X180932000Y-70126614D01*
X180923846Y-70107343D01*
X180912058Y-70096611D01*
X180896072Y-70092065D01*
X180880720Y-70091300D01*
X180855708Y-70093886D01*
X180842687Y-70105498D01*
X180836017Y-70123333D01*
X180826574Y-70155366D01*
X180787273Y-70123784D01*
X180759498Y-70104571D01*
X180731289Y-70093993D01*
X180693570Y-70088903D01*
X180684957Y-70088320D01*
X180646245Y-70087364D01*
X180619321Y-70091450D01*
G36*
X180309919Y-70093363D02*
G01*
X180297546Y-70102185D01*
X180292020Y-70110479D01*
X180287899Y-70124563D01*
X180284989Y-70147116D01*
X180283100Y-70180819D01*
X180282040Y-70228349D01*
X180281615Y-70292387D01*
X180281580Y-70324980D01*
X180281843Y-70400712D01*
X180283007Y-70458529D01*
X180285634Y-70500834D01*
X180290285Y-70530027D01*
X180297524Y-70548510D01*
X180307913Y-70558687D01*
X180322012Y-70562958D01*
X180337460Y-70563740D01*
X180363444Y-70557130D01*
X180377375Y-70547774D01*
X180382947Y-70539403D01*
X180387091Y-70525191D01*
X180390002Y-70502434D01*
X180391879Y-70468426D01*
X180392918Y-70420462D01*
X180393316Y-70355838D01*
X180393340Y-70328666D01*
X180392811Y-70258007D01*
X180391303Y-70197699D01*
X180388940Y-70150346D01*
X180385845Y-70118552D01*
X180382823Y-70105872D01*
X180364606Y-70090752D01*
X180337471Y-70086460D01*
X180309919Y-70093363D01*
X180309919Y-70093363D01*
G37*
X180309919Y-70093363D02*
X180297546Y-70102185D01*
X180292020Y-70110479D01*
X180287899Y-70124563D01*
X180284989Y-70147116D01*
X180283100Y-70180819D01*
X180282040Y-70228349D01*
X180281615Y-70292387D01*
X180281580Y-70324980D01*
X180281843Y-70400712D01*
X180283007Y-70458529D01*
X180285634Y-70500834D01*
X180290285Y-70530027D01*
X180297524Y-70548510D01*
X180307913Y-70558687D01*
X180322012Y-70562958D01*
X180337460Y-70563740D01*
X180363444Y-70557130D01*
X180377375Y-70547774D01*
X180382947Y-70539403D01*
X180387091Y-70525191D01*
X180390002Y-70502434D01*
X180391879Y-70468426D01*
X180392918Y-70420462D01*
X180393316Y-70355838D01*
X180393340Y-70328666D01*
X180392811Y-70258007D01*
X180391303Y-70197699D01*
X180388940Y-70150346D01*
X180385845Y-70118552D01*
X180382823Y-70105872D01*
X180364606Y-70090752D01*
X180337471Y-70086460D01*
X180309919Y-70093363D01*
G36*
X179868657Y-70093708D02*
G01*
X179811545Y-70115545D01*
X179767846Y-70150786D01*
X179755883Y-70166462D01*
X179737117Y-70202348D01*
X179735052Y-70230319D01*
X179748906Y-70253134D01*
X179775611Y-70268230D01*
X179804419Y-70263883D01*
X179833269Y-70240540D01*
X179838828Y-70233676D01*
X179871012Y-70198901D01*
X179904087Y-70180635D01*
X179941258Y-70175628D01*
X179983063Y-70184670D01*
X180016907Y-70209462D01*
X180041324Y-70246499D01*
X180054851Y-70292275D01*
X180056022Y-70343288D01*
X180043372Y-70396033D01*
X180038381Y-70407980D01*
X180017146Y-70443815D01*
X179990412Y-70463906D01*
X179952504Y-70471778D01*
X179934786Y-70472300D01*
X179909820Y-70470706D01*
X179890090Y-70463617D01*
X179869389Y-70447569D01*
X179843762Y-70421500D01*
X179808515Y-70388510D01*
X179780431Y-70373269D01*
X179757659Y-70375316D01*
X179738345Y-70394190D01*
X179737716Y-70395138D01*
X179727947Y-70414077D01*
X179728251Y-70432180D01*
X179736404Y-70454758D01*
X179764681Y-70497513D01*
X179807366Y-70530518D01*
X179860506Y-70552727D01*
X179920146Y-70563094D01*
X179982334Y-70560573D01*
X180043115Y-70544118D01*
X180054867Y-70539011D01*
X180106065Y-70504589D01*
X180143523Y-70456563D01*
X180166267Y-70397140D01*
X180173324Y-70328523D01*
X180169070Y-70280238D01*
X180150148Y-70210988D01*
X180117711Y-70156909D01*
X180071824Y-70118053D01*
X180012551Y-70094476D01*
X179939956Y-70086230D01*
X179937053Y-70086220D01*
X179868657Y-70093708D01*
X179868657Y-70093708D01*
G37*
X179868657Y-70093708D02*
X179811545Y-70115545D01*
X179767846Y-70150786D01*
X179755883Y-70166462D01*
X179737117Y-70202348D01*
X179735052Y-70230319D01*
X179748906Y-70253134D01*
X179775611Y-70268230D01*
X179804419Y-70263883D01*
X179833269Y-70240540D01*
X179838828Y-70233676D01*
X179871012Y-70198901D01*
X179904087Y-70180635D01*
X179941258Y-70175628D01*
X179983063Y-70184670D01*
X180016907Y-70209462D01*
X180041324Y-70246499D01*
X180054851Y-70292275D01*
X180056022Y-70343288D01*
X180043372Y-70396033D01*
X180038381Y-70407980D01*
X180017146Y-70443815D01*
X179990412Y-70463906D01*
X179952504Y-70471778D01*
X179934786Y-70472300D01*
X179909820Y-70470706D01*
X179890090Y-70463617D01*
X179869389Y-70447569D01*
X179843762Y-70421500D01*
X179808515Y-70388510D01*
X179780431Y-70373269D01*
X179757659Y-70375316D01*
X179738345Y-70394190D01*
X179737716Y-70395138D01*
X179727947Y-70414077D01*
X179728251Y-70432180D01*
X179736404Y-70454758D01*
X179764681Y-70497513D01*
X179807366Y-70530518D01*
X179860506Y-70552727D01*
X179920146Y-70563094D01*
X179982334Y-70560573D01*
X180043115Y-70544118D01*
X180054867Y-70539011D01*
X180106065Y-70504589D01*
X180143523Y-70456563D01*
X180166267Y-70397140D01*
X180173324Y-70328523D01*
X180169070Y-70280238D01*
X180150148Y-70210988D01*
X180117711Y-70156909D01*
X180071824Y-70118053D01*
X180012551Y-70094476D01*
X179939956Y-70086230D01*
X179937053Y-70086220D01*
X179868657Y-70093708D01*
G36*
X179397863Y-70091464D02*
G01*
X179346990Y-70105380D01*
X179305703Y-70126071D01*
X179282167Y-70148341D01*
X179268079Y-70180574D01*
X179269991Y-70208476D01*
X179284174Y-70228775D01*
X179306902Y-70238203D01*
X179334446Y-70233487D01*
X179359014Y-70215760D01*
X179400670Y-70179401D01*
X179438461Y-70161108D01*
X179475525Y-70159871D01*
X179503862Y-70169130D01*
X179523779Y-70186782D01*
X179529928Y-70210592D01*
X179520781Y-70232777D01*
X179517040Y-70236287D01*
X179502230Y-70243517D01*
X179472835Y-70254496D01*
X179433823Y-70267441D01*
X179408978Y-70275078D01*
X179343709Y-70297572D01*
X179296734Y-70321342D01*
X179266034Y-70348086D01*
X179249587Y-70379500D01*
X179245298Y-70412539D01*
X179252808Y-70465247D01*
X179275630Y-70506011D01*
X179314358Y-70535298D01*
X179369585Y-70553577D01*
X179433220Y-70560972D01*
X179477964Y-70562084D01*
X179510345Y-70559561D01*
X179538180Y-70552157D01*
X179567180Y-70539639D01*
X179608595Y-70513876D01*
X179636493Y-70484115D01*
X179649371Y-70453367D01*
X179645723Y-70424639D01*
X179633080Y-70407834D01*
X179610129Y-70393460D01*
X179588258Y-70395586D01*
X179564017Y-70415178D01*
X179550603Y-70430974D01*
X179513184Y-70466040D01*
X179471020Y-70485653D01*
X179428198Y-70489026D01*
X179388806Y-70475372D01*
X179374800Y-70464853D01*
X179357314Y-70442276D01*
X179357443Y-70421127D01*
X179375822Y-70400769D01*
X179413087Y-70380563D01*
X179469874Y-70359871D01*
X179483412Y-70355683D01*
X179548895Y-70332125D01*
X179595695Y-70306091D01*
X179625417Y-70276202D01*
X179639670Y-70241080D01*
X179641500Y-70220095D01*
X179631970Y-70176372D01*
X179605856Y-70136830D01*
X179566876Y-70106535D01*
X179553401Y-70100078D01*
X179506528Y-70087841D01*
X179452863Y-70085294D01*
X179397863Y-70091464D01*
X179397863Y-70091464D01*
G37*
X179397863Y-70091464D02*
X179346990Y-70105380D01*
X179305703Y-70126071D01*
X179282167Y-70148341D01*
X179268079Y-70180574D01*
X179269991Y-70208476D01*
X179284174Y-70228775D01*
X179306902Y-70238203D01*
X179334446Y-70233487D01*
X179359014Y-70215760D01*
X179400670Y-70179401D01*
X179438461Y-70161108D01*
X179475525Y-70159871D01*
X179503862Y-70169130D01*
X179523779Y-70186782D01*
X179529928Y-70210592D01*
X179520781Y-70232777D01*
X179517040Y-70236287D01*
X179502230Y-70243517D01*
X179472835Y-70254496D01*
X179433823Y-70267441D01*
X179408978Y-70275078D01*
X179343709Y-70297572D01*
X179296734Y-70321342D01*
X179266034Y-70348086D01*
X179249587Y-70379500D01*
X179245298Y-70412539D01*
X179252808Y-70465247D01*
X179275630Y-70506011D01*
X179314358Y-70535298D01*
X179369585Y-70553577D01*
X179433220Y-70560972D01*
X179477964Y-70562084D01*
X179510345Y-70559561D01*
X179538180Y-70552157D01*
X179567180Y-70539639D01*
X179608595Y-70513876D01*
X179636493Y-70484115D01*
X179649371Y-70453367D01*
X179645723Y-70424639D01*
X179633080Y-70407834D01*
X179610129Y-70393460D01*
X179588258Y-70395586D01*
X179564017Y-70415178D01*
X179550603Y-70430974D01*
X179513184Y-70466040D01*
X179471020Y-70485653D01*
X179428198Y-70489026D01*
X179388806Y-70475372D01*
X179374800Y-70464853D01*
X179357314Y-70442276D01*
X179357443Y-70421127D01*
X179375822Y-70400769D01*
X179413087Y-70380563D01*
X179469874Y-70359871D01*
X179483412Y-70355683D01*
X179548895Y-70332125D01*
X179595695Y-70306091D01*
X179625417Y-70276202D01*
X179639670Y-70241080D01*
X179641500Y-70220095D01*
X179631970Y-70176372D01*
X179605856Y-70136830D01*
X179566876Y-70106535D01*
X179553401Y-70100078D01*
X179506528Y-70087841D01*
X179452863Y-70085294D01*
X179397863Y-70091464D01*
G36*
X180308519Y-69917725D02*
G01*
X180293772Y-69925692D01*
X180283280Y-69948444D01*
X180283315Y-69978072D01*
X180293415Y-70004355D01*
X180297546Y-70009294D01*
X180320377Y-70022210D01*
X180337460Y-70025260D01*
X180363444Y-70018650D01*
X180377375Y-70009294D01*
X180392423Y-69982514D01*
X180391039Y-69954176D01*
X180375794Y-69929917D01*
X180349260Y-69915374D01*
X180333687Y-69913500D01*
X180308519Y-69917725D01*
X180308519Y-69917725D01*
G37*
X180308519Y-69917725D02*
X180293772Y-69925692D01*
X180283280Y-69948444D01*
X180283315Y-69978072D01*
X180293415Y-70004355D01*
X180297546Y-70009294D01*
X180320377Y-70022210D01*
X180337460Y-70025260D01*
X180363444Y-70018650D01*
X180377375Y-70009294D01*
X180392423Y-69982514D01*
X180391039Y-69954176D01*
X180375794Y-69929917D01*
X180349260Y-69915374D01*
X180333687Y-69913500D01*
X180308519Y-69917725D01*
G36*
X180484780Y-69527858D02*
G01*
X180093620Y-69522340D01*
X180090920Y-69240400D01*
X180088219Y-68958460D01*
X179865342Y-68958460D01*
X179859940Y-69522340D01*
X179550060Y-69527420D01*
X179473930Y-69528917D01*
X179405565Y-69530746D01*
X179347266Y-69532804D01*
X179301337Y-69534992D01*
X179270080Y-69537209D01*
X179255798Y-69539355D01*
X179255532Y-69540274D01*
X179269251Y-69542146D01*
X179300636Y-69543677D01*
X179347032Y-69544825D01*
X179405787Y-69545549D01*
X179474248Y-69545806D01*
X179549761Y-69545554D01*
X179575572Y-69545354D01*
X179880260Y-69542660D01*
X179885662Y-68978780D01*
X180068220Y-68978780D01*
X180068220Y-69547740D01*
X180504779Y-69547740D01*
X180507480Y-69265800D01*
X180510180Y-68983860D01*
X180896260Y-68983860D01*
X180901662Y-69547740D01*
X181124539Y-69547740D01*
X181127240Y-69265800D01*
X181129940Y-68983860D01*
X181729380Y-68983860D01*
X181734460Y-69263260D01*
X181736048Y-69335276D01*
X181737996Y-69399319D01*
X181740188Y-69452983D01*
X181742507Y-69493862D01*
X181744835Y-69519548D01*
X181747055Y-69527636D01*
X181747331Y-69527268D01*
X181749299Y-69513345D01*
X181750884Y-69481922D01*
X181752038Y-69435818D01*
X181752709Y-69377848D01*
X181752850Y-69310831D01*
X181752411Y-69237708D01*
X181749700Y-68963540D01*
X181109620Y-68963540D01*
X181104218Y-69528206D01*
X180926740Y-69522340D01*
X180924040Y-69240400D01*
X180921339Y-68958460D01*
X180484780Y-68958460D01*
X180484780Y-69527858D01*
X180484780Y-69527858D01*
G37*
X180484780Y-69527858D02*
X180093620Y-69522340D01*
X180090920Y-69240400D01*
X180088219Y-68958460D01*
X179865342Y-68958460D01*
X179859940Y-69522340D01*
X179550060Y-69527420D01*
X179473930Y-69528917D01*
X179405565Y-69530746D01*
X179347266Y-69532804D01*
X179301337Y-69534992D01*
X179270080Y-69537209D01*
X179255798Y-69539355D01*
X179255532Y-69540274D01*
X179269251Y-69542146D01*
X179300636Y-69543677D01*
X179347032Y-69544825D01*
X179405787Y-69545549D01*
X179474248Y-69545806D01*
X179549761Y-69545554D01*
X179575572Y-69545354D01*
X179880260Y-69542660D01*
X179885662Y-68978780D01*
X180068220Y-68978780D01*
X180068220Y-69547740D01*
X180504779Y-69547740D01*
X180507480Y-69265800D01*
X180510180Y-68983860D01*
X180896260Y-68983860D01*
X180901662Y-69547740D01*
X181124539Y-69547740D01*
X181127240Y-69265800D01*
X181129940Y-68983860D01*
X181729380Y-68983860D01*
X181734460Y-69263260D01*
X181736048Y-69335276D01*
X181737996Y-69399319D01*
X181740188Y-69452983D01*
X181742507Y-69493862D01*
X181744835Y-69519548D01*
X181747055Y-69527636D01*
X181747331Y-69527268D01*
X181749299Y-69513345D01*
X181750884Y-69481922D01*
X181752038Y-69435818D01*
X181752709Y-69377848D01*
X181752850Y-69310831D01*
X181752411Y-69237708D01*
X181749700Y-68963540D01*
X181109620Y-68963540D01*
X181104218Y-69528206D01*
X180926740Y-69522340D01*
X180924040Y-69240400D01*
X180921339Y-68958460D01*
X180484780Y-68958460D01*
X180484780Y-69527858D01*
G36*
X183604549Y-69010216D02*
G01*
X183589929Y-69014692D01*
X183579233Y-69025096D01*
X183571850Y-69043838D01*
X183567172Y-69073327D01*
X183564587Y-69115972D01*
X183563487Y-69174183D01*
X183563260Y-69248020D01*
X183563458Y-69319470D01*
X183564185Y-69373326D01*
X183565642Y-69412312D01*
X183568031Y-69439152D01*
X183571554Y-69456569D01*
X183576411Y-69467286D01*
X183579778Y-69471365D01*
X183605595Y-69485137D01*
X183633471Y-69481450D01*
X183657969Y-69461737D01*
X183666131Y-69448649D01*
X183677906Y-69427893D01*
X183686557Y-69423360D01*
X183695931Y-69431611D01*
X183730807Y-69459452D01*
X183777563Y-69477744D01*
X183829499Y-69485167D01*
X183879915Y-69480401D01*
X183903620Y-69472530D01*
X183941782Y-69448273D01*
X183967025Y-69412823D01*
X183978754Y-69380100D01*
X183983813Y-69350548D01*
X183987319Y-69307809D01*
X183989297Y-69256629D01*
X183989773Y-69201757D01*
X183988773Y-69147942D01*
X183986323Y-69099933D01*
X183982449Y-69062477D01*
X183977177Y-69040324D01*
X183976895Y-69039740D01*
X183956066Y-69018135D01*
X183927021Y-69010540D01*
X183897338Y-69018176D01*
X183887482Y-69025313D01*
X183879530Y-69034508D01*
X183874078Y-69047579D01*
X183870666Y-69068144D01*
X183868838Y-69099825D01*
X183868134Y-69146241D01*
X183868060Y-69178800D01*
X183866810Y-69251083D01*
X183862647Y-69305546D01*
X183854956Y-69344559D01*
X183843119Y-69370492D01*
X183826521Y-69385716D01*
X183812850Y-69390999D01*
X183768767Y-69392224D01*
X183728256Y-69374485D01*
X183710657Y-69358902D01*
X183701304Y-69347512D01*
X183694672Y-69334421D01*
X183690177Y-69315942D01*
X183687233Y-69288385D01*
X183685255Y-69248061D01*
X183683659Y-69191281D01*
X183683583Y-69188134D01*
X183681439Y-69123423D01*
X183677969Y-69076310D01*
X183672262Y-69044082D01*
X183663411Y-69024020D01*
X183650504Y-69013409D01*
X183632634Y-69009533D01*
X183623702Y-69009260D01*
X183604549Y-69010216D01*
X183604549Y-69010216D01*
G37*
X183604549Y-69010216D02*
X183589929Y-69014692D01*
X183579233Y-69025096D01*
X183571850Y-69043838D01*
X183567172Y-69073327D01*
X183564587Y-69115972D01*
X183563487Y-69174183D01*
X183563260Y-69248020D01*
X183563458Y-69319470D01*
X183564185Y-69373326D01*
X183565642Y-69412312D01*
X183568031Y-69439152D01*
X183571554Y-69456569D01*
X183576411Y-69467286D01*
X183579778Y-69471365D01*
X183605595Y-69485137D01*
X183633471Y-69481450D01*
X183657969Y-69461737D01*
X183666131Y-69448649D01*
X183677906Y-69427893D01*
X183686557Y-69423360D01*
X183695931Y-69431611D01*
X183730807Y-69459452D01*
X183777563Y-69477744D01*
X183829499Y-69485167D01*
X183879915Y-69480401D01*
X183903620Y-69472530D01*
X183941782Y-69448273D01*
X183967025Y-69412823D01*
X183978754Y-69380100D01*
X183983813Y-69350548D01*
X183987319Y-69307809D01*
X183989297Y-69256629D01*
X183989773Y-69201757D01*
X183988773Y-69147942D01*
X183986323Y-69099933D01*
X183982449Y-69062477D01*
X183977177Y-69040324D01*
X183976895Y-69039740D01*
X183956066Y-69018135D01*
X183927021Y-69010540D01*
X183897338Y-69018176D01*
X183887482Y-69025313D01*
X183879530Y-69034508D01*
X183874078Y-69047579D01*
X183870666Y-69068144D01*
X183868838Y-69099825D01*
X183868134Y-69146241D01*
X183868060Y-69178800D01*
X183866810Y-69251083D01*
X183862647Y-69305546D01*
X183854956Y-69344559D01*
X183843119Y-69370492D01*
X183826521Y-69385716D01*
X183812850Y-69390999D01*
X183768767Y-69392224D01*
X183728256Y-69374485D01*
X183710657Y-69358902D01*
X183701304Y-69347512D01*
X183694672Y-69334421D01*
X183690177Y-69315942D01*
X183687233Y-69288385D01*
X183685255Y-69248061D01*
X183683659Y-69191281D01*
X183683583Y-69188134D01*
X183681439Y-69123423D01*
X183677969Y-69076310D01*
X183672262Y-69044082D01*
X183663411Y-69024020D01*
X183650504Y-69013409D01*
X183632634Y-69009533D01*
X183623702Y-69009260D01*
X183604549Y-69010216D01*
G36*
X183218023Y-69014504D02*
G01*
X183167150Y-69028420D01*
X183125863Y-69049111D01*
X183102327Y-69071381D01*
X183088239Y-69103614D01*
X183090151Y-69131516D01*
X183104334Y-69151815D01*
X183127062Y-69161243D01*
X183154606Y-69156527D01*
X183179174Y-69138800D01*
X183220830Y-69102441D01*
X183258621Y-69084148D01*
X183295685Y-69082911D01*
X183324022Y-69092170D01*
X183343939Y-69109822D01*
X183350088Y-69133632D01*
X183340941Y-69155817D01*
X183337200Y-69159327D01*
X183322390Y-69166557D01*
X183292995Y-69177536D01*
X183253983Y-69190481D01*
X183229138Y-69198118D01*
X183163869Y-69220612D01*
X183116894Y-69244382D01*
X183086194Y-69271126D01*
X183069747Y-69302540D01*
X183065458Y-69335579D01*
X183072968Y-69388287D01*
X183095790Y-69429051D01*
X183134518Y-69458338D01*
X183189745Y-69476617D01*
X183253380Y-69484012D01*
X183298124Y-69485124D01*
X183330505Y-69482601D01*
X183358340Y-69475197D01*
X183387340Y-69462679D01*
X183428755Y-69436916D01*
X183456653Y-69407155D01*
X183469531Y-69376407D01*
X183465883Y-69347679D01*
X183453240Y-69330874D01*
X183430289Y-69316500D01*
X183408418Y-69318626D01*
X183384177Y-69338218D01*
X183370763Y-69354014D01*
X183333344Y-69389080D01*
X183291180Y-69408693D01*
X183248358Y-69412066D01*
X183208966Y-69398412D01*
X183194960Y-69387893D01*
X183177474Y-69365316D01*
X183177603Y-69344167D01*
X183195982Y-69323809D01*
X183233247Y-69303603D01*
X183290034Y-69282911D01*
X183303572Y-69278723D01*
X183369055Y-69255165D01*
X183415855Y-69229131D01*
X183445577Y-69199242D01*
X183459830Y-69164120D01*
X183461660Y-69143135D01*
X183452130Y-69099412D01*
X183426016Y-69059870D01*
X183387036Y-69029575D01*
X183373561Y-69023118D01*
X183326688Y-69010881D01*
X183273023Y-69008334D01*
X183218023Y-69014504D01*
X183218023Y-69014504D01*
G37*
X183218023Y-69014504D02*
X183167150Y-69028420D01*
X183125863Y-69049111D01*
X183102327Y-69071381D01*
X183088239Y-69103614D01*
X183090151Y-69131516D01*
X183104334Y-69151815D01*
X183127062Y-69161243D01*
X183154606Y-69156527D01*
X183179174Y-69138800D01*
X183220830Y-69102441D01*
X183258621Y-69084148D01*
X183295685Y-69082911D01*
X183324022Y-69092170D01*
X183343939Y-69109822D01*
X183350088Y-69133632D01*
X183340941Y-69155817D01*
X183337200Y-69159327D01*
X183322390Y-69166557D01*
X183292995Y-69177536D01*
X183253983Y-69190481D01*
X183229138Y-69198118D01*
X183163869Y-69220612D01*
X183116894Y-69244382D01*
X183086194Y-69271126D01*
X183069747Y-69302540D01*
X183065458Y-69335579D01*
X183072968Y-69388287D01*
X183095790Y-69429051D01*
X183134518Y-69458338D01*
X183189745Y-69476617D01*
X183253380Y-69484012D01*
X183298124Y-69485124D01*
X183330505Y-69482601D01*
X183358340Y-69475197D01*
X183387340Y-69462679D01*
X183428755Y-69436916D01*
X183456653Y-69407155D01*
X183469531Y-69376407D01*
X183465883Y-69347679D01*
X183453240Y-69330874D01*
X183430289Y-69316500D01*
X183408418Y-69318626D01*
X183384177Y-69338218D01*
X183370763Y-69354014D01*
X183333344Y-69389080D01*
X183291180Y-69408693D01*
X183248358Y-69412066D01*
X183208966Y-69398412D01*
X183194960Y-69387893D01*
X183177474Y-69365316D01*
X183177603Y-69344167D01*
X183195982Y-69323809D01*
X183233247Y-69303603D01*
X183290034Y-69282911D01*
X183303572Y-69278723D01*
X183369055Y-69255165D01*
X183415855Y-69229131D01*
X183445577Y-69199242D01*
X183459830Y-69164120D01*
X183461660Y-69143135D01*
X183452130Y-69099412D01*
X183426016Y-69059870D01*
X183387036Y-69029575D01*
X183373561Y-69023118D01*
X183326688Y-69010881D01*
X183273023Y-69008334D01*
X183218023Y-69014504D01*
G36*
X182672817Y-69016748D02*
G01*
X182615705Y-69038585D01*
X182572006Y-69073826D01*
X182560043Y-69089502D01*
X182541277Y-69125388D01*
X182539212Y-69153359D01*
X182553066Y-69176174D01*
X182579771Y-69191270D01*
X182608579Y-69186923D01*
X182637429Y-69163580D01*
X182642988Y-69156716D01*
X182675172Y-69121941D01*
X182708247Y-69103675D01*
X182745418Y-69098668D01*
X182787223Y-69107710D01*
X182821067Y-69132502D01*
X182845484Y-69169539D01*
X182859011Y-69215315D01*
X182860182Y-69266328D01*
X182847532Y-69319073D01*
X182842541Y-69331020D01*
X182821306Y-69366855D01*
X182794572Y-69386946D01*
X182756664Y-69394818D01*
X182738946Y-69395340D01*
X182713980Y-69393746D01*
X182694250Y-69386657D01*
X182673549Y-69370609D01*
X182647922Y-69344540D01*
X182612675Y-69311550D01*
X182584591Y-69296309D01*
X182561819Y-69298356D01*
X182542505Y-69317230D01*
X182541876Y-69318178D01*
X182532107Y-69337117D01*
X182532411Y-69355220D01*
X182540564Y-69377798D01*
X182568841Y-69420553D01*
X182611526Y-69453558D01*
X182664666Y-69475767D01*
X182724306Y-69486134D01*
X182786494Y-69483613D01*
X182847275Y-69467158D01*
X182859027Y-69462051D01*
X182910225Y-69427629D01*
X182947683Y-69379603D01*
X182970427Y-69320180D01*
X182977484Y-69251563D01*
X182973230Y-69203278D01*
X182954308Y-69134028D01*
X182921871Y-69079949D01*
X182875984Y-69041093D01*
X182816711Y-69017516D01*
X182744116Y-69009270D01*
X182741213Y-69009260D01*
X182672817Y-69016748D01*
X182672817Y-69016748D01*
G37*
X182672817Y-69016748D02*
X182615705Y-69038585D01*
X182572006Y-69073826D01*
X182560043Y-69089502D01*
X182541277Y-69125388D01*
X182539212Y-69153359D01*
X182553066Y-69176174D01*
X182579771Y-69191270D01*
X182608579Y-69186923D01*
X182637429Y-69163580D01*
X182642988Y-69156716D01*
X182675172Y-69121941D01*
X182708247Y-69103675D01*
X182745418Y-69098668D01*
X182787223Y-69107710D01*
X182821067Y-69132502D01*
X182845484Y-69169539D01*
X182859011Y-69215315D01*
X182860182Y-69266328D01*
X182847532Y-69319073D01*
X182842541Y-69331020D01*
X182821306Y-69366855D01*
X182794572Y-69386946D01*
X182756664Y-69394818D01*
X182738946Y-69395340D01*
X182713980Y-69393746D01*
X182694250Y-69386657D01*
X182673549Y-69370609D01*
X182647922Y-69344540D01*
X182612675Y-69311550D01*
X182584591Y-69296309D01*
X182561819Y-69298356D01*
X182542505Y-69317230D01*
X182541876Y-69318178D01*
X182532107Y-69337117D01*
X182532411Y-69355220D01*
X182540564Y-69377798D01*
X182568841Y-69420553D01*
X182611526Y-69453558D01*
X182664666Y-69475767D01*
X182724306Y-69486134D01*
X182786494Y-69483613D01*
X182847275Y-69467158D01*
X182859027Y-69462051D01*
X182910225Y-69427629D01*
X182947683Y-69379603D01*
X182970427Y-69320180D01*
X182977484Y-69251563D01*
X182973230Y-69203278D01*
X182954308Y-69134028D01*
X182921871Y-69079949D01*
X182875984Y-69041093D01*
X182816711Y-69017516D01*
X182744116Y-69009270D01*
X182741213Y-69009260D01*
X182672817Y-69016748D01*
G36*
X178165637Y-68796537D02*
G01*
X178140961Y-68807521D01*
X178088197Y-68843932D01*
X178052299Y-68890832D01*
X178032356Y-68949673D01*
X178027855Y-68987718D01*
X178030531Y-69051645D01*
X178047785Y-69104576D01*
X178081414Y-69151314D01*
X178093710Y-69163661D01*
X178141318Y-69196564D01*
X178197880Y-69216551D01*
X178257426Y-69222679D01*
X178313984Y-69214003D01*
X178341214Y-69202812D01*
X178398152Y-69163348D01*
X178437363Y-69114157D01*
X178459379Y-69054353D01*
X178462966Y-69017102D01*
X178421218Y-69017102D01*
X178409451Y-69066859D01*
X178384646Y-69110868D01*
X178349098Y-69146447D01*
X178305098Y-69170912D01*
X178254942Y-69181580D01*
X178200923Y-69175770D01*
X178177161Y-69167572D01*
X178126920Y-69136473D01*
X178091321Y-69093529D01*
X178071603Y-69042165D01*
X178069004Y-68985807D01*
X178084763Y-68927881D01*
X178087996Y-68920884D01*
X178119895Y-68875788D01*
X178162418Y-68844954D01*
X178211591Y-68828506D01*
X178263440Y-68826572D01*
X178313990Y-68839277D01*
X178359266Y-68866749D01*
X178395295Y-68909113D01*
X178396462Y-68911075D01*
X178417653Y-68964279D01*
X178421218Y-69017102D01*
X178462966Y-69017102D01*
X178464972Y-68996272D01*
X178455860Y-68934008D01*
X178430525Y-68880071D01*
X178391972Y-68836211D01*
X178343202Y-68804178D01*
X178287221Y-68785722D01*
X178227032Y-68782592D01*
X178165637Y-68796537D01*
X178165637Y-68796537D01*
G37*
X178165637Y-68796537D02*
X178140961Y-68807521D01*
X178088197Y-68843932D01*
X178052299Y-68890832D01*
X178032356Y-68949673D01*
X178027855Y-68987718D01*
X178030531Y-69051645D01*
X178047785Y-69104576D01*
X178081414Y-69151314D01*
X178093710Y-69163661D01*
X178141318Y-69196564D01*
X178197880Y-69216551D01*
X178257426Y-69222679D01*
X178313984Y-69214003D01*
X178341214Y-69202812D01*
X178398152Y-69163348D01*
X178437363Y-69114157D01*
X178459379Y-69054353D01*
X178462966Y-69017102D01*
X178421218Y-69017102D01*
X178409451Y-69066859D01*
X178384646Y-69110868D01*
X178349098Y-69146447D01*
X178305098Y-69170912D01*
X178254942Y-69181580D01*
X178200923Y-69175770D01*
X178177161Y-69167572D01*
X178126920Y-69136473D01*
X178091321Y-69093529D01*
X178071603Y-69042165D01*
X178069004Y-68985807D01*
X178084763Y-68927881D01*
X178087996Y-68920884D01*
X178119895Y-68875788D01*
X178162418Y-68844954D01*
X178211591Y-68828506D01*
X178263440Y-68826572D01*
X178313990Y-68839277D01*
X178359266Y-68866749D01*
X178395295Y-68909113D01*
X178396462Y-68911075D01*
X178417653Y-68964279D01*
X178421218Y-69017102D01*
X178462966Y-69017102D01*
X178464972Y-68996272D01*
X178455860Y-68934008D01*
X178430525Y-68880071D01*
X178391972Y-68836211D01*
X178343202Y-68804178D01*
X178287221Y-68785722D01*
X178227032Y-68782592D01*
X178165637Y-68796537D01*
G36*
X178228331Y-68888292D02*
G01*
X178200548Y-68891779D01*
X178183231Y-68898741D01*
X178174955Y-68905920D01*
X178162308Y-68930343D01*
X178159763Y-68959291D01*
X178166121Y-68986272D01*
X178180183Y-69004798D01*
X178194058Y-69009260D01*
X178207493Y-69014596D01*
X178204601Y-69028092D01*
X178193031Y-69040295D01*
X178178862Y-69056655D01*
X178163318Y-69080538D01*
X178151446Y-69103526D01*
X178147980Y-69115435D01*
X178156668Y-69119697D01*
X178172415Y-69121020D01*
X178191939Y-69115204D01*
X178210871Y-69095407D01*
X178222901Y-69076567D01*
X178244794Y-69046812D01*
X178267505Y-69028139D01*
X178287023Y-69023300D01*
X178294712Y-69027298D01*
X178298189Y-69040093D01*
X178300190Y-69065500D01*
X178300380Y-69076993D01*
X178301530Y-69104540D01*
X178307107Y-69117337D01*
X178320303Y-69120916D01*
X178325780Y-69121020D01*
X178351180Y-69121020D01*
X178351180Y-68958141D01*
X178300380Y-68958141D01*
X178298205Y-68979347D01*
X178287451Y-68987583D01*
X178267360Y-68988784D01*
X178239984Y-68986118D01*
X178220641Y-68979946D01*
X178210095Y-68963970D01*
X178214836Y-68944434D01*
X178232502Y-68927855D01*
X178240870Y-68924106D01*
X178273068Y-68918785D01*
X178293046Y-68929487D01*
X178300355Y-68955958D01*
X178300380Y-68958141D01*
X178351180Y-68958141D01*
X178351180Y-68887340D01*
X178271475Y-68887340D01*
X178228331Y-68888292D01*
X178228331Y-68888292D01*
G37*
X178228331Y-68888292D02*
X178200548Y-68891779D01*
X178183231Y-68898741D01*
X178174955Y-68905920D01*
X178162308Y-68930343D01*
X178159763Y-68959291D01*
X178166121Y-68986272D01*
X178180183Y-69004798D01*
X178194058Y-69009260D01*
X178207493Y-69014596D01*
X178204601Y-69028092D01*
X178193031Y-69040295D01*
X178178862Y-69056655D01*
X178163318Y-69080538D01*
X178151446Y-69103526D01*
X178147980Y-69115435D01*
X178156668Y-69119697D01*
X178172415Y-69121020D01*
X178191939Y-69115204D01*
X178210871Y-69095407D01*
X178222901Y-69076567D01*
X178244794Y-69046812D01*
X178267505Y-69028139D01*
X178287023Y-69023300D01*
X178294712Y-69027298D01*
X178298189Y-69040093D01*
X178300190Y-69065500D01*
X178300380Y-69076993D01*
X178301530Y-69104540D01*
X178307107Y-69117337D01*
X178320303Y-69120916D01*
X178325780Y-69121020D01*
X178351180Y-69121020D01*
X178351180Y-68958141D01*
X178300380Y-68958141D01*
X178298205Y-68979347D01*
X178287451Y-68987583D01*
X178267360Y-68988784D01*
X178239984Y-68986118D01*
X178220641Y-68979946D01*
X178210095Y-68963970D01*
X178214836Y-68944434D01*
X178232502Y-68927855D01*
X178240870Y-68924106D01*
X178273068Y-68918785D01*
X178293046Y-68929487D01*
X178300355Y-68955958D01*
X178300380Y-68958141D01*
X178351180Y-68958141D01*
X178351180Y-68887340D01*
X178271475Y-68887340D01*
X178228331Y-68888292D01*
D11*
X177867000Y-54931000D02*
X177867000Y-57531000D01*
X177867000Y-54931000D02*
X198307000Y-54931000D01*
X198307000Y-54931000D02*
X198307000Y-60131000D01*
X180467000Y-60131000D02*
X198307000Y-60131000D01*
X180467000Y-57531000D02*
X180467000Y-60131000D01*
X177867000Y-57531000D02*
X180467000Y-57531000D01*
X177867000Y-60131000D02*
X179197000Y-60131000D01*
X177867000Y-58801000D02*
X177867000Y-60131000D01*
D13*
X176760333Y-56983380D02*
X176760333Y-57697666D01*
X176807952Y-57840523D01*
X176903190Y-57935761D01*
X177046047Y-57983380D01*
X177141285Y-57983380D01*
X175760333Y-57983380D02*
X176331761Y-57983380D01*
X176046047Y-57983380D02*
X176046047Y-56983380D01*
X176141285Y-57126238D01*
X176236523Y-57221476D01*
X176331761Y-57269095D01*
M02*
