G04 #@! TF.GenerationSoftware,KiCad,Pcbnew,(5.1.2)-1*
G04 #@! TF.CreationDate,2019-04-29T10:05:08+02:00*
G04 #@! TF.ProjectId,RPI FS HAT,52504920-4653-4204-9841-542e6b696361,1*
G04 #@! TF.SameCoordinates,Original*
G04 #@! TF.FileFunction,Paste,Top*
G04 #@! TF.FilePolarity,Positive*
%FSLAX46Y46*%
G04 Gerber Fmt 4.6, Leading zero omitted, Abs format (unit mm)*
G04 Created by KiCad (PCBNEW (5.1.2)-1) date 2019-04-29 10:05:08*
%MOMM*%
%LPD*%
G04 APERTURE LIST*
%ADD10C,0.100000*%
%ADD11C,0.975000*%
G04 APERTURE END LIST*
D10*
G36*
X197069142Y-62356674D02*
G01*
X197092803Y-62360184D01*
X197116007Y-62365996D01*
X197138529Y-62374054D01*
X197160153Y-62384282D01*
X197180670Y-62396579D01*
X197199883Y-62410829D01*
X197217607Y-62426893D01*
X197233671Y-62444617D01*
X197247921Y-62463830D01*
X197260218Y-62484347D01*
X197270446Y-62505971D01*
X197278504Y-62528493D01*
X197284316Y-62551697D01*
X197287826Y-62575358D01*
X197289000Y-62599250D01*
X197289000Y-63511750D01*
X197287826Y-63535642D01*
X197284316Y-63559303D01*
X197278504Y-63582507D01*
X197270446Y-63605029D01*
X197260218Y-63626653D01*
X197247921Y-63647170D01*
X197233671Y-63666383D01*
X197217607Y-63684107D01*
X197199883Y-63700171D01*
X197180670Y-63714421D01*
X197160153Y-63726718D01*
X197138529Y-63736946D01*
X197116007Y-63745004D01*
X197092803Y-63750816D01*
X197069142Y-63754326D01*
X197045250Y-63755500D01*
X196557750Y-63755500D01*
X196533858Y-63754326D01*
X196510197Y-63750816D01*
X196486993Y-63745004D01*
X196464471Y-63736946D01*
X196442847Y-63726718D01*
X196422330Y-63714421D01*
X196403117Y-63700171D01*
X196385393Y-63684107D01*
X196369329Y-63666383D01*
X196355079Y-63647170D01*
X196342782Y-63626653D01*
X196332554Y-63605029D01*
X196324496Y-63582507D01*
X196318684Y-63559303D01*
X196315174Y-63535642D01*
X196314000Y-63511750D01*
X196314000Y-62599250D01*
X196315174Y-62575358D01*
X196318684Y-62551697D01*
X196324496Y-62528493D01*
X196332554Y-62505971D01*
X196342782Y-62484347D01*
X196355079Y-62463830D01*
X196369329Y-62444617D01*
X196385393Y-62426893D01*
X196403117Y-62410829D01*
X196422330Y-62396579D01*
X196442847Y-62384282D01*
X196464471Y-62374054D01*
X196486993Y-62365996D01*
X196510197Y-62360184D01*
X196533858Y-62356674D01*
X196557750Y-62355500D01*
X197045250Y-62355500D01*
X197069142Y-62356674D01*
X197069142Y-62356674D01*
G37*
D11*
X196801500Y-63055500D03*
D10*
G36*
X198944142Y-62356674D02*
G01*
X198967803Y-62360184D01*
X198991007Y-62365996D01*
X199013529Y-62374054D01*
X199035153Y-62384282D01*
X199055670Y-62396579D01*
X199074883Y-62410829D01*
X199092607Y-62426893D01*
X199108671Y-62444617D01*
X199122921Y-62463830D01*
X199135218Y-62484347D01*
X199145446Y-62505971D01*
X199153504Y-62528493D01*
X199159316Y-62551697D01*
X199162826Y-62575358D01*
X199164000Y-62599250D01*
X199164000Y-63511750D01*
X199162826Y-63535642D01*
X199159316Y-63559303D01*
X199153504Y-63582507D01*
X199145446Y-63605029D01*
X199135218Y-63626653D01*
X199122921Y-63647170D01*
X199108671Y-63666383D01*
X199092607Y-63684107D01*
X199074883Y-63700171D01*
X199055670Y-63714421D01*
X199035153Y-63726718D01*
X199013529Y-63736946D01*
X198991007Y-63745004D01*
X198967803Y-63750816D01*
X198944142Y-63754326D01*
X198920250Y-63755500D01*
X198432750Y-63755500D01*
X198408858Y-63754326D01*
X198385197Y-63750816D01*
X198361993Y-63745004D01*
X198339471Y-63736946D01*
X198317847Y-63726718D01*
X198297330Y-63714421D01*
X198278117Y-63700171D01*
X198260393Y-63684107D01*
X198244329Y-63666383D01*
X198230079Y-63647170D01*
X198217782Y-63626653D01*
X198207554Y-63605029D01*
X198199496Y-63582507D01*
X198193684Y-63559303D01*
X198190174Y-63535642D01*
X198189000Y-63511750D01*
X198189000Y-62599250D01*
X198190174Y-62575358D01*
X198193684Y-62551697D01*
X198199496Y-62528493D01*
X198207554Y-62505971D01*
X198217782Y-62484347D01*
X198230079Y-62463830D01*
X198244329Y-62444617D01*
X198260393Y-62426893D01*
X198278117Y-62410829D01*
X198297330Y-62396579D01*
X198317847Y-62384282D01*
X198339471Y-62374054D01*
X198361993Y-62365996D01*
X198385197Y-62360184D01*
X198408858Y-62356674D01*
X198432750Y-62355500D01*
X198920250Y-62355500D01*
X198944142Y-62356674D01*
X198944142Y-62356674D01*
G37*
D11*
X198676500Y-63055500D03*
D10*
G36*
X179289142Y-62356674D02*
G01*
X179312803Y-62360184D01*
X179336007Y-62365996D01*
X179358529Y-62374054D01*
X179380153Y-62384282D01*
X179400670Y-62396579D01*
X179419883Y-62410829D01*
X179437607Y-62426893D01*
X179453671Y-62444617D01*
X179467921Y-62463830D01*
X179480218Y-62484347D01*
X179490446Y-62505971D01*
X179498504Y-62528493D01*
X179504316Y-62551697D01*
X179507826Y-62575358D01*
X179509000Y-62599250D01*
X179509000Y-63511750D01*
X179507826Y-63535642D01*
X179504316Y-63559303D01*
X179498504Y-63582507D01*
X179490446Y-63605029D01*
X179480218Y-63626653D01*
X179467921Y-63647170D01*
X179453671Y-63666383D01*
X179437607Y-63684107D01*
X179419883Y-63700171D01*
X179400670Y-63714421D01*
X179380153Y-63726718D01*
X179358529Y-63736946D01*
X179336007Y-63745004D01*
X179312803Y-63750816D01*
X179289142Y-63754326D01*
X179265250Y-63755500D01*
X178777750Y-63755500D01*
X178753858Y-63754326D01*
X178730197Y-63750816D01*
X178706993Y-63745004D01*
X178684471Y-63736946D01*
X178662847Y-63726718D01*
X178642330Y-63714421D01*
X178623117Y-63700171D01*
X178605393Y-63684107D01*
X178589329Y-63666383D01*
X178575079Y-63647170D01*
X178562782Y-63626653D01*
X178552554Y-63605029D01*
X178544496Y-63582507D01*
X178538684Y-63559303D01*
X178535174Y-63535642D01*
X178534000Y-63511750D01*
X178534000Y-62599250D01*
X178535174Y-62575358D01*
X178538684Y-62551697D01*
X178544496Y-62528493D01*
X178552554Y-62505971D01*
X178562782Y-62484347D01*
X178575079Y-62463830D01*
X178589329Y-62444617D01*
X178605393Y-62426893D01*
X178623117Y-62410829D01*
X178642330Y-62396579D01*
X178662847Y-62384282D01*
X178684471Y-62374054D01*
X178706993Y-62365996D01*
X178730197Y-62360184D01*
X178753858Y-62356674D01*
X178777750Y-62355500D01*
X179265250Y-62355500D01*
X179289142Y-62356674D01*
X179289142Y-62356674D01*
G37*
D11*
X179021500Y-63055500D03*
D10*
G36*
X181164142Y-62356674D02*
G01*
X181187803Y-62360184D01*
X181211007Y-62365996D01*
X181233529Y-62374054D01*
X181255153Y-62384282D01*
X181275670Y-62396579D01*
X181294883Y-62410829D01*
X181312607Y-62426893D01*
X181328671Y-62444617D01*
X181342921Y-62463830D01*
X181355218Y-62484347D01*
X181365446Y-62505971D01*
X181373504Y-62528493D01*
X181379316Y-62551697D01*
X181382826Y-62575358D01*
X181384000Y-62599250D01*
X181384000Y-63511750D01*
X181382826Y-63535642D01*
X181379316Y-63559303D01*
X181373504Y-63582507D01*
X181365446Y-63605029D01*
X181355218Y-63626653D01*
X181342921Y-63647170D01*
X181328671Y-63666383D01*
X181312607Y-63684107D01*
X181294883Y-63700171D01*
X181275670Y-63714421D01*
X181255153Y-63726718D01*
X181233529Y-63736946D01*
X181211007Y-63745004D01*
X181187803Y-63750816D01*
X181164142Y-63754326D01*
X181140250Y-63755500D01*
X180652750Y-63755500D01*
X180628858Y-63754326D01*
X180605197Y-63750816D01*
X180581993Y-63745004D01*
X180559471Y-63736946D01*
X180537847Y-63726718D01*
X180517330Y-63714421D01*
X180498117Y-63700171D01*
X180480393Y-63684107D01*
X180464329Y-63666383D01*
X180450079Y-63647170D01*
X180437782Y-63626653D01*
X180427554Y-63605029D01*
X180419496Y-63582507D01*
X180413684Y-63559303D01*
X180410174Y-63535642D01*
X180409000Y-63511750D01*
X180409000Y-62599250D01*
X180410174Y-62575358D01*
X180413684Y-62551697D01*
X180419496Y-62528493D01*
X180427554Y-62505971D01*
X180437782Y-62484347D01*
X180450079Y-62463830D01*
X180464329Y-62444617D01*
X180480393Y-62426893D01*
X180498117Y-62410829D01*
X180517330Y-62396579D01*
X180537847Y-62384282D01*
X180559471Y-62374054D01*
X180581993Y-62365996D01*
X180605197Y-62360184D01*
X180628858Y-62356674D01*
X180652750Y-62355500D01*
X181140250Y-62355500D01*
X181164142Y-62356674D01*
X181164142Y-62356674D01*
G37*
D11*
X180896500Y-63055500D03*
D10*
G36*
X185202475Y-62356674D02*
G01*
X185226136Y-62360184D01*
X185249340Y-62365996D01*
X185271862Y-62374054D01*
X185293486Y-62384282D01*
X185314003Y-62396579D01*
X185333216Y-62410829D01*
X185350940Y-62426893D01*
X185367004Y-62444617D01*
X185381254Y-62463830D01*
X185393551Y-62484347D01*
X185403779Y-62505971D01*
X185411837Y-62528493D01*
X185417649Y-62551697D01*
X185421159Y-62575358D01*
X185422333Y-62599250D01*
X185422333Y-63511750D01*
X185421159Y-63535642D01*
X185417649Y-63559303D01*
X185411837Y-63582507D01*
X185403779Y-63605029D01*
X185393551Y-63626653D01*
X185381254Y-63647170D01*
X185367004Y-63666383D01*
X185350940Y-63684107D01*
X185333216Y-63700171D01*
X185314003Y-63714421D01*
X185293486Y-63726718D01*
X185271862Y-63736946D01*
X185249340Y-63745004D01*
X185226136Y-63750816D01*
X185202475Y-63754326D01*
X185178583Y-63755500D01*
X184691083Y-63755500D01*
X184667191Y-63754326D01*
X184643530Y-63750816D01*
X184620326Y-63745004D01*
X184597804Y-63736946D01*
X184576180Y-63726718D01*
X184555663Y-63714421D01*
X184536450Y-63700171D01*
X184518726Y-63684107D01*
X184502662Y-63666383D01*
X184488412Y-63647170D01*
X184476115Y-63626653D01*
X184465887Y-63605029D01*
X184457829Y-63582507D01*
X184452017Y-63559303D01*
X184448507Y-63535642D01*
X184447333Y-63511750D01*
X184447333Y-62599250D01*
X184448507Y-62575358D01*
X184452017Y-62551697D01*
X184457829Y-62528493D01*
X184465887Y-62505971D01*
X184476115Y-62484347D01*
X184488412Y-62463830D01*
X184502662Y-62444617D01*
X184518726Y-62426893D01*
X184536450Y-62410829D01*
X184555663Y-62396579D01*
X184576180Y-62384282D01*
X184597804Y-62374054D01*
X184620326Y-62365996D01*
X184643530Y-62360184D01*
X184667191Y-62356674D01*
X184691083Y-62355500D01*
X185178583Y-62355500D01*
X185202475Y-62356674D01*
X185202475Y-62356674D01*
G37*
D11*
X184934833Y-63055500D03*
D10*
G36*
X187077475Y-62356674D02*
G01*
X187101136Y-62360184D01*
X187124340Y-62365996D01*
X187146862Y-62374054D01*
X187168486Y-62384282D01*
X187189003Y-62396579D01*
X187208216Y-62410829D01*
X187225940Y-62426893D01*
X187242004Y-62444617D01*
X187256254Y-62463830D01*
X187268551Y-62484347D01*
X187278779Y-62505971D01*
X187286837Y-62528493D01*
X187292649Y-62551697D01*
X187296159Y-62575358D01*
X187297333Y-62599250D01*
X187297333Y-63511750D01*
X187296159Y-63535642D01*
X187292649Y-63559303D01*
X187286837Y-63582507D01*
X187278779Y-63605029D01*
X187268551Y-63626653D01*
X187256254Y-63647170D01*
X187242004Y-63666383D01*
X187225940Y-63684107D01*
X187208216Y-63700171D01*
X187189003Y-63714421D01*
X187168486Y-63726718D01*
X187146862Y-63736946D01*
X187124340Y-63745004D01*
X187101136Y-63750816D01*
X187077475Y-63754326D01*
X187053583Y-63755500D01*
X186566083Y-63755500D01*
X186542191Y-63754326D01*
X186518530Y-63750816D01*
X186495326Y-63745004D01*
X186472804Y-63736946D01*
X186451180Y-63726718D01*
X186430663Y-63714421D01*
X186411450Y-63700171D01*
X186393726Y-63684107D01*
X186377662Y-63666383D01*
X186363412Y-63647170D01*
X186351115Y-63626653D01*
X186340887Y-63605029D01*
X186332829Y-63582507D01*
X186327017Y-63559303D01*
X186323507Y-63535642D01*
X186322333Y-63511750D01*
X186322333Y-62599250D01*
X186323507Y-62575358D01*
X186327017Y-62551697D01*
X186332829Y-62528493D01*
X186340887Y-62505971D01*
X186351115Y-62484347D01*
X186363412Y-62463830D01*
X186377662Y-62444617D01*
X186393726Y-62426893D01*
X186411450Y-62410829D01*
X186430663Y-62396579D01*
X186451180Y-62384282D01*
X186472804Y-62374054D01*
X186495326Y-62365996D01*
X186518530Y-62360184D01*
X186542191Y-62356674D01*
X186566083Y-62355500D01*
X187053583Y-62355500D01*
X187077475Y-62356674D01*
X187077475Y-62356674D01*
G37*
D11*
X186809833Y-63055500D03*
D10*
G36*
X192990808Y-62356674D02*
G01*
X193014469Y-62360184D01*
X193037673Y-62365996D01*
X193060195Y-62374054D01*
X193081819Y-62384282D01*
X193102336Y-62396579D01*
X193121549Y-62410829D01*
X193139273Y-62426893D01*
X193155337Y-62444617D01*
X193169587Y-62463830D01*
X193181884Y-62484347D01*
X193192112Y-62505971D01*
X193200170Y-62528493D01*
X193205982Y-62551697D01*
X193209492Y-62575358D01*
X193210666Y-62599250D01*
X193210666Y-63511750D01*
X193209492Y-63535642D01*
X193205982Y-63559303D01*
X193200170Y-63582507D01*
X193192112Y-63605029D01*
X193181884Y-63626653D01*
X193169587Y-63647170D01*
X193155337Y-63666383D01*
X193139273Y-63684107D01*
X193121549Y-63700171D01*
X193102336Y-63714421D01*
X193081819Y-63726718D01*
X193060195Y-63736946D01*
X193037673Y-63745004D01*
X193014469Y-63750816D01*
X192990808Y-63754326D01*
X192966916Y-63755500D01*
X192479416Y-63755500D01*
X192455524Y-63754326D01*
X192431863Y-63750816D01*
X192408659Y-63745004D01*
X192386137Y-63736946D01*
X192364513Y-63726718D01*
X192343996Y-63714421D01*
X192324783Y-63700171D01*
X192307059Y-63684107D01*
X192290995Y-63666383D01*
X192276745Y-63647170D01*
X192264448Y-63626653D01*
X192254220Y-63605029D01*
X192246162Y-63582507D01*
X192240350Y-63559303D01*
X192236840Y-63535642D01*
X192235666Y-63511750D01*
X192235666Y-62599250D01*
X192236840Y-62575358D01*
X192240350Y-62551697D01*
X192246162Y-62528493D01*
X192254220Y-62505971D01*
X192264448Y-62484347D01*
X192276745Y-62463830D01*
X192290995Y-62444617D01*
X192307059Y-62426893D01*
X192324783Y-62410829D01*
X192343996Y-62396579D01*
X192364513Y-62384282D01*
X192386137Y-62374054D01*
X192408659Y-62365996D01*
X192431863Y-62360184D01*
X192455524Y-62356674D01*
X192479416Y-62355500D01*
X192966916Y-62355500D01*
X192990808Y-62356674D01*
X192990808Y-62356674D01*
G37*
D11*
X192723166Y-63055500D03*
D10*
G36*
X191115808Y-62356674D02*
G01*
X191139469Y-62360184D01*
X191162673Y-62365996D01*
X191185195Y-62374054D01*
X191206819Y-62384282D01*
X191227336Y-62396579D01*
X191246549Y-62410829D01*
X191264273Y-62426893D01*
X191280337Y-62444617D01*
X191294587Y-62463830D01*
X191306884Y-62484347D01*
X191317112Y-62505971D01*
X191325170Y-62528493D01*
X191330982Y-62551697D01*
X191334492Y-62575358D01*
X191335666Y-62599250D01*
X191335666Y-63511750D01*
X191334492Y-63535642D01*
X191330982Y-63559303D01*
X191325170Y-63582507D01*
X191317112Y-63605029D01*
X191306884Y-63626653D01*
X191294587Y-63647170D01*
X191280337Y-63666383D01*
X191264273Y-63684107D01*
X191246549Y-63700171D01*
X191227336Y-63714421D01*
X191206819Y-63726718D01*
X191185195Y-63736946D01*
X191162673Y-63745004D01*
X191139469Y-63750816D01*
X191115808Y-63754326D01*
X191091916Y-63755500D01*
X190604416Y-63755500D01*
X190580524Y-63754326D01*
X190556863Y-63750816D01*
X190533659Y-63745004D01*
X190511137Y-63736946D01*
X190489513Y-63726718D01*
X190468996Y-63714421D01*
X190449783Y-63700171D01*
X190432059Y-63684107D01*
X190415995Y-63666383D01*
X190401745Y-63647170D01*
X190389448Y-63626653D01*
X190379220Y-63605029D01*
X190371162Y-63582507D01*
X190365350Y-63559303D01*
X190361840Y-63535642D01*
X190360666Y-63511750D01*
X190360666Y-62599250D01*
X190361840Y-62575358D01*
X190365350Y-62551697D01*
X190371162Y-62528493D01*
X190379220Y-62505971D01*
X190389448Y-62484347D01*
X190401745Y-62463830D01*
X190415995Y-62444617D01*
X190432059Y-62426893D01*
X190449783Y-62410829D01*
X190468996Y-62396579D01*
X190489513Y-62384282D01*
X190511137Y-62374054D01*
X190533659Y-62365996D01*
X190556863Y-62360184D01*
X190580524Y-62356674D01*
X190604416Y-62355500D01*
X191091916Y-62355500D01*
X191115808Y-62356674D01*
X191115808Y-62356674D01*
G37*
D11*
X190848166Y-63055500D03*
M02*
